M48
METRIC,LZ,000.000
;FILE_FORMAT=3:3
;TYPE=PLATED
;Layer: PTH_Through_Via
;EasyEDA v6.5.22, 2022-11-24 13:33:34
;a569f08a9e4f4569b8c6db444d38c7d5,dbbd32702ee04327bcd14b3349a77860,10
;Gerber Generator version 0.2
;Holesize 1 = 0.250 mm
T01C0.250
;Holesize 2 = 0.305 mm
T02C0.305
%
G05
G90
T01
X015367Y-011557
X016256Y-012827
X001905Y-018415
X011176Y-018542
X005080Y-012319
X005389Y-014196
X006045Y-013589
X006655Y-013386
X010460Y-014389
X010460Y-014983
X010462Y-015626
X010460Y-016271
X010460Y-016921
X010462Y-017574
X010462Y-018176
X009296Y-019025
X008448Y-019037
X007661Y-019027
X004651Y-016830
X006873Y-017099
X006873Y-016403
X008232Y-017048
X006665Y-015466
X001755Y-016492
X000549Y-002113
X000538Y-002708
X011610Y-017694
X013350Y-017694
X018184Y-018659
X018209Y-019522
X011824Y-013889
X004839Y-006916
X011173Y-006906
X011153Y-009629
X004811Y-007976
X011135Y-008303
X005842Y-007239
X010160Y-007239
X005842Y-009271
X010160Y-009271
X010925Y-012347
X009623Y-012319
X010160Y-008255
X005842Y-008255
X008001Y-007239
X009144Y-008255
X009144Y-009271
X008255Y-015240
X007026Y-006099
X007673Y-006101
X009624Y-006099
X005723Y-006093
X010272Y-006101
X012937Y-003635
X002134Y-000625
X004506Y-018621
T02
X002141Y-001981
X002156Y-002682
X017018Y-019177
X014519Y-005227
X014501Y-005936
M30
