M48
METRIC,LZ,000.000
;FILE_FORMAT=3:3
;TYPE=PLATED
;Layer: PTH_Through
;EasyEDA v6.5.22, 2022-11-24 13:33:34
;a569f08a9e4f4569b8c6db444d38c7d5,dbbd32702ee04327bcd14b3349a77860,10
;Gerber Generator version 0.2
;Holesize 1 = 0.501 mm
T01C0.501
;Holesize 2 = 0.600 mm
T02C0.600
;Holesize 3 = 0.889 mm
T03C0.889
%
G05
G90
T01
X019693Y-017223
X019693Y-015953
X019693Y-014683
X019693Y-010873
X019693Y-012143
X019693Y-013413
X019693Y-007063
X019693Y-008333
X019693Y-009603
X019693Y-003253
X019693Y-004523
X019693Y-005793
X000676Y-009472
X000676Y-010742
X000676Y-012012
X000676Y-008202
X000676Y-006932
X000676Y-005662
T02
X018804Y-017223
X018804Y-015953
X018804Y-014683
X018804Y-013413
X018804Y-012143
X018804Y-010873
X018804Y-009603
X018804Y-008333
X018804Y-007063
X018804Y-005793
X018804Y-004523
X018804Y-003253
X001565Y-012012
X001565Y-010742
X001565Y-009472
X001565Y-008202
X001565Y-006932
X001565Y-005662
T03
X011457Y-001231
X008917Y-001231
X006377Y-001231
X016523Y-001231
X013981Y-001231
M30
