G04 Layer: TopSilkscreenLayer*
G04 EasyEDA v6.5.22, 2022-11-24 13:33:34*
G04 a569f08a9e4f4569b8c6db444d38c7d5,dbbd32702ee04327bcd14b3349a77860,10*
G04 Gerber Generator version 0.2*
G04 Scale: 100 percent, Rotated: No, Reflected: No *
G04 Dimensions in millimeters *
G04 leading zeros omitted , absolute positions ,4 integer and 5 decimal *
%FSLAX45Y45*%
%MOMM*%

%ADD10C,0.2032*%
%ADD11C,0.2540*%
%ADD12C,0.1524*%
%ADD13C,0.1520*%
%ADD14C,0.1500*%
%ADD15C,0.2030*%
%ADD16C,0.2450*%
%ADD17C,0.3000*%
%ADD18C,0.0180*%

%LPD*%
D10*
X569061Y-292313D02*
G01*
X569061Y-387563D01*
X569061Y-292313D02*
G01*
X605383Y-387563D01*
X641705Y-292313D02*
G01*
X605383Y-387563D01*
X641705Y-292313D02*
G01*
X641705Y-387563D01*
X671677Y-310347D02*
G01*
X680821Y-305775D01*
X694537Y-292313D01*
X694537Y-387563D01*
X794359Y-292313D02*
G01*
X794359Y-387563D01*
X794359Y-292313D02*
G01*
X830681Y-387563D01*
X867257Y-292313D02*
G01*
X830681Y-387563D01*
X867257Y-292313D02*
G01*
X867257Y-387563D01*
X901801Y-314919D02*
G01*
X901801Y-310347D01*
X906119Y-301203D01*
X910691Y-296631D01*
X919835Y-292313D01*
X938123Y-292313D01*
X947267Y-296631D01*
X951585Y-301203D01*
X956157Y-310347D01*
X956157Y-319491D01*
X951585Y-328635D01*
X942695Y-342097D01*
X897229Y-387563D01*
X960729Y-387563D01*
X1060805Y-292313D02*
G01*
X1060805Y-387563D01*
X1060805Y-292313D02*
G01*
X1097127Y-387563D01*
X1133449Y-292313D02*
G01*
X1097127Y-387563D01*
X1133449Y-292313D02*
G01*
X1133449Y-387563D01*
X1172565Y-292313D02*
G01*
X1222603Y-292313D01*
X1195425Y-328635D01*
X1208887Y-328635D01*
X1218031Y-333207D01*
X1222603Y-337779D01*
X1227175Y-351241D01*
X1227175Y-360385D01*
X1222603Y-374101D01*
X1213459Y-383245D01*
X1199743Y-387563D01*
X1186281Y-387563D01*
X1172565Y-383245D01*
X1167993Y-378673D01*
X1163421Y-369529D01*
X1116873Y-1776816D02*
G01*
X1107729Y-1781388D01*
X1098839Y-1790532D01*
X1094267Y-1799676D01*
X1094267Y-1817710D01*
X1098839Y-1826854D01*
X1107729Y-1835998D01*
X1116873Y-1840570D01*
X1130589Y-1845142D01*
X1153195Y-1845142D01*
X1166911Y-1840570D01*
X1176055Y-1835998D01*
X1185199Y-1826854D01*
X1189517Y-1817710D01*
X1189517Y-1799676D01*
X1185199Y-1790532D01*
X1176055Y-1781388D01*
X1166911Y-1776816D01*
X1153195Y-1776816D01*
X1153195Y-1799676D02*
G01*
X1153195Y-1776816D01*
X1094267Y-1719666D02*
G01*
X1098839Y-1733128D01*
X1112301Y-1742272D01*
X1135161Y-1746844D01*
X1148623Y-1746844D01*
X1171483Y-1742272D01*
X1185199Y-1733128D01*
X1189517Y-1719666D01*
X1189517Y-1710522D01*
X1185199Y-1696806D01*
X1171483Y-1687662D01*
X1148623Y-1683344D01*
X1135161Y-1683344D01*
X1112301Y-1687662D01*
X1098839Y-1696806D01*
X1094267Y-1710522D01*
X1094267Y-1719666D01*
X1094267Y-1644228D02*
G01*
X1094267Y-1594190D01*
X1130589Y-1621368D01*
X1130589Y-1607906D01*
X1135161Y-1598762D01*
X1139733Y-1594190D01*
X1153195Y-1589618D01*
X1162339Y-1589618D01*
X1176055Y-1594190D01*
X1185199Y-1603334D01*
X1189517Y-1616796D01*
X1189517Y-1630512D01*
X1185199Y-1644228D01*
X1180627Y-1648800D01*
X1171483Y-1653118D01*
X1112301Y-1559646D02*
G01*
X1107729Y-1550502D01*
X1094267Y-1536786D01*
X1189517Y-1536786D01*
X1116873Y-1438742D02*
G01*
X1107729Y-1443314D01*
X1098839Y-1452458D01*
X1094267Y-1461348D01*
X1094267Y-1479636D01*
X1098839Y-1488780D01*
X1107729Y-1497670D01*
X1116873Y-1502242D01*
X1130589Y-1506814D01*
X1153195Y-1506814D01*
X1166911Y-1502242D01*
X1176055Y-1497670D01*
X1185199Y-1488780D01*
X1189517Y-1479636D01*
X1189517Y-1461348D01*
X1185199Y-1452458D01*
X1176055Y-1443314D01*
X1166911Y-1438742D01*
X1153195Y-1438742D01*
X1153195Y-1461348D02*
G01*
X1153195Y-1438742D01*
X1094267Y-1385910D02*
G01*
X1098839Y-1399626D01*
X1107729Y-1404198D01*
X1116873Y-1404198D01*
X1126017Y-1399626D01*
X1130589Y-1390482D01*
X1135161Y-1372448D01*
X1139733Y-1358732D01*
X1148623Y-1349588D01*
X1157767Y-1345016D01*
X1171483Y-1345016D01*
X1180627Y-1349588D01*
X1185199Y-1354160D01*
X1189517Y-1367876D01*
X1189517Y-1385910D01*
X1185199Y-1399626D01*
X1180627Y-1404198D01*
X1171483Y-1408770D01*
X1157767Y-1408770D01*
X1148623Y-1404198D01*
X1139733Y-1395054D01*
X1135161Y-1381338D01*
X1130589Y-1363304D01*
X1126017Y-1354160D01*
X1116873Y-1349588D01*
X1107729Y-1349588D01*
X1098839Y-1354160D01*
X1094267Y-1367876D01*
X1094267Y-1385910D01*
X1094267Y-1315044D02*
G01*
X1162339Y-1315044D01*
X1176055Y-1310472D01*
X1185199Y-1301328D01*
X1189517Y-1287866D01*
X1189517Y-1278722D01*
X1185199Y-1265006D01*
X1176055Y-1255862D01*
X1162339Y-1251544D01*
X1094267Y-1251544D01*
X424687Y-1251894D02*
G01*
X424687Y-1347350D01*
X424687Y-1251894D02*
G01*
X461050Y-1347350D01*
X497418Y-1251894D02*
G01*
X461050Y-1347350D01*
X497418Y-1251894D02*
G01*
X497415Y-1347350D01*
X550141Y-1283713D02*
G01*
X541050Y-1288257D01*
X531959Y-1297350D01*
X527415Y-1310985D01*
X527415Y-1320076D01*
X531959Y-1333713D01*
X541050Y-1342804D01*
X550141Y-1347350D01*
X563778Y-1347350D01*
X572869Y-1342804D01*
X581959Y-1333713D01*
X586503Y-1320076D01*
X586506Y-1310985D01*
X581959Y-1297350D01*
X572869Y-1288257D01*
X563778Y-1283713D01*
X550141Y-1283713D01*
X666506Y-1297350D02*
G01*
X661959Y-1288257D01*
X648324Y-1283713D01*
X634685Y-1283713D01*
X621050Y-1288257D01*
X616506Y-1297348D01*
X621050Y-1306441D01*
X630140Y-1310985D01*
X652868Y-1315532D01*
X661959Y-1320076D01*
X666506Y-1329166D01*
X666506Y-1333713D01*
X661959Y-1342804D01*
X648324Y-1347350D01*
X634687Y-1347350D01*
X621050Y-1342804D01*
X616506Y-1333710D01*
X751047Y-1283713D02*
G01*
X751050Y-1379169D01*
X751050Y-1297350D02*
G01*
X741959Y-1288257D01*
X732868Y-1283713D01*
X719234Y-1283713D01*
X710140Y-1288257D01*
X701050Y-1297348D01*
X696506Y-1310985D01*
X696506Y-1320076D01*
X701050Y-1333710D01*
X710140Y-1342804D01*
X719234Y-1347350D01*
X732868Y-1347350D01*
X741959Y-1342804D01*
X751050Y-1333713D01*
X781050Y-1283713D02*
G01*
X781050Y-1329166D01*
X785596Y-1342804D01*
X794687Y-1347350D01*
X808324Y-1347350D01*
X817415Y-1342804D01*
X831049Y-1329166D01*
X831047Y-1283713D02*
G01*
X831049Y-1347350D01*
X861049Y-1251894D02*
G01*
X865596Y-1256441D01*
X870140Y-1251894D01*
X865596Y-1247350D01*
X861049Y-1251894D01*
X865596Y-1283713D02*
G01*
X865596Y-1347350D01*
X913777Y-1251894D02*
G01*
X913777Y-1329166D01*
X918324Y-1342804D01*
X927414Y-1347350D01*
X936505Y-1347350D01*
X900140Y-1283710D02*
G01*
X931956Y-1283713D01*
X989233Y-1283713D02*
G01*
X980142Y-1288257D01*
X971049Y-1297350D01*
X966505Y-1310985D01*
X966505Y-1320076D01*
X971049Y-1333713D01*
X980140Y-1342806D01*
X989233Y-1347350D01*
X1002868Y-1347350D01*
X1011958Y-1342806D01*
X1021049Y-1333713D01*
X1025596Y-1320076D01*
X1025596Y-1310985D01*
X1021049Y-1297350D01*
X1011956Y-1288257D01*
X1002868Y-1283713D01*
X989233Y-1283713D01*
G36*
X1335989Y-1366164D02*
G01*
X1335989Y-1396644D01*
X1371244Y-1396644D01*
X1371244Y-1366164D01*
G37*
G36*
X1210716Y-1366164D02*
G01*
X1210716Y-1396644D01*
X1245971Y-1396644D01*
X1245971Y-1366164D01*
G37*
D11*
X471304Y-291117D02*
G01*
X391302Y-291117D01*
X502290Y-180141D02*
G01*
X502290Y-260139D01*
X360324Y-180141D02*
G01*
X360324Y-260139D01*
X502871Y-122552D02*
G01*
X502871Y-42552D01*
X471888Y-11569D02*
G01*
X391891Y-11569D01*
X360911Y-122552D02*
G01*
X360911Y-42552D01*
D12*
X1574830Y-1232839D02*
G01*
X1495821Y-1232839D01*
X1495821Y-1332560D02*
G01*
X1574830Y-1332560D01*
X1590070Y-1317320D02*
G01*
X1590070Y-1248079D01*
X1371569Y-1232839D02*
G01*
X1450578Y-1232839D01*
X1450578Y-1332560D02*
G01*
X1371569Y-1332560D01*
X1356329Y-1317320D02*
G01*
X1356329Y-1248079D01*
D13*
X1218359Y-1564243D02*
G01*
X1238981Y-1564243D01*
X1363601Y-1564243D02*
G01*
X1343980Y-1564243D01*
D12*
X1363601Y-1388998D02*
G01*
X1363601Y-1564243D01*
X1218359Y-1388998D02*
G01*
X1218359Y-1564243D01*
X1363601Y-1429443D02*
G01*
X1218359Y-1429443D01*
D11*
X1612900Y-1531005D02*
G01*
X1612900Y-1491594D01*
X1409700Y-1491594D02*
G01*
X1409700Y-1531005D01*
D12*
X1772356Y-1345432D02*
G01*
X1772356Y-1249545D01*
X1640235Y-1249545D01*
X1640235Y-1345432D01*
X1772356Y-1430675D02*
G01*
X1772356Y-1526562D01*
X1640235Y-1526562D01*
X1640235Y-1430675D01*
X1640235Y-1718894D02*
G01*
X1640235Y-1814781D01*
X1772356Y-1814781D01*
X1772356Y-1718894D01*
X1640235Y-1633651D02*
G01*
X1640235Y-1537764D01*
X1772356Y-1537764D01*
X1772356Y-1633651D01*
D11*
X1616699Y-1216799D02*
G01*
X1456700Y-1216799D01*
X1456700Y-916800D02*
G01*
X1616699Y-916800D01*
D12*
X1191021Y-1967560D02*
G01*
X1270030Y-1967560D01*
X1270030Y-1867839D02*
G01*
X1191021Y-1867839D01*
X1285270Y-1952320D02*
G01*
X1285270Y-1883079D01*
X1066769Y-1867839D02*
G01*
X1145778Y-1867839D01*
X1145778Y-1967560D02*
G01*
X1066769Y-1967560D01*
X1051529Y-1952320D02*
G01*
X1051529Y-1883079D01*
D14*
X1606288Y-1895797D02*
G01*
X1606288Y-2015802D01*
X1529288Y-1895797D02*
G01*
X1606288Y-1895797D01*
X1416286Y-1895797D02*
G01*
X1416286Y-2015802D01*
X1493286Y-1895797D02*
G01*
X1416286Y-1895797D01*
X1493286Y-2015802D02*
G01*
X1416286Y-2015802D01*
X1529288Y-2015802D02*
G01*
X1606288Y-2015802D01*
D11*
X221094Y-1714136D02*
G01*
X221094Y-1414134D01*
X21094Y-1414137D02*
G01*
X21094Y-1714136D01*
D12*
X1292227Y-650501D02*
G01*
X1292227Y-1004780D01*
X306986Y-1004780D01*
X306986Y-650501D01*
X1292227Y-650501D01*
X538947Y-1444185D02*
G01*
X538947Y-1419616D01*
X563516Y-1419616D01*
X954186Y-1444185D02*
G01*
X954186Y-1419616D01*
X929617Y-1419616D01*
X538947Y-1810285D02*
G01*
X538947Y-1834855D01*
X563516Y-1834855D01*
X954186Y-1810285D02*
G01*
X954186Y-1834855D01*
X929617Y-1834855D01*
D11*
X387243Y-1601365D02*
G01*
X257246Y-1601365D01*
X257246Y-1981354D02*
G01*
X387243Y-1981354D01*
X257246Y-1863140D02*
G01*
X257246Y-1839468D01*
X257246Y-1743252D02*
G01*
X257246Y-1719579D01*
X387243Y-1863140D02*
G01*
X387243Y-1839468D01*
X387243Y-1743252D02*
G01*
X387243Y-1719579D01*
X1487233Y-495322D02*
G01*
X1487233Y-415320D01*
X1598208Y-526308D02*
G01*
X1518211Y-526308D01*
X1598208Y-384342D02*
G01*
X1518211Y-384342D01*
X1655798Y-526889D02*
G01*
X1735797Y-526889D01*
X1766780Y-495907D02*
G01*
X1766780Y-415909D01*
X1655798Y-384929D02*
G01*
X1735797Y-384929D01*
D12*
X1612930Y-1690039D02*
G01*
X1533921Y-1690039D01*
X1533921Y-1789760D02*
G01*
X1612930Y-1789760D01*
X1628170Y-1774520D02*
G01*
X1628170Y-1705279D01*
X1409669Y-1690039D02*
G01*
X1488678Y-1690039D01*
X1488678Y-1789760D02*
G01*
X1409669Y-1789760D01*
X1394429Y-1774520D02*
G01*
X1394429Y-1705279D01*
X1829628Y-630077D02*
G01*
X1804228Y-604677D01*
X1804228Y-553877D01*
X1829628Y-528477D01*
X1829628Y-503077D01*
X1804228Y-477677D01*
X1804228Y-426877D01*
X1829628Y-401477D01*
X1829628Y-376077D01*
X1804228Y-350677D01*
X1804228Y-299877D01*
X1855028Y-249077D01*
X1905828Y-249077D01*
X1905828Y-1798477D02*
G01*
X1855028Y-1798477D01*
X1804228Y-1747677D01*
X1829628Y-884077D02*
G01*
X1804228Y-858677D01*
X1804228Y-807877D01*
X1829628Y-782477D01*
X1829628Y-757077D01*
X1804228Y-731677D01*
X1804228Y-680877D01*
X1829628Y-655477D01*
X1829628Y-884077D02*
G01*
X1804228Y-858677D01*
X1804228Y-807877D01*
X1829628Y-782477D01*
X1829628Y-757077D01*
X1804228Y-731677D01*
X1804228Y-680877D01*
X1829628Y-655477D01*
X1829628Y-630077D01*
X1829628Y-1138077D02*
G01*
X1804228Y-1112677D01*
X1804228Y-1061877D01*
X1829628Y-1036477D01*
X1829628Y-1011077D01*
X1804228Y-985677D01*
X1804228Y-934877D01*
X1829628Y-909477D01*
X1829628Y-1138077D02*
G01*
X1804228Y-1112677D01*
X1804228Y-1061877D01*
X1829628Y-1036477D01*
X1829628Y-1011077D01*
X1804228Y-985677D01*
X1804228Y-934877D01*
X1829628Y-909477D01*
X1829628Y-884077D01*
X1829628Y-1392077D02*
G01*
X1804228Y-1366677D01*
X1804228Y-1315877D01*
X1829628Y-1290477D01*
X1829628Y-1265077D01*
X1804228Y-1239677D01*
X1804228Y-1188877D01*
X1829628Y-1163477D01*
X1829628Y-1392077D02*
G01*
X1804228Y-1366677D01*
X1804228Y-1315877D01*
X1829628Y-1290477D01*
X1829628Y-1265077D01*
X1804228Y-1239677D01*
X1804228Y-1188877D01*
X1829628Y-1163477D01*
X1829628Y-1138077D01*
X1829628Y-1646077D02*
G01*
X1804228Y-1620677D01*
X1804228Y-1569877D01*
X1829628Y-1544477D01*
X1829628Y-1519077D01*
X1804228Y-1493677D01*
X1804228Y-1442877D01*
X1829628Y-1417477D01*
X1829628Y-1646077D02*
G01*
X1804228Y-1620677D01*
X1804228Y-1569877D01*
X1829628Y-1544477D01*
X1829628Y-1519077D01*
X1804228Y-1493677D01*
X1804228Y-1442877D01*
X1829628Y-1417477D01*
X1829628Y-1392077D01*
X1804228Y-1747677D02*
G01*
X1804228Y-1696877D01*
X1829628Y-1671477D01*
X1829628Y-1671477D02*
G01*
X1804228Y-1696877D01*
X1804228Y-1747677D01*
X1804228Y-1696877D01*
X1829628Y-1671477D01*
X1829628Y-1646077D01*
X1804228Y-1620677D01*
X1804228Y-1569877D01*
X1829628Y-1544477D01*
X1829628Y-1519077D01*
X1804228Y-1493677D01*
X1804228Y-1442877D01*
X1829628Y-1417477D01*
X1829628Y-1392077D01*
X1804228Y-1366677D01*
X1804228Y-1315877D01*
X1829628Y-1290477D01*
X1829628Y-1265077D01*
X1804228Y-1239677D01*
X1804228Y-1188877D01*
X1829628Y-1163477D01*
X1829628Y-1138077D01*
X1804228Y-1112677D01*
X1804228Y-1061877D01*
X1829628Y-1036477D01*
X1829628Y-1011077D01*
X1804228Y-985677D01*
X1804228Y-934877D01*
X1829628Y-909477D01*
X1829628Y-884077D01*
X1804228Y-858677D01*
X1804228Y-807877D01*
X1829628Y-782477D01*
X1829628Y-757077D01*
X1804228Y-731677D01*
X1804228Y-680877D01*
X1829628Y-655477D01*
X1829628Y-630077D01*
X1804228Y-604677D01*
X1804228Y-553877D01*
X1829628Y-528477D01*
X1829628Y-503077D01*
X1804228Y-477677D01*
X1804228Y-426877D01*
X1829628Y-401477D01*
X1829628Y-376077D01*
X1804228Y-350677D01*
X1804228Y-299877D01*
X1855028Y-249077D01*
X1905828Y-249077D01*
D10*
X1272677Y-250093D02*
G01*
X1018677Y-250093D01*
X1018677Y3906D01*
X1272677Y3906D01*
X1272677Y-186593D01*
D15*
X1272677Y-250093D02*
G01*
X1272677Y-186593D01*
D10*
X1018677Y-250093D02*
G01*
X764677Y-250093D01*
X764677Y3906D01*
X1018677Y3906D01*
X1018677Y-186593D01*
D15*
X1018677Y-250093D02*
G01*
X1018677Y-186593D01*
D10*
X764677Y-250093D02*
G01*
X510677Y-250093D01*
X510677Y3906D01*
X764677Y3906D01*
X764677Y-186593D01*
D15*
X764677Y-250093D02*
G01*
X764677Y-186593D01*
D10*
X1779254Y-250093D02*
G01*
X1525254Y-250093D01*
X1525254Y3906D01*
X1779254Y3906D01*
X1779254Y-186593D01*
D15*
X1779254Y-250093D02*
G01*
X1779254Y-186593D01*
D10*
X1525061Y-250093D02*
G01*
X1271061Y-250093D01*
X1271061Y3906D01*
X1525061Y3906D01*
X1525061Y-186593D01*
D15*
X1525061Y-250093D02*
G01*
X1525061Y-186593D01*
D12*
X1414896Y-487923D02*
G01*
X1414896Y-408914D01*
X1315176Y-408914D02*
G01*
X1315176Y-487923D01*
X1330416Y-503163D02*
G01*
X1399656Y-503163D01*
X1414896Y-284662D02*
G01*
X1414896Y-363672D01*
X1315176Y-363672D02*
G01*
X1315176Y-284662D01*
X1330416Y-269422D02*
G01*
X1399656Y-269422D01*
X1506590Y-365099D02*
G01*
X1585600Y-365099D01*
X1585600Y-265379D02*
G01*
X1506590Y-265379D01*
X1491350Y-280619D02*
G01*
X1491350Y-349859D01*
X1709851Y-365099D02*
G01*
X1630842Y-365099D01*
X1630842Y-265379D02*
G01*
X1709851Y-265379D01*
X1725091Y-280619D02*
G01*
X1725091Y-349859D01*
X1612930Y-1791639D02*
G01*
X1533921Y-1791639D01*
X1533921Y-1891360D02*
G01*
X1612930Y-1891360D01*
X1628170Y-1876120D02*
G01*
X1628170Y-1806879D01*
X1409669Y-1791639D02*
G01*
X1488678Y-1791639D01*
X1488678Y-1891360D02*
G01*
X1409669Y-1891360D01*
X1394429Y-1876120D02*
G01*
X1394429Y-1806879D01*
X380111Y-1440647D02*
G01*
X380111Y-1361638D01*
X280390Y-1361638D02*
G01*
X280390Y-1440647D01*
X295630Y-1455887D02*
G01*
X364870Y-1455887D01*
X380111Y-1237386D02*
G01*
X380111Y-1316395D01*
X280390Y-1316395D02*
G01*
X280390Y-1237386D01*
X295630Y-1222146D02*
G01*
X364870Y-1222146D01*
X1316177Y-627923D02*
G01*
X1316177Y-706932D01*
X1415897Y-706932D02*
G01*
X1415897Y-627923D01*
X1400657Y-612683D02*
G01*
X1331417Y-612683D01*
X1316177Y-831184D02*
G01*
X1316177Y-752175D01*
X1415897Y-752175D02*
G01*
X1415897Y-831184D01*
X1400657Y-846424D02*
G01*
X1331417Y-846424D01*
X232699Y-1226571D02*
G01*
X181899Y-1277371D01*
X131099Y-1277371D01*
X207299Y-1150371D02*
G01*
X232699Y-1175771D01*
X232699Y-1226571D01*
X207299Y-1251971D01*
X207299Y-1251971D01*
X207299Y-1150371D02*
G01*
X232699Y-1175771D01*
X232699Y-1226571D01*
X207299Y-1251971D01*
X207299Y-1251971D01*
X207299Y-616971D02*
G01*
X232699Y-591571D01*
X232699Y-540771D01*
X232699Y-591571D01*
X207299Y-616971D01*
X207299Y-642371D01*
X232699Y-667771D01*
X232699Y-718571D01*
X207299Y-743971D01*
X207299Y-769371D01*
X232699Y-794771D01*
X232699Y-845571D01*
X207299Y-870971D01*
X207299Y-896371D01*
X232699Y-921771D01*
X232699Y-972571D01*
X207299Y-997971D01*
X207299Y-1023371D01*
X232699Y-1048771D01*
X232699Y-1099571D01*
X207299Y-1124971D01*
X207299Y-1150371D01*
X232699Y-1175771D01*
X232699Y-1226571D01*
X207299Y-1251971D01*
X207299Y-1251971D01*
X232699Y-1226571D02*
G01*
X181899Y-1277371D01*
X131099Y-1277371D01*
X131099Y-489971D02*
G01*
X181899Y-489971D01*
X232699Y-540771D01*
X207299Y-896371D02*
G01*
X232699Y-921771D01*
X232699Y-972571D01*
X207299Y-997971D01*
X207299Y-1023371D01*
X232699Y-1048771D01*
X232699Y-1099571D01*
X207299Y-1124971D01*
X207299Y-896371D02*
G01*
X232699Y-921771D01*
X232699Y-972571D01*
X207299Y-997971D01*
X207299Y-1023371D01*
X232699Y-1048771D01*
X232699Y-1099571D01*
X207299Y-1124971D01*
X207299Y-1150371D01*
X207299Y-642371D02*
G01*
X232699Y-667771D01*
X232699Y-718571D01*
X207299Y-743971D01*
X207299Y-769371D01*
X232699Y-794771D01*
X232699Y-845571D01*
X207299Y-870971D01*
X207299Y-642371D02*
G01*
X232699Y-667771D01*
X232699Y-718571D01*
X207299Y-743971D01*
X207299Y-769371D01*
X232699Y-794771D01*
X232699Y-845571D01*
X207299Y-870971D01*
X207299Y-896371D01*
X232699Y-540771D02*
G01*
X232699Y-591571D01*
X207299Y-616971D01*
D11*
X1483230Y-823572D02*
G01*
X1483230Y-743569D01*
X1594205Y-854557D02*
G01*
X1514208Y-854557D01*
X1594205Y-712591D02*
G01*
X1514208Y-712591D01*
X1651795Y-855139D02*
G01*
X1731794Y-855139D01*
X1762777Y-824156D02*
G01*
X1762777Y-744159D01*
X1651795Y-713178D02*
G01*
X1731794Y-713178D01*
X1485231Y-659447D02*
G01*
X1485231Y-579445D01*
X1596207Y-690432D02*
G01*
X1516209Y-690432D01*
X1596207Y-548467D02*
G01*
X1516209Y-548467D01*
X1653796Y-691014D02*
G01*
X1733796Y-691014D01*
X1764779Y-660031D02*
G01*
X1764779Y-580034D01*
X1653796Y-549054D02*
G01*
X1733796Y-549054D01*
X305117Y-328068D02*
G01*
X305117Y-408071D01*
X194142Y-297083D02*
G01*
X274139Y-297083D01*
X194142Y-439049D02*
G01*
X274139Y-439049D01*
X136552Y-296501D02*
G01*
X56553Y-296501D01*
X25570Y-327484D02*
G01*
X25570Y-407482D01*
X136552Y-438462D02*
G01*
X56553Y-438462D01*
D12*
X346085Y-237733D02*
G01*
X346085Y-158724D01*
X246364Y-158724D02*
G01*
X246364Y-237733D01*
X261604Y-252973D02*
G01*
X330845Y-252973D01*
X346085Y-34472D02*
G01*
X346085Y-113482D01*
X246364Y-113482D02*
G01*
X246364Y-34472D01*
X261604Y-19232D02*
G01*
X330845Y-19232D01*
D11*
G75*
G01*
X471889Y-11565D02*
G02*
X502872Y-42548I0J-30983D01*
G75*
G01*
X360906Y-42548D02*
G02*
X391892Y-11565I30983J0D01*
G75*
G01*
X502290Y-260134D02*
G02*
X471305Y-291117I-30983J0D01*
G75*
G01*
X391307Y-291117D02*
G02*
X360324Y-260134I0J30983D01*
D12*
G75*
G01*
X1574830Y-1332560D02*
G03*
X1590070Y-1317320I0J15240D01*
G75*
G01*
X1590070Y-1248080D02*
G03*
X1574830Y-1232840I-15240J0D01*
G75*
G01*
X1371570Y-1332560D02*
G02*
X1356330Y-1317320I0J15240D01*
G75*
G01*
X1356330Y-1248080D02*
G02*
X1371570Y-1232840I15240J0D01*
G75*
G01*
X1270030Y-1967560D02*
G03*
X1285270Y-1952320I0J15240D01*
G75*
G01*
X1285270Y-1883080D02*
G03*
X1270030Y-1867840I-15240J0D01*
G75*
G01*
X1066770Y-1967560D02*
G02*
X1051530Y-1952320I0J15240D01*
G75*
G01*
X1051530Y-1883080D02*
G02*
X1066770Y-1867840I15240J0D01*
D11*
G75*
G01*
X1766786Y-495907D02*
G02*
X1735803Y-526890I-30983J0D01*
G75*
G01*
X1735803Y-384924D02*
G02*
X1766786Y-415910I0J-30983D01*
G75*
G01*
X1518216Y-526308D02*
G02*
X1487233Y-495323I0J30983D01*
G75*
G01*
X1487233Y-415326D02*
G02*
X1518216Y-384343I30983J0D01*
D12*
G75*
G01*
X1612930Y-1789760D02*
G03*
X1628170Y-1774520I0J15240D01*
G75*
G01*
X1628170Y-1705280D02*
G03*
X1612930Y-1690040I-15240J0D01*
G75*
G01*
X1409670Y-1789760D02*
G02*
X1394430Y-1774520I0J15240D01*
G75*
G01*
X1394430Y-1705280D02*
G02*
X1409670Y-1690040I15240J0D01*
G75*
G01*
X1315176Y-487924D02*
G03*
X1330416Y-503164I15240J0D01*
G75*
G01*
X1399657Y-503164D02*
G03*
X1414897Y-487924I0J15240D01*
G75*
G01*
X1315176Y-284663D02*
G02*
X1330416Y-269423I15240J0D01*
G75*
G01*
X1399657Y-269423D02*
G02*
X1414897Y-284663I0J-15240D01*
G75*
G01*
X1506591Y-265379D02*
G03*
X1491351Y-280619I0J-15240D01*
G75*
G01*
X1491351Y-349860D02*
G03*
X1506591Y-365100I15240J0D01*
G75*
G01*
X1709852Y-265379D02*
G02*
X1725092Y-280619I0J-15240D01*
G75*
G01*
X1725092Y-349860D02*
G02*
X1709852Y-365100I-15240J0D01*
G75*
G01*
X1612930Y-1891360D02*
G03*
X1628170Y-1876120I0J15240D01*
G75*
G01*
X1628170Y-1806880D02*
G03*
X1612930Y-1791640I-15240J0D01*
G75*
G01*
X1409670Y-1891360D02*
G02*
X1394430Y-1876120I0J15240D01*
G75*
G01*
X1394430Y-1806880D02*
G02*
X1409670Y-1791640I15240J0D01*
G75*
G01*
X280391Y-1440647D02*
G03*
X295631Y-1455887I15240J0D01*
G75*
G01*
X364871Y-1455887D02*
G03*
X380111Y-1440647I0J15240D01*
G75*
G01*
X280391Y-1237386D02*
G02*
X295631Y-1222146I15240J0D01*
G75*
G01*
X364871Y-1222146D02*
G02*
X380111Y-1237386I0J-15240D01*
G75*
G01*
X1415898Y-627924D02*
G03*
X1400658Y-612684I-15240J0D01*
G75*
G01*
X1331417Y-612684D02*
G03*
X1316177Y-627924I0J-15240D01*
G75*
G01*
X1415898Y-831185D02*
G02*
X1400658Y-846425I-15240J0D01*
G75*
G01*
X1331417Y-846425D02*
G02*
X1316177Y-831185I0J15240D01*
D11*
G75*
G01*
X1762783Y-824156D02*
G02*
X1731800Y-855139I-30983J0D01*
G75*
G01*
X1731800Y-713174D02*
G02*
X1762783Y-744159I0J-30982D01*
G75*
G01*
X1514213Y-854558D02*
G02*
X1483230Y-823572I0J30983D01*
G75*
G01*
X1483230Y-743575D02*
G02*
X1514213Y-712592I30983J0D01*
G75*
G01*
X1764784Y-660032D02*
G02*
X1733801Y-691015I-30983J0D01*
G75*
G01*
X1733801Y-549049D02*
G02*
X1764784Y-580034I0J-30983D01*
G75*
G01*
X1516215Y-690433D02*
G02*
X1485232Y-659448I0J30983D01*
G75*
G01*
X1485232Y-579450D02*
G02*
X1516215Y-548467I30983J0D01*
G75*
G01*
X25565Y-327485D02*
G02*
X56548Y-296502I30983J0D01*
G75*
G01*
X56548Y-438467D02*
G02*
X25565Y-407482I0J30982D01*
G75*
G01*
X274135Y-297083D02*
G02*
X305117Y-328069I0J-30983D01*
G75*
G01*
X305117Y-408066D02*
G02*
X274135Y-439049I-30982J0D01*
D12*
G75*
G01*
X246365Y-237734D02*
G03*
X261605Y-252974I15240J0D01*
G75*
G01*
X330845Y-252974D02*
G03*
X346085Y-237734I0J15240D01*
G75*
G01*
X246365Y-34473D02*
G02*
X261605Y-19233I15240J0D01*
G75*
G01*
X330845Y-19233D02*
G02*
X346085Y-34473I0J-15240D01*
D16*
G75*
G01
X179121Y178D02*
G03X179121Y178I-179603J0D01*
G75*
G01
X179121Y-2031822D02*
G03X179121Y-2031822I-179603J0D01*
G75*
G01
X2211146Y457D02*
G03X2211146Y457I-179603J0D01*
G75*
G01
X2211146Y-2031543D02*
G03X2211146Y-2031543I-179603J0D01*
D11*
G75*
G01
X1761896Y-1164311D02*
G03X1761896Y-1164311I-12700J0D01*
G75*
G01
X184582Y-1564157D02*
G03X184582Y-1564157I-63500J0D01*
D17*
G75*
G01
X1237132Y-725729D02*
G03X1237132Y-725729I-15011J0D01*
G75*
G01
X1299515Y-541045D02*
G03X1299515Y-541045I-15011J0D01*
D14*
G75*
G01
X604088Y-1872234D02*
G03X604088Y-1872234I-7493J0D01*
D11*
X510895Y177D02*
G01*
X1273479Y177D01*
X1273479Y-433146D01*
X510895Y-433146D01*
X510895Y177D01*
M02*
