G04 Layer: TopLayer*
G04 EasyEDA v6.5.22, 2022-11-24 13:33:34*
G04 a569f08a9e4f4569b8c6db444d38c7d5,dbbd32702ee04327bcd14b3349a77860,10*
G04 Gerber Generator version 0.2*
G04 Scale: 100 percent, Rotated: No, Reflected: No *
G04 Dimensions in millimeters *
G04 leading zeros omitted , absolute positions ,4 integer and 5 decimal *
%FSLAX45Y45*%
%MOMM*%

%AMMACRO1*21,1,$1,$2,0,0,$3*%
%AMMACRO2*4,1,4,-0.35,0.15,0.35,0.15,0.35,-0.15,-0.35,-0.15,-0.35,0.15,0*%
%AMMACRO3*4,1,5,-0.0875,0.15,0.3375,0.15,0.3375,-0.15,-0.3375,-0.15,-0.3375,-0.1,-0.0875,0.15,0*%
%AMMACRO4*4,1,5,0.15,-0.0875,0.15,0.3375,-0.15,0.3375,-0.15,-0.3375,-0.1,-0.3375,0.15,-0.0875,0*%
%AMMACRO5*4,1,5,0.0875,0.15,-0.3375,0.15,-0.3375,-0.15,0.3375,-0.15,0.3375,-0.1,0.0875,0.15,0*%
%AMMACRO6*4,1,5,-0.15,-0.0875,-0.15,0.3375,0.15,0.3375,0.15,-0.3375,0.1,-0.3375,-0.15,-0.0875,0*%
%AMMACRO7*4,1,5,-0.15,0.0875,-0.15,-0.3375,0.15,-0.3375,0.15,0.3375,0.1,0.3375,-0.15,0.0875,0*%
%AMMACRO8*4,1,5,0.0875,-0.15,-0.3375,-0.15,-0.3375,0.15,0.3375,0.15,0.3375,0.1,0.0875,-0.15,0*%
%AMMACRO9*4,1,5,-0.0875,-0.15,0.3375,-0.15,0.3375,0.15,-0.3375,0.15,-0.3375,0.1,-0.0875,-0.15,0*%
%AMMACRO10*4,1,5,0.15,0.0875,0.15,-0.3375,-0.15,-0.3375,-0.15,0.3375,-0.1,0.3375,0.15,0.0875,0*%
%ADD10C,0.2000*%
%ADD11C,0.3530*%
%ADD12C,0.2450*%
%ADD13C,0.3170*%
%ADD14C,0.2020*%
%ADD15C,0.1000*%
%ADD16C,1.0000*%
%ADD17R,0.9000X0.8000*%
%ADD18MACRO1,0.54X0.7901X90.0000*%
%ADD19R,0.7500X1.0000*%
%ADD20R,2.2000X1.2000*%
%ADD21MACRO1,0.864X0.8065X0.0000*%
%ADD22R,0.8640X0.8065*%
%ADD23R,1.2000X0.5500*%
%ADD24R,0.5000X0.8000*%
%ADD25R,1.5240X0.8000*%
%ADD26O,0.3430016X1.7314926000000002*%
%ADD27R,5.6000X3.1000*%
%ADD28R,0.3000X0.7000*%
%ADD29R,0.7000X0.3000*%
%ADD30MACRO2*%
%ADD31MACRO3*%
%ADD32MACRO4*%
%ADD33MACRO5*%
%ADD34MACRO6*%
%ADD35MACRO7*%
%ADD36MACRO8*%
%ADD37MACRO9*%
%ADD38MACRO10*%
%ADD39R,1.7000X0.6500*%
%ADD40R,1.7000X0.5000*%
%ADD41R,0.8000X0.9000*%
%ADD42MACRO1,0.54X0.7901X0.0000*%
%ADD43R,0.5400X0.7901*%
%ADD44MACRO1,0.54X0.7901X-90.0000*%
%ADD45C,0.9000*%
%ADD46R,0.9000X0.9000*%
%ADD47R,1.5748X1.5748*%
%ADD48C,0.6096*%
%ADD49C,0.4000*%
%ADD50C,0.0160*%

%LPD*%
G36*
X944880Y-632460D02*
G01*
X940968Y-631698D01*
X937666Y-629462D01*
X935482Y-626160D01*
X934719Y-622249D01*
X934719Y-447344D01*
X934008Y-445617D01*
X887831Y-399440D01*
X885647Y-396189D01*
X884885Y-392277D01*
X885647Y-388416D01*
X887831Y-385114D01*
X900684Y-372262D01*
X903884Y-370027D01*
X908608Y-366318D01*
X1021130Y-253796D01*
X1024839Y-248666D01*
X1026617Y-244094D01*
X1027176Y-241757D01*
X1028801Y-238201D01*
X1028700Y-36068D01*
X1029462Y-32207D01*
X1031697Y-28905D01*
X1034999Y-26670D01*
X1038860Y-25908D01*
X1251712Y-25908D01*
X1255572Y-26670D01*
X1258874Y-28905D01*
X1261110Y-32207D01*
X1261872Y-36118D01*
X1260957Y-256032D01*
X1260195Y-259892D01*
X1258011Y-263144D01*
X1201877Y-319278D01*
X1198575Y-321462D01*
X1194714Y-322224D01*
X1112824Y-322224D01*
X1107440Y-325475D01*
X1097686Y-328269D01*
X1091082Y-331774D01*
X1084935Y-336854D01*
X1000506Y-421284D01*
X995426Y-427431D01*
X991920Y-434035D01*
X989736Y-441198D01*
X988974Y-449122D01*
X988974Y-540562D01*
X989482Y-545947D01*
X989482Y-594258D01*
X989025Y-597204D01*
X987501Y-602234D01*
X986739Y-610108D01*
X987501Y-617982D01*
X988314Y-623112D01*
X987348Y-626770D01*
X985113Y-629767D01*
X981913Y-631799D01*
X978204Y-632460D01*
G37*

%LPD*%
G36*
X755142Y-633476D02*
G01*
X751281Y-632714D01*
X747979Y-630529D01*
X745794Y-627278D01*
X744982Y-623366D01*
X743102Y-328930D01*
X743864Y-325018D01*
X746099Y-321665D01*
X768604Y-299161D01*
X771652Y-294690D01*
X773379Y-290118D01*
X774090Y-284581D01*
X774090Y-268224D01*
X774395Y-265633D01*
X775614Y-262178D01*
X775614Y-30683D01*
X776376Y-26771D01*
X778560Y-23469D01*
X781862Y-21285D01*
X785774Y-20523D01*
X996594Y-20523D01*
X1000506Y-21285D01*
X1003808Y-23469D01*
X1005992Y-26771D01*
X1006754Y-30683D01*
X1006754Y-234950D01*
X1005992Y-238861D01*
X1003808Y-242163D01*
X896112Y-349859D01*
X894130Y-351383D01*
X890981Y-352958D01*
X800303Y-443636D01*
X799592Y-445363D01*
X799592Y-450545D01*
X799287Y-452983D01*
X797356Y-457250D01*
X795223Y-464312D01*
X794461Y-472135D01*
X794461Y-610006D01*
X795223Y-617829D01*
X795985Y-620369D01*
X796391Y-624128D01*
X795426Y-627735D01*
X793191Y-630783D01*
X789990Y-632764D01*
X786282Y-633476D01*
G37*

%LPD*%
G36*
X683615Y-634492D02*
G01*
X679500Y-633628D01*
X676097Y-631139D01*
X673963Y-627532D01*
X673506Y-623366D01*
X674776Y-610006D01*
X674776Y-472135D01*
X673963Y-464312D01*
X671830Y-457250D01*
X668375Y-450748D01*
X663702Y-445058D01*
X658012Y-440385D01*
X651510Y-436880D01*
X644448Y-434746D01*
X636371Y-433984D01*
X633018Y-433070D01*
X630174Y-431038D01*
X627938Y-428802D01*
X625754Y-425500D01*
X624941Y-421589D01*
X625094Y-412292D01*
X625906Y-407314D01*
X625906Y-397357D01*
X624941Y-392226D01*
X622960Y-387756D01*
X619506Y-383387D01*
X524205Y-288137D01*
X522833Y-285394D01*
X522376Y-282346D01*
X522376Y-30683D01*
X523189Y-26771D01*
X525373Y-23469D01*
X528675Y-21285D01*
X532536Y-20523D01*
X743407Y-20523D01*
X747318Y-21285D01*
X750620Y-23469D01*
X752805Y-26771D01*
X753567Y-30683D01*
X753567Y-281025D01*
X752805Y-284886D01*
X750620Y-288188D01*
X723239Y-315569D01*
X722579Y-317246D01*
X724509Y-624281D01*
X723747Y-628142D01*
X721512Y-631494D01*
X718210Y-633679D01*
X714349Y-634492D01*
G37*

%LPD*%
G36*
X557682Y-636473D02*
G01*
X554024Y-635812D01*
X550875Y-633831D01*
X548589Y-630834D01*
X547573Y-627278D01*
X547928Y-623519D01*
X549402Y-618388D01*
X550164Y-610006D01*
X550164Y-472135D01*
X549402Y-463753D01*
X547217Y-456082D01*
X543661Y-449021D01*
X538886Y-442671D01*
X533044Y-437337D01*
X526288Y-433120D01*
X518871Y-430276D01*
X511098Y-428802D01*
X503123Y-428802D01*
X495350Y-430276D01*
X487984Y-433120D01*
X480059Y-438150D01*
X476504Y-439521D01*
X472693Y-439521D01*
X469188Y-438150D01*
X461213Y-433120D01*
X453898Y-430276D01*
X446074Y-428802D01*
X438150Y-428802D01*
X430326Y-430276D01*
X422960Y-433120D01*
X415035Y-438150D01*
X411530Y-439521D01*
X407720Y-439521D01*
X404164Y-438150D01*
X396240Y-433120D01*
X388874Y-430276D01*
X381050Y-428802D01*
X373126Y-428802D01*
X365353Y-430276D01*
X357936Y-433120D01*
X351180Y-437337D01*
X345338Y-442671D01*
X342544Y-446328D01*
X340360Y-448462D01*
X337566Y-449884D01*
X334518Y-450342D01*
X289153Y-450596D01*
X285546Y-449935D01*
X177038Y-409600D01*
X173583Y-407466D01*
X171246Y-404114D01*
X170434Y-400100D01*
X169926Y-231648D01*
X170586Y-228092D01*
X172415Y-224942D01*
X241960Y-144475D01*
X244754Y-142240D01*
X248158Y-141071D01*
X251714Y-141173D01*
X255066Y-142544D01*
X258013Y-144373D01*
X263448Y-146304D01*
X269798Y-147015D01*
X322630Y-147015D01*
X328980Y-146304D01*
X334416Y-144373D01*
X339344Y-141325D01*
X343408Y-137210D01*
X345846Y-133350D01*
X348640Y-130454D01*
X352348Y-128828D01*
X356362Y-128778D01*
X360121Y-130302D01*
X362966Y-133197D01*
X366522Y-138633D01*
X370230Y-142341D01*
X375107Y-145389D01*
X380593Y-147320D01*
X386892Y-148031D01*
X472185Y-148031D01*
X476097Y-148793D01*
X479399Y-151028D01*
X481584Y-154330D01*
X482346Y-158191D01*
X482346Y-256032D01*
X481584Y-259943D01*
X479399Y-263245D01*
X476097Y-265430D01*
X472185Y-266192D01*
X298246Y-266192D01*
X297230Y-267208D01*
X297230Y-303225D01*
X298297Y-305054D01*
X299212Y-305257D01*
X508203Y-305257D01*
X512064Y-306019D01*
X515366Y-308203D01*
X602488Y-395325D01*
X604418Y-398068D01*
X605383Y-401269D01*
X605231Y-404571D01*
X604469Y-408381D01*
X604469Y-440385D01*
X603910Y-443636D01*
X602386Y-446532D01*
X600557Y-449021D01*
X597001Y-456082D01*
X594817Y-463753D01*
X594055Y-472135D01*
X594055Y-610006D01*
X595376Y-621639D01*
X595376Y-626313D01*
X594563Y-630224D01*
X592378Y-633526D01*
X589076Y-635711D01*
X585216Y-636473D01*
G37*

%LPD*%
G36*
X1823313Y-1032560D02*
G01*
X1819656Y-1031595D01*
X1816607Y-1029360D01*
X1814626Y-1026160D01*
X1813915Y-1022451D01*
X1813915Y-1003808D01*
X1813052Y-995832D01*
X1810766Y-988720D01*
X1806956Y-982116D01*
X1803095Y-977646D01*
X1771294Y-945794D01*
X1765046Y-940765D01*
X1758340Y-937361D01*
X1751025Y-935380D01*
X1746046Y-935024D01*
X1742998Y-934313D01*
X1740306Y-932687D01*
X1736902Y-928217D01*
X1732788Y-924102D01*
X1727911Y-921003D01*
X1722424Y-919124D01*
X1716125Y-918413D01*
X1674215Y-918413D01*
X1670354Y-917651D01*
X1667052Y-915416D01*
X1664868Y-912164D01*
X1664055Y-908303D01*
X1661160Y-238353D01*
X1660448Y-232308D01*
X1658518Y-226821D01*
X1655419Y-221945D01*
X1653387Y-219659D01*
X1542034Y-108356D01*
X1539849Y-105054D01*
X1539036Y-101142D01*
X1539036Y-40182D01*
X1539849Y-36271D01*
X1542034Y-32969D01*
X1545336Y-30784D01*
X1549196Y-30022D01*
X1850542Y-30022D01*
X1853946Y-30581D01*
X1856943Y-32258D01*
X1859229Y-34848D01*
X1860499Y-38100D01*
X1861921Y-44805D01*
X1867407Y-62026D01*
X1874672Y-78638D01*
X1883562Y-94386D01*
X1894078Y-109169D01*
X1906016Y-122783D01*
X1919325Y-135077D01*
X1933803Y-145948D01*
X1949348Y-155244D01*
X1965756Y-162915D01*
X1982825Y-168910D01*
X1992172Y-171094D01*
X1996186Y-173075D01*
X1998980Y-176580D01*
X1999996Y-181000D01*
X1999996Y-241909D01*
X1999335Y-245516D01*
X1997506Y-248615D01*
X1994662Y-250850D01*
X1991207Y-251967D01*
X1987550Y-251815D01*
X1980641Y-250240D01*
X1968957Y-249377D01*
X1880819Y-249377D01*
X1869135Y-250240D01*
X1858060Y-252780D01*
X1847494Y-256895D01*
X1837689Y-262585D01*
X1828800Y-269646D01*
X1821078Y-277977D01*
X1814728Y-287324D01*
X1809800Y-297535D01*
X1806448Y-308406D01*
X1804771Y-319582D01*
X1804771Y-330962D01*
X1806448Y-342138D01*
X1809800Y-353009D01*
X1814728Y-363220D01*
X1821078Y-372567D01*
X1829816Y-381812D01*
X1831848Y-385013D01*
X1832559Y-388772D01*
X1831848Y-392531D01*
X1829816Y-395732D01*
X1821078Y-404977D01*
X1814728Y-414324D01*
X1809800Y-424535D01*
X1806448Y-435406D01*
X1804771Y-446582D01*
X1804771Y-457962D01*
X1806448Y-469138D01*
X1809800Y-480009D01*
X1814728Y-490220D01*
X1821078Y-499567D01*
X1829816Y-508812D01*
X1831848Y-512013D01*
X1832559Y-515772D01*
X1831848Y-519531D01*
X1829816Y-522732D01*
X1821078Y-531977D01*
X1814728Y-541324D01*
X1809800Y-551535D01*
X1806448Y-562406D01*
X1804771Y-573582D01*
X1804771Y-584962D01*
X1806448Y-596138D01*
X1809800Y-607009D01*
X1814728Y-617220D01*
X1821078Y-626567D01*
X1829816Y-635812D01*
X1831848Y-639013D01*
X1832559Y-642772D01*
X1831848Y-646531D01*
X1829816Y-649732D01*
X1821078Y-658977D01*
X1814728Y-668324D01*
X1809800Y-678535D01*
X1806448Y-689406D01*
X1804771Y-700582D01*
X1804771Y-711962D01*
X1806448Y-723138D01*
X1809800Y-734009D01*
X1814728Y-744220D01*
X1821078Y-753567D01*
X1829816Y-762812D01*
X1831848Y-766013D01*
X1832559Y-769772D01*
X1831848Y-773531D01*
X1829816Y-776732D01*
X1821078Y-785977D01*
X1814728Y-795324D01*
X1809800Y-805535D01*
X1806448Y-816406D01*
X1804771Y-827582D01*
X1804771Y-838962D01*
X1806448Y-850137D01*
X1809800Y-861009D01*
X1814728Y-871219D01*
X1821078Y-880567D01*
X1828800Y-888898D01*
X1837689Y-895959D01*
X1847494Y-901649D01*
X1858060Y-905764D01*
X1869135Y-908303D01*
X1880819Y-909167D01*
X1968957Y-909167D01*
X1980641Y-908303D01*
X1987550Y-906729D01*
X1991207Y-906576D01*
X1994662Y-907694D01*
X1997506Y-909929D01*
X1999335Y-913079D01*
X1999996Y-916635D01*
X1999996Y-1003909D01*
X1999335Y-1007516D01*
X1997506Y-1010615D01*
X1994662Y-1012850D01*
X1991207Y-1013968D01*
X1987550Y-1013815D01*
X1980641Y-1012240D01*
X1968957Y-1011377D01*
X1880819Y-1011377D01*
X1869135Y-1012240D01*
X1858060Y-1014780D01*
X1847494Y-1018895D01*
X1837689Y-1024585D01*
X1830425Y-1030376D01*
X1827072Y-1032154D01*
G37*

%LPD*%
G36*
X1305560Y-1104900D02*
G01*
X1301648Y-1104138D01*
X1298397Y-1101902D01*
X1296162Y-1098651D01*
X1295400Y-1094740D01*
X1295400Y-886460D01*
X1296162Y-882548D01*
X1298397Y-879297D01*
X1301648Y-877062D01*
X1305560Y-876300D01*
X1421384Y-876300D01*
X1422400Y-875284D01*
X1422400Y-382016D01*
X1421384Y-381000D01*
X1410919Y-381000D01*
X1408125Y-380593D01*
X1403248Y-378002D01*
X1397812Y-376123D01*
X1391462Y-375412D01*
X1355445Y-375412D01*
X1352804Y-375056D01*
X1349095Y-374040D01*
X1340561Y-373278D01*
X1292860Y-373278D01*
X1288999Y-372465D01*
X1285697Y-370281D01*
X1283462Y-366979D01*
X1282700Y-363067D01*
X1282801Y-276809D01*
X1283665Y-272694D01*
X1285443Y-268630D01*
X1286713Y-263093D01*
X1286865Y-260045D01*
X1287780Y-36017D01*
X1288542Y-32156D01*
X1290726Y-28854D01*
X1294028Y-26670D01*
X1297940Y-25908D01*
X1502968Y-25908D01*
X1506880Y-26670D01*
X1510182Y-28905D01*
X1512366Y-32156D01*
X1513128Y-36068D01*
X1513128Y-115112D01*
X1513840Y-116789D01*
X1544624Y-147574D01*
X1546809Y-150876D01*
X1547622Y-154736D01*
X1547622Y-201269D01*
X1548333Y-207568D01*
X1550212Y-213055D01*
X1553311Y-217932D01*
X1557426Y-222046D01*
X1562303Y-225094D01*
X1567738Y-227025D01*
X1574088Y-227736D01*
X1620570Y-227736D01*
X1624482Y-228498D01*
X1627784Y-230733D01*
X1632305Y-235204D01*
X1634489Y-238506D01*
X1635251Y-242366D01*
X1635302Y-252120D01*
X1634540Y-256032D01*
X1632356Y-259334D01*
X1629054Y-261569D01*
X1617472Y-263042D01*
X1611985Y-264972D01*
X1607108Y-268020D01*
X1602994Y-272135D01*
X1599946Y-277012D01*
X1598015Y-282498D01*
X1597304Y-288798D01*
X1597304Y-341680D01*
X1598015Y-347980D01*
X1599946Y-353466D01*
X1602994Y-358343D01*
X1607058Y-362356D01*
X1612595Y-365709D01*
X1617472Y-367436D01*
X1623771Y-368147D01*
X1625701Y-368147D01*
X1629562Y-368909D01*
X1632864Y-371094D01*
X1635048Y-374396D01*
X1635861Y-378256D01*
X1635912Y-391414D01*
X1635506Y-394258D01*
X1632915Y-399135D01*
X1631035Y-404571D01*
X1630324Y-410921D01*
X1630324Y-499770D01*
X1631035Y-506120D01*
X1632915Y-511556D01*
X1634896Y-514705D01*
X1636064Y-517245D01*
X1636471Y-520039D01*
X1636623Y-551535D01*
X1636217Y-554431D01*
X1634947Y-557072D01*
X1630933Y-563321D01*
X1629003Y-568706D01*
X1628292Y-575056D01*
X1628292Y-663905D01*
X1629003Y-670204D01*
X1630933Y-675690D01*
X1636420Y-684072D01*
X1637182Y-687933D01*
X1637334Y-712927D01*
X1636522Y-716838D01*
X1634337Y-720140D01*
X1632000Y-722477D01*
X1628952Y-727405D01*
X1627022Y-732840D01*
X1626311Y-739190D01*
X1626311Y-828040D01*
X1627022Y-834339D01*
X1628952Y-839825D01*
X1632000Y-844702D01*
X1634947Y-847648D01*
X1637131Y-850900D01*
X1637944Y-854760D01*
X1638147Y-908202D01*
X1637385Y-912114D01*
X1635201Y-915416D01*
X1631899Y-917600D01*
X1627987Y-918413D01*
X1597253Y-918413D01*
X1590954Y-919124D01*
X1585468Y-921003D01*
X1580591Y-924102D01*
X1576476Y-928217D01*
X1573377Y-933094D01*
X1571498Y-938580D01*
X1570786Y-944880D01*
X1570786Y-998677D01*
X1571752Y-1006551D01*
X1571345Y-1010919D01*
X1569161Y-1014730D01*
X1488897Y-1101648D01*
X1485544Y-1104036D01*
X1481429Y-1104900D01*
X1476552Y-1104849D01*
X1472641Y-1104392D01*
X1359458Y-1104392D01*
X1354378Y-1104900D01*
G37*

%LPC*%
G36*
X1357274Y-1025194D02*
G01*
X1476146Y-1025194D01*
X1482445Y-1024483D01*
X1487932Y-1022603D01*
X1492808Y-1019505D01*
X1496923Y-1015441D01*
X1500022Y-1010513D01*
X1501902Y-1005078D01*
X1502613Y-998728D01*
X1502613Y-944880D01*
X1501902Y-938580D01*
X1500022Y-933094D01*
X1496923Y-928217D01*
X1492808Y-924102D01*
X1487932Y-921003D01*
X1482445Y-919124D01*
X1476146Y-918413D01*
X1357274Y-918413D01*
X1350975Y-919124D01*
X1345488Y-921003D01*
X1340612Y-924102D01*
X1336497Y-928217D01*
X1333449Y-933094D01*
X1331518Y-938580D01*
X1330807Y-944880D01*
X1330807Y-998728D01*
X1331518Y-1005078D01*
X1333449Y-1010513D01*
X1336497Y-1015441D01*
X1340612Y-1019505D01*
X1345488Y-1022603D01*
X1350975Y-1024483D01*
G37*

%LPD*%
G36*
X1509268Y-1229817D02*
G01*
X1505356Y-1229004D01*
X1502105Y-1226820D01*
X1499870Y-1223518D01*
X1499108Y-1219657D01*
X1499108Y-1204772D01*
X1499666Y-1201420D01*
X1501902Y-1195070D01*
X1502613Y-1188720D01*
X1502613Y-1134668D01*
X1502257Y-1130096D01*
X1502816Y-1126032D01*
X1504950Y-1122476D01*
X1591716Y-1028496D01*
X1595069Y-1026058D01*
X1599184Y-1025194D01*
X1716125Y-1025194D01*
X1722424Y-1024483D01*
X1728571Y-1022350D01*
X1732381Y-1021791D01*
X1736140Y-1022705D01*
X1739290Y-1024940D01*
X1741373Y-1028141D01*
X1742084Y-1031951D01*
X1742084Y-1101648D01*
X1741373Y-1105458D01*
X1739290Y-1108659D01*
X1736140Y-1110894D01*
X1732381Y-1111808D01*
X1728571Y-1111250D01*
X1722424Y-1109116D01*
X1716125Y-1108405D01*
X1597253Y-1108405D01*
X1590954Y-1109116D01*
X1585468Y-1110996D01*
X1580591Y-1114094D01*
X1576476Y-1118209D01*
X1573428Y-1123086D01*
X1571498Y-1128572D01*
X1570786Y-1134872D01*
X1570786Y-1184605D01*
X1570024Y-1188516D01*
X1567789Y-1191818D01*
X1532788Y-1226820D01*
X1529537Y-1229004D01*
X1525625Y-1229817D01*
G37*

%LPD*%
G36*
X1663649Y-1397152D02*
G01*
X1658569Y-1396847D01*
X1654911Y-1394714D01*
X1652371Y-1391310D01*
X1651507Y-1387144D01*
X1651507Y-1346758D01*
X1650796Y-1340459D01*
X1648866Y-1334973D01*
X1645818Y-1330096D01*
X1641703Y-1325981D01*
X1636826Y-1322933D01*
X1631340Y-1321003D01*
X1625041Y-1320292D01*
X1603248Y-1320292D01*
X1599133Y-1319428D01*
X1595678Y-1316939D01*
X1593596Y-1313332D01*
X1593138Y-1309116D01*
X1593138Y-1272286D01*
X1593900Y-1268374D01*
X1596085Y-1265072D01*
X1643024Y-1218184D01*
X1646275Y-1215999D01*
X1650187Y-1215186D01*
X1716125Y-1215186D01*
X1722424Y-1214475D01*
X1728571Y-1212342D01*
X1732381Y-1211783D01*
X1736140Y-1212697D01*
X1739290Y-1214932D01*
X1741373Y-1218184D01*
X1742084Y-1221943D01*
X1742084Y-1372616D01*
X1741322Y-1376476D01*
X1739138Y-1379778D01*
X1724710Y-1394155D01*
X1721459Y-1396390D01*
X1717548Y-1397152D01*
G37*

%LPD*%
G36*
X1407160Y-1473200D02*
G01*
X1403248Y-1472438D01*
X1399997Y-1470202D01*
X1397762Y-1466951D01*
X1397000Y-1463040D01*
X1397000Y-1410716D01*
X1395984Y-1409700D01*
X1267460Y-1409700D01*
X1263548Y-1408938D01*
X1260297Y-1406702D01*
X1258062Y-1403451D01*
X1257300Y-1399540D01*
X1257300Y-1313180D01*
X1257757Y-1310081D01*
X1259179Y-1307287D01*
X1261364Y-1305052D01*
X1357782Y-1232712D01*
X1358900Y-1230884D01*
X1358900Y-1140460D01*
X1359662Y-1136548D01*
X1361897Y-1133297D01*
X1365148Y-1131062D01*
X1369060Y-1130300D01*
X1463040Y-1130300D01*
X1466951Y-1131062D01*
X1470202Y-1133297D01*
X1472438Y-1136548D01*
X1473200Y-1140460D01*
X1473200Y-1230172D01*
X1472438Y-1234084D01*
X1470202Y-1237335D01*
X1468018Y-1239570D01*
X1464919Y-1244498D01*
X1462989Y-1249934D01*
X1462278Y-1256284D01*
X1462278Y-1309116D01*
X1462989Y-1315466D01*
X1464919Y-1320901D01*
X1468018Y-1325829D01*
X1472031Y-1329842D01*
X1477568Y-1333195D01*
X1482445Y-1334871D01*
X1488795Y-1335633D01*
X1496517Y-1335633D01*
X1500378Y-1336395D01*
X1503680Y-1338580D01*
X1510588Y-1345488D01*
X1512316Y-1346200D01*
X1615440Y-1346200D01*
X1619351Y-1346962D01*
X1622602Y-1349197D01*
X1624838Y-1352448D01*
X1625600Y-1356360D01*
X1625600Y-1463040D01*
X1624838Y-1466951D01*
X1622602Y-1470202D01*
X1619351Y-1472438D01*
X1615440Y-1473200D01*
G37*

%LPD*%
G36*
X746556Y-1786382D02*
G01*
X742492Y-1785569D01*
X739140Y-1783130D01*
X736955Y-1779574D01*
X734872Y-1773529D01*
X731774Y-1768602D01*
X727659Y-1764538D01*
X722782Y-1761439D01*
X721360Y-1760982D01*
X717753Y-1758746D01*
X715365Y-1755292D01*
X714552Y-1751177D01*
X715518Y-1747062D01*
X718058Y-1743710D01*
X720496Y-1741576D01*
X725881Y-1734718D01*
X729894Y-1726996D01*
X732332Y-1718614D01*
X733196Y-1709928D01*
X732332Y-1701241D01*
X729894Y-1692859D01*
X725881Y-1685137D01*
X722985Y-1681429D01*
X721055Y-1677365D01*
X721055Y-1672894D01*
X722985Y-1668830D01*
X725881Y-1665122D01*
X729894Y-1657400D01*
X732332Y-1649018D01*
X733196Y-1640332D01*
X732332Y-1631645D01*
X729894Y-1623263D01*
X725881Y-1615541D01*
X720496Y-1608683D01*
X713943Y-1602994D01*
X706374Y-1598625D01*
X698144Y-1595780D01*
X689508Y-1594510D01*
X680821Y-1594916D01*
X672338Y-1596999D01*
X664413Y-1600606D01*
X657301Y-1605686D01*
X651256Y-1611985D01*
X646582Y-1619300D01*
X643331Y-1627428D01*
X642467Y-1631950D01*
X641451Y-1634794D01*
X638505Y-1638350D01*
X635203Y-1640586D01*
X631342Y-1641348D01*
X625144Y-1641348D01*
X621233Y-1640586D01*
X617931Y-1638350D01*
X615746Y-1635048D01*
X614984Y-1631188D01*
X614984Y-1612798D01*
X614273Y-1606499D01*
X613359Y-1602232D01*
X614273Y-1597964D01*
X614984Y-1591665D01*
X614984Y-1562811D01*
X614273Y-1556461D01*
X613359Y-1552244D01*
X614273Y-1547977D01*
X614984Y-1541678D01*
X614984Y-1512824D01*
X614222Y-1506118D01*
X614476Y-1502511D01*
X615950Y-1499209D01*
X618540Y-1496618D01*
X621842Y-1495145D01*
X625449Y-1494891D01*
X632155Y-1495653D01*
X661009Y-1495653D01*
X667308Y-1494942D01*
X671576Y-1494028D01*
X675792Y-1494942D01*
X682142Y-1495653D01*
X710996Y-1495653D01*
X717296Y-1494942D01*
X721563Y-1494028D01*
X725830Y-1494942D01*
X732129Y-1495653D01*
X751890Y-1495653D01*
X756005Y-1496517D01*
X759409Y-1499006D01*
X761542Y-1502664D01*
X763828Y-1509674D01*
X767638Y-1516278D01*
X771448Y-1520748D01*
X777849Y-1527098D01*
X779627Y-1529537D01*
X780643Y-1532382D01*
X781507Y-1536903D01*
X784758Y-1545031D01*
X789432Y-1552346D01*
X795477Y-1558645D01*
X802589Y-1563725D01*
X810514Y-1567332D01*
X818997Y-1569415D01*
X827684Y-1569821D01*
X836320Y-1568551D01*
X844550Y-1565706D01*
X852119Y-1561338D01*
X858672Y-1555648D01*
X860298Y-1553616D01*
X863650Y-1550873D01*
X867816Y-1549755D01*
X872134Y-1550517D01*
X875690Y-1553006D01*
X877925Y-1556715D01*
X878382Y-1561033D01*
X878179Y-1562811D01*
X878179Y-1591665D01*
X878890Y-1597964D01*
X879754Y-1602232D01*
X878890Y-1606499D01*
X878179Y-1612798D01*
X878179Y-1641652D01*
X878890Y-1648002D01*
X879754Y-1652219D01*
X878890Y-1656486D01*
X878179Y-1662785D01*
X878179Y-1691639D01*
X878890Y-1697989D01*
X879754Y-1702257D01*
X878890Y-1706473D01*
X878179Y-1712823D01*
X878179Y-1741678D01*
X878890Y-1748332D01*
X878687Y-1751990D01*
X877163Y-1755292D01*
X874623Y-1757832D01*
X871321Y-1759356D01*
X867664Y-1759559D01*
X861009Y-1758848D01*
X832154Y-1758848D01*
X825804Y-1759559D01*
X821588Y-1760423D01*
X817321Y-1759559D01*
X810971Y-1758848D01*
X782116Y-1758848D01*
X775817Y-1759559D01*
X770331Y-1761439D01*
X765454Y-1764538D01*
X761339Y-1768602D01*
X758291Y-1773529D01*
X756158Y-1779574D01*
X754024Y-1783130D01*
X750620Y-1785569D01*
G37*

%LPD*%
G36*
X201168Y-1898751D02*
G01*
X197256Y-1897989D01*
X194005Y-1895805D01*
X159969Y-1861769D01*
X157784Y-1858467D01*
X156972Y-1854606D01*
X156972Y-1805330D01*
X157784Y-1801418D01*
X159969Y-1798116D01*
X163271Y-1795932D01*
X167132Y-1795170D01*
X196697Y-1795170D01*
X203047Y-1794408D01*
X208483Y-1792528D01*
X213410Y-1789430D01*
X217474Y-1785366D01*
X220573Y-1780438D01*
X222504Y-1775002D01*
X223215Y-1768652D01*
X223215Y-1739493D01*
X224078Y-1735328D01*
X226567Y-1731924D01*
X230276Y-1729790D01*
X234492Y-1729384D01*
X237845Y-1729790D01*
X376428Y-1729790D01*
X381254Y-1730857D01*
X383844Y-1732280D01*
X385927Y-1734312D01*
X406552Y-1761845D01*
X408076Y-1764741D01*
X408584Y-1767941D01*
X408584Y-1790192D01*
X409448Y-1798167D01*
X411734Y-1805279D01*
X415543Y-1811883D01*
X419404Y-1816354D01*
X461111Y-1858111D01*
X463296Y-1861362D01*
X464058Y-1865274D01*
X463296Y-1869135D01*
X461111Y-1872437D01*
X457809Y-1874672D01*
X453898Y-1875434D01*
X440435Y-1875434D01*
X436372Y-1874570D01*
X433019Y-1872183D01*
X430530Y-1867611D01*
X427431Y-1862734D01*
X423367Y-1858619D01*
X418439Y-1855571D01*
X413004Y-1853641D01*
X406654Y-1852930D01*
X237794Y-1852930D01*
X231495Y-1853641D01*
X226009Y-1855571D01*
X221132Y-1858619D01*
X217017Y-1862734D01*
X213969Y-1867611D01*
X212039Y-1873097D01*
X211328Y-1879396D01*
X211328Y-1888591D01*
X210566Y-1892503D01*
X208330Y-1895805D01*
X205079Y-1897989D01*
G37*

%LPD*%
G36*
X1189126Y-1957984D02*
G01*
X1184960Y-1957120D01*
X1181557Y-1954580D01*
X1179423Y-1950923D01*
X1179017Y-1946706D01*
X1179322Y-1944116D01*
X1179322Y-1891284D01*
X1178610Y-1884934D01*
X1176680Y-1879498D01*
X1173581Y-1874570D01*
X1169517Y-1870506D01*
X1167638Y-1869338D01*
X1164894Y-1866798D01*
X1163269Y-1863445D01*
X1162913Y-1859737D01*
X1163472Y-1854200D01*
X1162608Y-1845513D01*
X1160170Y-1837131D01*
X1156157Y-1829409D01*
X1150772Y-1822551D01*
X1144219Y-1816862D01*
X1136650Y-1812493D01*
X1128420Y-1809648D01*
X1119784Y-1808378D01*
X1111097Y-1808784D01*
X1101953Y-1811020D01*
X1098092Y-1811223D01*
X1094486Y-1809953D01*
X1091590Y-1807413D01*
X1089812Y-1804009D01*
X1088796Y-1800555D01*
X1084478Y-1792173D01*
X1083462Y-1789125D01*
X1083462Y-1785924D01*
X1084478Y-1782876D01*
X1088796Y-1774494D01*
X1091234Y-1766112D01*
X1092098Y-1757425D01*
X1091234Y-1748739D01*
X1088796Y-1740357D01*
X1084783Y-1732635D01*
X1083462Y-1730908D01*
X1081532Y-1726844D01*
X1081532Y-1722374D01*
X1083462Y-1718360D01*
X1084529Y-1716938D01*
X1088542Y-1709216D01*
X1090980Y-1700834D01*
X1091844Y-1692148D01*
X1090980Y-1683461D01*
X1088542Y-1675079D01*
X1084529Y-1667357D01*
X1083411Y-1665935D01*
X1081481Y-1661871D01*
X1081481Y-1657400D01*
X1083411Y-1653336D01*
X1084529Y-1651914D01*
X1088542Y-1644192D01*
X1090980Y-1635810D01*
X1091844Y-1627124D01*
X1090980Y-1618437D01*
X1088542Y-1610055D01*
X1081836Y-1597253D01*
X1081836Y-1592783D01*
X1083767Y-1588770D01*
X1084783Y-1587398D01*
X1088796Y-1579676D01*
X1091234Y-1571294D01*
X1092098Y-1562608D01*
X1091234Y-1553921D01*
X1088796Y-1545539D01*
X1084783Y-1537817D01*
X1083868Y-1536598D01*
X1081938Y-1532534D01*
X1081938Y-1528064D01*
X1088542Y-1515414D01*
X1090980Y-1507032D01*
X1091844Y-1498346D01*
X1090980Y-1489659D01*
X1088542Y-1481277D01*
X1084427Y-1473301D01*
X1083411Y-1470253D01*
X1083411Y-1467002D01*
X1084427Y-1463954D01*
X1088542Y-1455978D01*
X1090980Y-1447596D01*
X1091844Y-1438910D01*
X1090980Y-1430223D01*
X1088542Y-1421841D01*
X1084529Y-1414119D01*
X1079144Y-1407261D01*
X1072591Y-1401572D01*
X1070864Y-1400556D01*
X1068070Y-1398168D01*
X1066292Y-1394917D01*
X1065834Y-1391259D01*
X1066698Y-1387652D01*
X1068781Y-1384604D01*
X1182116Y-1271219D01*
X1187196Y-1264970D01*
X1190599Y-1258316D01*
X1192580Y-1250950D01*
X1193038Y-1245057D01*
X1193038Y-1209954D01*
X1194104Y-1205433D01*
X1197203Y-1199184D01*
X1199388Y-1191564D01*
X1200150Y-1183182D01*
X1200150Y-1045260D01*
X1199388Y-1036878D01*
X1197203Y-1029258D01*
X1193698Y-1022146D01*
X1188872Y-1015796D01*
X1183030Y-1010462D01*
X1176274Y-1006297D01*
X1168857Y-1003401D01*
X1161084Y-1001979D01*
X1153160Y-1001979D01*
X1145336Y-1003401D01*
X1137970Y-1006246D01*
X1130046Y-1011275D01*
X1126490Y-1012698D01*
X1122730Y-1012698D01*
X1119174Y-1011275D01*
X1111250Y-1006246D01*
X1103884Y-1003401D01*
X1096060Y-1001979D01*
X1088136Y-1001979D01*
X1080312Y-1003401D01*
X1072997Y-1006246D01*
X1065022Y-1011275D01*
X1061516Y-1012698D01*
X1057706Y-1012698D01*
X1054150Y-1011275D01*
X1046226Y-1006246D01*
X1038860Y-1003401D01*
X1031087Y-1001979D01*
X1023162Y-1001979D01*
X1015339Y-1003401D01*
X1007922Y-1006297D01*
X1004824Y-1008227D01*
X1000912Y-1009650D01*
X996746Y-1009345D01*
X993038Y-1007414D01*
X990447Y-1004163D01*
X988009Y-999439D01*
X983589Y-994003D01*
X974140Y-984503D01*
X970229Y-981202D01*
X964539Y-977900D01*
X958392Y-975918D01*
X951484Y-975207D01*
X843940Y-975207D01*
X838860Y-975563D01*
X832459Y-977290D01*
X826719Y-980236D01*
X821283Y-984605D01*
X810615Y-995273D01*
X806246Y-1000709D01*
X803300Y-1006449D01*
X801624Y-1012698D01*
X799998Y-1016101D01*
X795578Y-1022096D01*
X791972Y-1029258D01*
X789838Y-1036878D01*
X789025Y-1045260D01*
X789025Y-1183182D01*
X789838Y-1191564D01*
X791972Y-1199184D01*
X795528Y-1206296D01*
X800303Y-1212596D01*
X806196Y-1217980D01*
X812952Y-1222146D01*
X820318Y-1224991D01*
X828141Y-1226464D01*
X836066Y-1226464D01*
X838149Y-1226108D01*
X842416Y-1226210D01*
X846226Y-1228039D01*
X848969Y-1231341D01*
X850137Y-1235456D01*
X849477Y-1239672D01*
X847191Y-1243279D01*
X841552Y-1248918D01*
X838250Y-1251102D01*
X834339Y-1251864D01*
X618185Y-1251864D01*
X614273Y-1251102D01*
X610971Y-1248918D01*
X608787Y-1245616D01*
X608025Y-1241704D01*
X608025Y-1210005D01*
X609092Y-1205484D01*
X612241Y-1199184D01*
X614375Y-1191564D01*
X615188Y-1183182D01*
X615188Y-1045260D01*
X614375Y-1036878D01*
X612241Y-1029258D01*
X608685Y-1022146D01*
X603910Y-1015796D01*
X598017Y-1010462D01*
X591261Y-1006297D01*
X583895Y-1003401D01*
X576072Y-1001979D01*
X568147Y-1001979D01*
X560324Y-1003401D01*
X552958Y-1006246D01*
X545033Y-1011275D01*
X541528Y-1012698D01*
X537718Y-1012698D01*
X534162Y-1011275D01*
X526237Y-1006246D01*
X518871Y-1003401D01*
X511098Y-1001979D01*
X503123Y-1001979D01*
X495350Y-1003401D01*
X487984Y-1006246D01*
X480059Y-1011275D01*
X476504Y-1012698D01*
X472693Y-1012698D01*
X469188Y-1011275D01*
X461213Y-1006246D01*
X453898Y-1003401D01*
X446074Y-1001979D01*
X438150Y-1001979D01*
X430326Y-1003401D01*
X422960Y-1006246D01*
X415035Y-1011275D01*
X411530Y-1012698D01*
X407720Y-1012698D01*
X404164Y-1011275D01*
X396240Y-1006246D01*
X388874Y-1003401D01*
X381050Y-1001979D01*
X373126Y-1001979D01*
X365353Y-1003401D01*
X357936Y-1006297D01*
X351180Y-1010462D01*
X345338Y-1015796D01*
X340512Y-1022146D01*
X337007Y-1029258D01*
X334822Y-1036878D01*
X334060Y-1045260D01*
X334060Y-1183182D01*
X334822Y-1191564D01*
X337007Y-1199184D01*
X339598Y-1204417D01*
X340664Y-1208379D01*
X340055Y-1212443D01*
X337870Y-1215898D01*
X334518Y-1218285D01*
X330504Y-1219098D01*
X303834Y-1219098D01*
X297484Y-1219809D01*
X292049Y-1221740D01*
X287121Y-1224788D01*
X283057Y-1228902D01*
X279958Y-1233779D01*
X278079Y-1239266D01*
X277368Y-1245565D01*
X277368Y-1323441D01*
X278079Y-1329791D01*
X279958Y-1335227D01*
X283057Y-1340104D01*
X287121Y-1344218D01*
X292049Y-1347317D01*
X297484Y-1349197D01*
X303834Y-1349908D01*
X357022Y-1349908D01*
X361696Y-1350416D01*
X364998Y-1352346D01*
X367334Y-1355293D01*
X368452Y-1358900D01*
X368147Y-1362710D01*
X365912Y-1371092D01*
X365404Y-1377086D01*
X365404Y-1543812D01*
X366268Y-1551787D01*
X368554Y-1558899D01*
X372364Y-1565503D01*
X376224Y-1569974D01*
X401828Y-1595628D01*
X404012Y-1598930D01*
X404825Y-1602790D01*
X404012Y-1606702D01*
X401828Y-1609953D01*
X398526Y-1612188D01*
X394665Y-1612950D01*
X237845Y-1612950D01*
X231495Y-1613662D01*
X226060Y-1615592D01*
X221030Y-1618742D01*
X217017Y-1620215D01*
X212750Y-1619859D01*
X208991Y-1617827D01*
X202133Y-1611884D01*
X194564Y-1607515D01*
X186334Y-1604670D01*
X177698Y-1603400D01*
X169011Y-1603806D01*
X160528Y-1605889D01*
X152603Y-1609496D01*
X145491Y-1614576D01*
X139446Y-1620875D01*
X134772Y-1628190D01*
X131521Y-1636318D01*
X129844Y-1644853D01*
X129844Y-1653184D01*
X129082Y-1657045D01*
X126898Y-1660347D01*
X123596Y-1662531D01*
X119684Y-1663344D01*
X45466Y-1663344D01*
X41300Y-1663801D01*
X37084Y-1663395D01*
X33375Y-1661261D01*
X30886Y-1657857D01*
X30022Y-1653692D01*
X30022Y-1282598D01*
X30733Y-1278737D01*
X32918Y-1275486D01*
X36169Y-1273251D01*
X40030Y-1272438D01*
X56286Y-1276197D01*
X67970Y-1277061D01*
X156108Y-1277061D01*
X167792Y-1276197D01*
X178866Y-1273657D01*
X189433Y-1269542D01*
X199237Y-1263853D01*
X208127Y-1256792D01*
X215849Y-1248460D01*
X222199Y-1239113D01*
X227126Y-1228902D01*
X230479Y-1218031D01*
X232156Y-1206855D01*
X232156Y-1195476D01*
X230479Y-1184300D01*
X227126Y-1173429D01*
X222199Y-1163218D01*
X215849Y-1153871D01*
X207111Y-1144625D01*
X205079Y-1141425D01*
X204368Y-1137666D01*
X205079Y-1133906D01*
X207111Y-1130706D01*
X215849Y-1121460D01*
X222199Y-1112113D01*
X227126Y-1101902D01*
X230479Y-1091031D01*
X232156Y-1079855D01*
X232156Y-1068476D01*
X230479Y-1057300D01*
X227126Y-1046429D01*
X222199Y-1036218D01*
X215849Y-1026871D01*
X208127Y-1018540D01*
X199237Y-1011478D01*
X189433Y-1005789D01*
X178866Y-1001674D01*
X167792Y-999134D01*
X156108Y-998270D01*
X67970Y-998270D01*
X56286Y-999134D01*
X40030Y-1002893D01*
X36169Y-1002080D01*
X32918Y-999845D01*
X30733Y-996594D01*
X30022Y-992733D01*
X30022Y-901598D01*
X30733Y-897737D01*
X32918Y-894486D01*
X36169Y-892251D01*
X40030Y-891438D01*
X56286Y-895197D01*
X67970Y-896061D01*
X156108Y-896061D01*
X167792Y-895197D01*
X178866Y-892657D01*
X189433Y-888542D01*
X199237Y-882853D01*
X208127Y-875792D01*
X215849Y-867460D01*
X222199Y-858113D01*
X227126Y-847902D01*
X230479Y-837031D01*
X232156Y-825855D01*
X232156Y-814476D01*
X230479Y-803300D01*
X227126Y-792429D01*
X222199Y-782218D01*
X215849Y-772871D01*
X207111Y-763625D01*
X205079Y-760425D01*
X204368Y-756666D01*
X205079Y-752906D01*
X207111Y-749706D01*
X215849Y-740460D01*
X222199Y-731113D01*
X227126Y-720902D01*
X230479Y-710031D01*
X232156Y-698855D01*
X232156Y-687476D01*
X230479Y-676300D01*
X227126Y-665429D01*
X222199Y-655218D01*
X215849Y-645871D01*
X207111Y-636625D01*
X205079Y-633425D01*
X204368Y-629666D01*
X205079Y-625906D01*
X207111Y-622706D01*
X215849Y-613460D01*
X222199Y-604113D01*
X227126Y-593902D01*
X230479Y-583031D01*
X232156Y-571855D01*
X232156Y-560476D01*
X230479Y-549300D01*
X227126Y-538429D01*
X222199Y-528218D01*
X215849Y-518871D01*
X208127Y-510540D01*
X199237Y-503478D01*
X189433Y-497789D01*
X178866Y-493674D01*
X167792Y-491134D01*
X156108Y-490270D01*
X67970Y-490270D01*
X56286Y-491134D01*
X40030Y-494893D01*
X36169Y-494080D01*
X32918Y-491845D01*
X30733Y-488594D01*
X30022Y-484733D01*
X30022Y-181559D01*
X30632Y-178104D01*
X32359Y-175056D01*
X35052Y-172770D01*
X57810Y-166116D01*
X74574Y-159308D01*
X90525Y-150774D01*
X105562Y-140665D01*
X119481Y-129082D01*
X132130Y-116128D01*
X143357Y-101904D01*
X153060Y-86614D01*
X161188Y-70459D01*
X167538Y-53492D01*
X171754Y-37592D01*
X173786Y-33629D01*
X177292Y-30937D01*
X181559Y-30022D01*
X486308Y-30022D01*
X490220Y-30784D01*
X493522Y-32969D01*
X495706Y-36271D01*
X496468Y-40182D01*
X496468Y-77470D01*
X495604Y-81635D01*
X493115Y-85039D01*
X489458Y-87172D01*
X485241Y-87579D01*
X481482Y-87172D01*
X267106Y-89662D01*
X262331Y-90119D01*
X256692Y-91846D01*
X251663Y-94742D01*
X246989Y-99060D01*
X212445Y-139039D01*
X209346Y-141427D01*
X194868Y-145186D01*
X185928Y-149301D01*
X177901Y-154940D01*
X170942Y-161899D01*
X165303Y-169926D01*
X161188Y-178866D01*
X158648Y-188315D01*
X157734Y-199339D01*
X156972Y-202438D01*
X155295Y-205130D01*
X149860Y-211480D01*
X146608Y-216712D01*
X144729Y-222148D01*
X144018Y-228498D01*
X144627Y-409244D01*
X145897Y-415239D01*
X148285Y-420471D01*
X151790Y-425094D01*
X156210Y-428751D01*
X162661Y-431901D01*
X277723Y-474675D01*
X284124Y-476250D01*
X287731Y-476504D01*
X497281Y-475437D01*
X501192Y-476199D01*
X504494Y-478383D01*
X506730Y-481685D01*
X507492Y-485597D01*
X507492Y-635203D01*
X508203Y-641400D01*
X510082Y-646734D01*
X513181Y-651611D01*
X514959Y-653643D01*
X520954Y-658571D01*
X525830Y-660908D01*
X531520Y-662228D01*
X534670Y-662381D01*
X603910Y-662381D01*
X610209Y-661670D01*
X615696Y-659790D01*
X620572Y-656691D01*
X624687Y-652576D01*
X629716Y-644144D01*
X632663Y-641807D01*
X636270Y-640689D01*
X640080Y-640994D01*
X643483Y-642620D01*
X646023Y-645363D01*
X649325Y-650595D01*
X653389Y-654710D01*
X658317Y-657758D01*
X663752Y-659688D01*
X670102Y-660400D01*
X724001Y-660400D01*
X732231Y-659485D01*
X799033Y-659384D01*
X805383Y-658672D01*
X810818Y-656742D01*
X815695Y-653694D01*
X819810Y-649579D01*
X822909Y-644702D01*
X824788Y-639216D01*
X825500Y-632917D01*
X825500Y-459282D01*
X826312Y-455371D01*
X828497Y-452069D01*
X858977Y-421589D01*
X862279Y-419404D01*
X866140Y-418642D01*
X870051Y-419404D01*
X873353Y-421589D01*
X905814Y-454101D01*
X908050Y-457403D01*
X908812Y-461264D01*
X908812Y-631901D01*
X909523Y-638200D01*
X911453Y-643686D01*
X914501Y-648563D01*
X918616Y-652678D01*
X923493Y-655726D01*
X928979Y-657656D01*
X935278Y-658368D01*
X993190Y-658368D01*
X999490Y-657656D01*
X1004976Y-655777D01*
X1009802Y-653694D01*
X1013815Y-653846D01*
X1020673Y-655523D01*
X1029360Y-655929D01*
X1037996Y-654659D01*
X1046226Y-651814D01*
X1053795Y-647446D01*
X1055065Y-646328D01*
X1058824Y-644296D01*
X1063091Y-643940D01*
X1067104Y-645363D01*
X1072946Y-649020D01*
X1080312Y-651865D01*
X1088136Y-653338D01*
X1096060Y-653338D01*
X1103884Y-651865D01*
X1109726Y-649630D01*
X1113840Y-648919D01*
X1117904Y-649986D01*
X1121206Y-652576D01*
X1126642Y-659180D01*
X1283563Y-816000D01*
X1290218Y-821029D01*
X1297533Y-824687D01*
X1303121Y-826414D01*
X1307338Y-827024D01*
X1310538Y-828090D01*
X1313230Y-830173D01*
X1315110Y-833018D01*
X1316482Y-836117D01*
X1317345Y-840028D01*
X1316634Y-843991D01*
X1314450Y-847344D01*
X1311097Y-849579D01*
X1307185Y-850392D01*
X1295958Y-850392D01*
X1289659Y-851103D01*
X1284173Y-853033D01*
X1279296Y-856081D01*
X1275181Y-860196D01*
X1272133Y-865073D01*
X1270203Y-870559D01*
X1269492Y-876858D01*
X1269492Y-1104341D01*
X1270203Y-1110640D01*
X1272133Y-1116126D01*
X1275181Y-1121003D01*
X1279296Y-1125118D01*
X1284173Y-1128166D01*
X1289659Y-1130096D01*
X1295958Y-1130808D01*
X1320647Y-1130808D01*
X1324508Y-1131570D01*
X1327810Y-1133805D01*
X1330045Y-1137056D01*
X1330807Y-1140968D01*
X1330807Y-1188720D01*
X1331518Y-1195070D01*
X1332433Y-1197660D01*
X1332992Y-1201013D01*
X1332992Y-1213866D01*
X1332534Y-1216964D01*
X1331112Y-1219758D01*
X1328928Y-1221994D01*
X1251864Y-1279804D01*
X1249019Y-1281277D01*
X1242212Y-1283614D01*
X1237386Y-1286662D01*
X1233271Y-1290777D01*
X1230172Y-1295654D01*
X1228293Y-1301089D01*
X1227582Y-1307439D01*
X1227582Y-1406296D01*
X1228293Y-1412595D01*
X1230172Y-1418082D01*
X1233271Y-1422958D01*
X1237640Y-1427327D01*
X1240536Y-1429512D01*
X1246073Y-1432966D01*
X1251559Y-1434896D01*
X1257858Y-1435608D01*
X1360932Y-1435608D01*
X1364843Y-1436370D01*
X1368094Y-1438605D01*
X1370330Y-1441856D01*
X1371092Y-1445768D01*
X1371092Y-1472641D01*
X1371803Y-1478940D01*
X1373733Y-1484426D01*
X1376781Y-1489303D01*
X1380896Y-1493418D01*
X1385773Y-1496466D01*
X1391259Y-1498396D01*
X1397558Y-1499108D01*
X1625041Y-1499108D01*
X1630426Y-1499260D01*
X1633982Y-1501089D01*
X1636522Y-1504137D01*
X1637893Y-1509471D01*
X1640230Y-1516024D01*
X1640789Y-1519783D01*
X1639925Y-1523441D01*
X1637792Y-1526590D01*
X1634693Y-1528724D01*
X1630984Y-1529537D01*
X1620723Y-1528216D01*
X1401876Y-1528216D01*
X1395526Y-1528927D01*
X1390091Y-1530807D01*
X1385163Y-1533906D01*
X1381099Y-1537970D01*
X1378000Y-1542897D01*
X1376121Y-1548333D01*
X1375410Y-1554683D01*
X1375410Y-1673504D01*
X1376121Y-1679854D01*
X1378000Y-1685289D01*
X1381099Y-1690217D01*
X1385163Y-1694281D01*
X1390091Y-1697380D01*
X1395526Y-1699310D01*
X1401876Y-1700022D01*
X1485595Y-1700022D01*
X1489456Y-1700784D01*
X1492758Y-1702968D01*
X1494942Y-1706219D01*
X1495755Y-1710080D01*
X1496822Y-1879701D01*
X1496009Y-1883816D01*
X1493520Y-1887270D01*
X1489913Y-1889404D01*
X1485747Y-1889912D01*
X1436878Y-1889912D01*
X1430528Y-1890623D01*
X1425092Y-1892503D01*
X1420164Y-1895602D01*
X1416100Y-1899666D01*
X1413002Y-1904593D01*
X1411071Y-1910029D01*
X1410360Y-1916379D01*
X1410360Y-1947824D01*
X1409598Y-1951736D01*
X1407414Y-1955038D01*
X1404112Y-1957222D01*
X1400200Y-1957984D01*
G37*

%LPD*%
G36*
X1533702Y-1996592D02*
G01*
X1529791Y-1995830D01*
X1526489Y-1993646D01*
X1524254Y-1990394D01*
X1523441Y-1986483D01*
X1522018Y-1768449D01*
X1522222Y-1766316D01*
X1522222Y-1713484D01*
X1521663Y-1708048D01*
X1521460Y-1678686D01*
X1520799Y-1677009D01*
X1426362Y-1579321D01*
X1424228Y-1576019D01*
X1423517Y-1572158D01*
X1424330Y-1568297D01*
X1426514Y-1565046D01*
X1429816Y-1562862D01*
X1433677Y-1562100D01*
X1627022Y-1562100D01*
X1630933Y-1562862D01*
X1634236Y-1565097D01*
X1636420Y-1568348D01*
X1637182Y-1572260D01*
X1637182Y-1640687D01*
X1637893Y-1647037D01*
X1639824Y-1652473D01*
X1642872Y-1657400D01*
X1646986Y-1661464D01*
X1651863Y-1664563D01*
X1657350Y-1666493D01*
X1663649Y-1667205D01*
X1748942Y-1667205D01*
X1754022Y-1666595D01*
X1758238Y-1667002D01*
X1761896Y-1669135D01*
X1764436Y-1672539D01*
X1765300Y-1676704D01*
X1765300Y-1983841D01*
X1764538Y-1987702D01*
X1762353Y-1991004D01*
X1759102Y-1993188D01*
X1755241Y-1994001D01*
G37*

%LPD*%
G36*
X1801368Y-1999996D02*
G01*
X1797456Y-1999234D01*
X1794205Y-1996998D01*
X1791970Y-1993747D01*
X1791207Y-1989836D01*
X1791207Y-1628901D01*
X1791970Y-1625092D01*
X1794052Y-1621840D01*
X1797253Y-1619605D01*
X1801063Y-1618742D01*
X1804873Y-1619402D01*
X1808175Y-1621383D01*
X1810512Y-1624533D01*
X1814728Y-1633220D01*
X1821078Y-1642567D01*
X1828800Y-1650898D01*
X1837689Y-1657959D01*
X1847494Y-1663649D01*
X1858060Y-1667764D01*
X1869135Y-1670304D01*
X1880819Y-1671167D01*
X1968957Y-1671167D01*
X1980641Y-1670304D01*
X1987550Y-1668729D01*
X1991207Y-1668576D01*
X1994662Y-1669694D01*
X1997506Y-1671929D01*
X1999335Y-1675079D01*
X1999996Y-1678635D01*
X1999996Y-1852930D01*
X1998980Y-1857349D01*
X1996186Y-1860854D01*
X1992172Y-1862836D01*
X1984400Y-1864664D01*
X1967280Y-1870608D01*
X1950872Y-1878279D01*
X1935378Y-1887626D01*
X1920849Y-1898497D01*
X1907590Y-1910791D01*
X1895602Y-1924405D01*
X1885137Y-1939137D01*
X1876196Y-1954885D01*
X1868982Y-1971497D01*
X1863445Y-1988769D01*
X1862785Y-1991918D01*
X1861515Y-1995119D01*
X1859280Y-1997710D01*
X1856232Y-1999386D01*
X1852828Y-1999996D01*
G37*

%LPD*%
D10*
X796569Y-1434744D02*
G01*
X796569Y-1495069D01*
X825500Y-1524000D01*
D11*
X1293690Y-363473D02*
G01*
X1112265Y-363473D01*
X1027125Y-448614D01*
X1027125Y-541045D01*
X1365026Y-331784D02*
G01*
X1333337Y-363473D01*
X1293690Y-363473D01*
X1092123Y-541045D02*
G01*
X1092123Y-459562D01*
X1134871Y-416813D01*
X1341038Y-416813D01*
X1365026Y-440801D01*
X1157122Y-541045D02*
G01*
X1157122Y-628040D01*
X1313139Y-784057D01*
X1366042Y-784057D01*
X1366042Y-675040D02*
G01*
X1232047Y-541045D01*
X1222120Y-541045D01*
D10*
X330250Y-1284503D02*
G01*
X377113Y-1237640D01*
X377113Y-1114196D01*
X121081Y-1729226D02*
G01*
X175513Y-1674794D01*
X175513Y-1649221D01*
X572109Y-1114196D02*
G01*
X572109Y-1269390D01*
X436879Y-1404620D01*
X436879Y-1529079D01*
X485053Y-1577253D01*
X554070Y-1577253D01*
X554070Y-1727240D02*
G01*
X670011Y-1727240D01*
X687323Y-1709928D01*
X554070Y-1677253D02*
G01*
X650402Y-1677253D01*
X687323Y-1640331D01*
X559074Y-1777227D02*
G01*
X499607Y-1777227D01*
X483615Y-1761236D01*
X483615Y-1701545D01*
X465073Y-1683004D01*
X896589Y-1814718D02*
G01*
X929639Y-1847768D01*
X929639Y-1902460D01*
X846581Y-1819655D02*
G01*
X844804Y-1903729D01*
X796589Y-1819747D02*
G01*
X796589Y-1872188D01*
X766063Y-1902713D01*
X934079Y-1477228D02*
G01*
X972398Y-1438910D01*
X1045971Y-1438910D01*
X939058Y-1527241D02*
G01*
X1017076Y-1527241D01*
X1045971Y-1498345D01*
X939058Y-1577253D02*
G01*
X1031580Y-1577253D01*
X1046226Y-1562607D01*
X939037Y-1627123D02*
G01*
X1045971Y-1627123D01*
X939058Y-1677253D02*
G01*
X1031077Y-1677253D01*
X1045971Y-1692147D01*
X939058Y-1727240D02*
G01*
X1016040Y-1727240D01*
X1046226Y-1757426D01*
X934079Y-1777227D02*
G01*
X974476Y-1817623D01*
X1046226Y-1817623D01*
X646684Y-1434845D02*
G01*
X647700Y-1389379D01*
X660400Y-1376679D01*
X660400Y-1361439D01*
X665479Y-1356360D01*
X665479Y-1338579D01*
X596645Y-1439671D02*
G01*
X596900Y-1384300D01*
X604520Y-1376679D01*
X604520Y-1358900D01*
X553973Y-1627123D02*
G01*
X484123Y-1627123D01*
X401320Y-1544320D01*
X401320Y-1376679D01*
X442213Y-1336039D01*
X442213Y-1114297D01*
X559074Y-1477228D02*
G01*
X538947Y-1457101D01*
X538947Y-1419616D01*
X507237Y-1114297D02*
G01*
X508000Y-1231900D01*
X1113886Y-1917712D02*
G01*
X1117600Y-1913999D01*
X1117600Y-1854200D01*
X1527708Y-1282700D02*
G01*
X1649603Y-1160805D01*
X1657156Y-1160805D01*
X1706295Y-1463390D02*
G01*
X1778000Y-1391686D01*
X1778000Y-1003300D01*
X1745513Y-970813D01*
X1657156Y-970813D01*
X121081Y-1729226D02*
G01*
X121081Y-1873681D01*
X241300Y-1993900D01*
X1423207Y-1993900D01*
X1461312Y-1955794D01*
X1113886Y-1917712D02*
G01*
X1092187Y-1917712D01*
X1054100Y-1955800D01*
X711200Y-1955800D01*
X696589Y-1941189D01*
X696589Y-1819747D01*
X322326Y-1671320D02*
G01*
X322326Y-1671320D01*
X406400Y-1701800D01*
X444500Y-1752600D01*
X444500Y-1790700D01*
X508000Y-1854200D01*
X557021Y-1854200D01*
X596645Y-1814829D01*
X322254Y-1911339D02*
G01*
X635000Y-1911339D01*
X646577Y-1899762D01*
X646577Y-1819747D01*
D12*
X1706295Y-1463390D02*
G01*
X1706295Y-1600936D01*
D13*
X637108Y-541045D02*
G01*
X637108Y-665098D01*
X799617Y-827608D01*
D14*
X1092200Y-1114297D02*
G01*
X1092454Y-1234694D01*
X962152Y-1114297D02*
G01*
X962405Y-1231900D01*
D15*
X962126Y-1114196D02*
G01*
X962126Y-1016228D01*
X951992Y-1006094D01*
X843534Y-1006094D01*
X832104Y-1017523D01*
X832104Y-1114196D01*
D10*
X554070Y-1527215D02*
G01*
X503595Y-1527215D01*
X472439Y-1496060D01*
X472439Y-1419860D01*
X604520Y-1287779D01*
X853439Y-1287779D01*
X897128Y-1244092D01*
X897128Y-1114196D01*
X846556Y-1434744D02*
G01*
X846556Y-1385595D01*
X866394Y-1365757D01*
X1036828Y-1365757D01*
X1157122Y-1245463D01*
X1157122Y-1114196D01*
X746505Y-1434845D02*
G01*
X746505Y-1389634D01*
X814070Y-1324863D01*
X959104Y-1325371D01*
X1027684Y-1255521D01*
X1027176Y-1114297D01*
D16*
X1880428Y-325277D02*
G01*
X1969328Y-325277D01*
X1880428Y-452277D02*
G01*
X1969328Y-452277D01*
X1880428Y-579277D02*
G01*
X1969328Y-579277D01*
X1880428Y-706277D02*
G01*
X1969328Y-706277D01*
X1880428Y-833277D02*
G01*
X1969328Y-833277D01*
X1880428Y-960277D02*
G01*
X1969328Y-960277D01*
X1880428Y-1087277D02*
G01*
X1969328Y-1087277D01*
X1880428Y-1214277D02*
G01*
X1969328Y-1214277D01*
X1880428Y-1341277D02*
G01*
X1969328Y-1341277D01*
X1880428Y-1722277D02*
G01*
X1969328Y-1722277D01*
X1880428Y-1595277D02*
G01*
X1969328Y-1595277D01*
X1880428Y-1468277D02*
G01*
X1969328Y-1468277D01*
X156499Y-820171D02*
G01*
X67599Y-820171D01*
X156499Y-693171D02*
G01*
X67599Y-693171D01*
X156499Y-566171D02*
G01*
X67599Y-566171D01*
X156499Y-947171D02*
G01*
X67599Y-947171D01*
X156499Y-1074171D02*
G01*
X67599Y-1074171D01*
X156499Y-1201171D02*
G01*
X67599Y-1201171D01*
D17*
G01*
X431317Y-222122D03*
G01*
X431317Y-82118D03*
D18*
G01*
X1527705Y-1282700D03*
G01*
X1418694Y-1282700D03*
D19*
G01*
X1290980Y-1591386D03*
G01*
X1290980Y-1356868D03*
D20*
G01*
X1511300Y-1408480D03*
G01*
X1511300Y-1614119D03*
D21*
G01*
X1706295Y-1312729D03*
D22*
G01*
X1706295Y-1463370D03*
D21*
G01*
X1706295Y-1751597D03*
D22*
G01*
X1706295Y-1600936D03*
D23*
G01*
X1416710Y-1161795D03*
G01*
X1416710Y-971804D03*
G01*
X1656689Y-971804D03*
G01*
X1656689Y-1066800D03*
G01*
X1656689Y-1161795D03*
G01*
X1416710Y-1066800D03*
D18*
G01*
X1222905Y-1917700D03*
G01*
X1113894Y-1917700D03*
D24*
G01*
X1561312Y-1955800D03*
G01*
X1461312Y-1955800D03*
D25*
G01*
X121081Y-1729231D03*
G01*
X121081Y-1399133D03*
D26*
G01*
X1222120Y-541045D03*
G01*
X1157122Y-541045D03*
G01*
X1092123Y-541045D03*
G01*
X1027125Y-541045D03*
G01*
X962126Y-541045D03*
G01*
X897128Y-541045D03*
G01*
X832104Y-541045D03*
G01*
X767105Y-541045D03*
G01*
X702106Y-541045D03*
G01*
X637108Y-541045D03*
G01*
X572109Y-541045D03*
G01*
X507111Y-541045D03*
G01*
X442112Y-541045D03*
G01*
X377113Y-541045D03*
G01*
X1222120Y-1114196D03*
G01*
X1157122Y-1114196D03*
G01*
X1092123Y-1114196D03*
G01*
X1027125Y-1114196D03*
G01*
X962126Y-1114196D03*
G01*
X897128Y-1114196D03*
G01*
X832104Y-1114196D03*
G01*
X767105Y-1114196D03*
G01*
X702106Y-1114196D03*
G01*
X637108Y-1114196D03*
G01*
X572109Y-1114196D03*
G01*
X507111Y-1114196D03*
G01*
X442112Y-1114196D03*
G01*
X377113Y-1114196D03*
D27*
G01*
X799617Y-827608D03*
D28*
G01*
X646556Y-1819732D03*
G01*
X696569Y-1819732D03*
G01*
X746556Y-1819732D03*
G01*
X796569Y-1819732D03*
G01*
X846556Y-1819732D03*
D29*
G01*
X939063Y-1727225D03*
G01*
X939063Y-1677238D03*
G01*
X939063Y-1627225D03*
G01*
X939063Y-1577238D03*
G01*
X939063Y-1527225D03*
D28*
G01*
X846556Y-1434744D03*
G01*
X796569Y-1434744D03*
G01*
X746556Y-1434744D03*
G01*
X696569Y-1434744D03*
G01*
X646556Y-1434744D03*
D30*
G01*
X554065Y-1527237D03*
D29*
G01*
X554075Y-1577238D03*
G01*
X554075Y-1627225D03*
G01*
X554075Y-1677238D03*
G01*
X554075Y-1727225D03*
D31*
G01*
X940320Y-1477236D03*
D32*
G01*
X896566Y-1433485D03*
D33*
G01*
X552817Y-1477237D03*
D34*
G01*
X596567Y-1433482D03*
D35*
G01*
X596567Y-1820985D03*
D36*
G01*
X552813Y-1777235D03*
D37*
G01*
X940316Y-1777235D03*
D38*
G01*
X896566Y-1820989D03*
D39*
G01*
X322249Y-1911350D03*
D40*
G01*
X322249Y-1791360D03*
D39*
G01*
X322249Y-1671370D03*
D41*
G01*
X1556232Y-455345D03*
G01*
X1696237Y-455345D03*
D18*
G01*
X1565805Y-1739900D03*
G01*
X1456794Y-1739900D03*
D42*
G01*
X1365036Y-440799D03*
D43*
G01*
X1365046Y-331800D03*
D44*
G01*
X1553715Y-315239D03*
G01*
X1662727Y-315239D03*
D18*
G01*
X1565805Y-1841500D03*
G01*
X1456794Y-1841500D03*
D42*
G01*
X330250Y-1393522D03*
D43*
G01*
X330250Y-1284503D03*
D42*
G01*
X1366037Y-675048D03*
D43*
G01*
X1366037Y-784072D03*
D41*
G01*
X1552244Y-783589D03*
G01*
X1692224Y-783589D03*
G01*
X1554226Y-619480D03*
G01*
X1694230Y-619480D03*
G01*
X236118Y-368045D03*
G01*
X96113Y-368045D03*
D42*
G01*
X296224Y-190609D03*
D43*
G01*
X296214Y-81610D03*
D45*
G01*
X1880412Y-1722272D03*
G01*
X1880412Y-1595272D03*
G01*
X1880412Y-1468272D03*
G01*
X1880412Y-1341272D03*
G01*
X1880412Y-1214272D03*
G01*
X1880412Y-1087272D03*
G01*
X1880412Y-960272D03*
G01*
X1880412Y-833272D03*
G01*
X1880412Y-706272D03*
G01*
X1880412Y-579272D03*
G01*
X1880412Y-452272D03*
G01*
X1880412Y-325272D03*
D46*
G01*
X1969312Y-1722272D03*
G01*
X1969312Y-1595272D03*
G01*
X1969312Y-1468272D03*
G01*
X1969312Y-1087272D03*
G01*
X1969312Y-1214272D03*
G01*
X1969312Y-1341272D03*
G01*
X1969312Y-706272D03*
G01*
X1969312Y-833272D03*
G01*
X1969312Y-960272D03*
G01*
X1969312Y-325272D03*
G01*
X1969312Y-452272D03*
G01*
X1969312Y-579272D03*
D47*
G01*
X1145667Y-123088D03*
G01*
X891667Y-123088D03*
G01*
X637667Y-123088D03*
G01*
X1652244Y-123088D03*
G01*
X1398066Y-123088D03*
D46*
G01*
X67614Y-947191D03*
G01*
X67614Y-1074191D03*
G01*
X67614Y-1201191D03*
G01*
X67614Y-820191D03*
G01*
X67614Y-693191D03*
G01*
X67614Y-566191D03*
D45*
G01*
X156489Y-1201165D03*
G01*
X156489Y-1074165D03*
G01*
X156489Y-947165D03*
G01*
X156489Y-820165D03*
G01*
X156489Y-693165D03*
G01*
X156489Y-566165D03*
D48*
G01*
X214121Y-198120D03*
G01*
X215645Y-268223D03*
G01*
X1701800Y-1917700D03*
D49*
G01*
X1536700Y-1155700D03*
G01*
X1625600Y-1282700D03*
G01*
X190500Y-1841500D03*
G01*
X1117600Y-1854200D03*
G01*
X508000Y-1231900D03*
G01*
X538937Y-1419605D03*
G01*
X604520Y-1358900D03*
G01*
X665479Y-1338579D03*
G01*
X1045971Y-1438910D03*
G01*
X1045971Y-1498345D03*
G01*
X1046226Y-1562607D03*
G01*
X1045971Y-1627123D03*
G01*
X1045971Y-1692147D03*
G01*
X1046226Y-1757426D03*
G01*
X1046226Y-1817623D03*
G01*
X929639Y-1902460D03*
G01*
X844804Y-1903729D03*
G01*
X766063Y-1902713D03*
G01*
X465073Y-1683004D03*
G01*
X687323Y-1709928D03*
G01*
X687323Y-1640331D03*
G01*
X823213Y-1704847D03*
G01*
X666495Y-1546605D03*
G01*
X175513Y-1649221D03*
G01*
X54863Y-211328D03*
G01*
X53847Y-270763D03*
G01*
X1161034Y-1769363D03*
G01*
X1335023Y-1769363D03*
G01*
X1818386Y-1865884D03*
G01*
X1820926Y-1952244D03*
D48*
G01*
X1451863Y-522731D03*
G01*
X1450086Y-593597D03*
D49*
G01*
X1182370Y-1388871D03*
G01*
X483870Y-691642D03*
G01*
X1117345Y-690626D03*
G01*
X1115313Y-962913D03*
G01*
X481076Y-797560D03*
G01*
X1113536Y-830326D03*
G01*
X584200Y-723900D03*
G01*
X1016000Y-723900D03*
G01*
X584200Y-927100D03*
G01*
X1016000Y-927100D03*
G01*
X1092454Y-1234694D03*
G01*
X962279Y-1231900D03*
G01*
X1016000Y-825500D03*
G01*
X584200Y-825500D03*
G01*
X800100Y-723900D03*
G01*
X914400Y-825500D03*
G01*
X914400Y-927100D03*
G01*
X825500Y-1524000D03*
G01*
X702563Y-609854D03*
G01*
X767334Y-610107D03*
G01*
X962405Y-609854D03*
G01*
X572262Y-609345D03*
G01*
X1027176Y-610107D03*
G01*
X1293698Y-363473D03*
G01*
X213360Y-62484D03*
G01*
X450595Y-1862073D03*
M02*
