G04 Layer: InnerLayer1*
G04 EasyEDA v6.5.22, 2022-11-24 13:33:34*
G04 a569f08a9e4f4569b8c6db444d38c7d5,dbbd32702ee04327bcd14b3349a77860,10*
G04 Gerber Generator version 0.2*
G04 Scale: 100 percent, Rotated: No, Reflected: No *
G04 Dimensions in millimeters *
G04 leading zeros omitted , absolute positions ,4 integer and 5 decimal *
%FSLAX45Y45*%
%MOMM*%

%ADD10C,0.4040*%
%ADD11C,0.2000*%
%ADD12C,0.2020*%
%ADD13C,0.9000*%
%ADD14R,0.9000X0.9000*%
%ADD15R,1.5748X1.5748*%
%ADD16C,0.6096*%
%ADD17C,0.4000*%
%ADD18C,0.0105*%

%LPD*%
G36*
X978001Y-632612D02*
G01*
X944778Y-632561D01*
X940917Y-631799D01*
X937615Y-629615D01*
X935431Y-626313D01*
X934618Y-622401D01*
X934618Y-447446D01*
X933907Y-445770D01*
X887577Y-399440D01*
X885393Y-396138D01*
X884631Y-392226D01*
X885393Y-388366D01*
X887577Y-385064D01*
X900531Y-372110D01*
X903782Y-369874D01*
X908456Y-366166D01*
X1021029Y-253644D01*
X1024737Y-248513D01*
X1028700Y-238302D01*
X1028598Y-36068D01*
X1029411Y-32207D01*
X1031595Y-28905D01*
X1034897Y-26670D01*
X1038758Y-25908D01*
X1251610Y-25908D01*
X1255522Y-26670D01*
X1258824Y-28905D01*
X1261008Y-32207D01*
X1261770Y-36118D01*
X1260906Y-256133D01*
X1260094Y-259994D01*
X1257909Y-263296D01*
X1201775Y-319379D01*
X1198524Y-321614D01*
X1194612Y-322376D01*
X1112774Y-322376D01*
X1111046Y-323088D01*
X994359Y-439724D01*
X993648Y-441451D01*
X993648Y-584454D01*
X993343Y-586892D01*
X992479Y-589229D01*
X989634Y-594563D01*
X987298Y-602183D01*
X986536Y-610108D01*
X987298Y-618032D01*
X988161Y-623214D01*
X987145Y-626872D01*
X984910Y-629920D01*
X981710Y-631901D01*
G37*

%LPD*%
G36*
X755243Y-633323D02*
G01*
X751332Y-632561D01*
X748080Y-630377D01*
X745845Y-627126D01*
X745083Y-623214D01*
X743204Y-328777D01*
X743966Y-324866D01*
X746201Y-321564D01*
X768654Y-299008D01*
X771753Y-294589D01*
X773480Y-289966D01*
X774141Y-284480D01*
X774141Y-267766D01*
X774446Y-265379D01*
X775462Y-262077D01*
X775462Y-30683D01*
X776224Y-26771D01*
X778459Y-23469D01*
X781710Y-21285D01*
X785622Y-20523D01*
X996492Y-20523D01*
X1000353Y-21285D01*
X1003655Y-23469D01*
X1005840Y-26771D01*
X1006652Y-30683D01*
X1006652Y-234848D01*
X1005840Y-238709D01*
X1003655Y-242011D01*
X895959Y-349707D01*
X894029Y-351231D01*
X890828Y-352806D01*
X800201Y-443484D01*
X799490Y-445211D01*
X799490Y-623163D01*
X798728Y-627075D01*
X796493Y-630377D01*
X793191Y-632561D01*
X789330Y-633323D01*
G37*

%LPD*%
G36*
X679704Y-634339D02*
G01*
X675792Y-633577D01*
X672541Y-631393D01*
X670306Y-628142D01*
X669544Y-624230D01*
X668578Y-470204D01*
X667867Y-468528D01*
X525475Y-326085D01*
X523240Y-322783D01*
X522478Y-318922D01*
X522478Y-30683D01*
X523240Y-26771D01*
X525475Y-23469D01*
X528726Y-21285D01*
X532638Y-20523D01*
X743508Y-20523D01*
X747369Y-21285D01*
X750671Y-23469D01*
X752856Y-26771D01*
X753668Y-30683D01*
X753668Y-280873D01*
X752856Y-284784D01*
X750671Y-288036D01*
X723290Y-315417D01*
X722630Y-317093D01*
X724560Y-624128D01*
X723798Y-628040D01*
X721614Y-631342D01*
X718312Y-633577D01*
X714400Y-634339D01*
G37*

%LPD*%
G36*
X543814Y-636422D02*
G01*
X539902Y-635660D01*
X536600Y-633476D01*
X534416Y-630174D01*
X533654Y-626262D01*
X533654Y-447293D01*
X529386Y-448868D01*
X526440Y-449326D01*
X287680Y-450596D01*
X284429Y-450088D01*
X177901Y-414782D01*
X174244Y-412699D01*
X171805Y-409295D01*
X170891Y-405180D01*
X170180Y-231597D01*
X170789Y-228041D01*
X172669Y-224891D01*
X264210Y-118973D01*
X267614Y-116382D01*
X271780Y-115468D01*
X472338Y-113131D01*
X476250Y-113893D01*
X479602Y-116078D01*
X481838Y-119380D01*
X482600Y-123291D01*
X482600Y-255981D01*
X481838Y-259892D01*
X479602Y-263194D01*
X476351Y-265379D01*
X472440Y-266141D01*
X298450Y-266141D01*
X297484Y-267157D01*
X297484Y-303174D01*
X298551Y-305003D01*
X299466Y-305155D01*
X486409Y-305155D01*
X490321Y-305968D01*
X493572Y-308152D01*
X495808Y-311454D01*
X496570Y-315315D01*
X496570Y-322834D01*
X497230Y-328879D01*
X499160Y-334365D01*
X502259Y-339242D01*
X504342Y-341630D01*
X601726Y-439013D01*
X603910Y-442264D01*
X604672Y-446176D01*
X604672Y-626262D01*
X603910Y-630174D01*
X601726Y-633476D01*
X598424Y-635660D01*
X594512Y-636422D01*
G37*

%LPD*%
G36*
X1804466Y-1069543D02*
G01*
X1800606Y-1068781D01*
X1797304Y-1066546D01*
X1795119Y-1063244D01*
X1794357Y-1059332D01*
X1794764Y-981862D01*
X1795475Y-978153D01*
X1797507Y-975004D01*
X1861261Y-906526D01*
X1863648Y-904595D01*
X1866493Y-903528D01*
X1869490Y-903274D01*
X1880412Y-904138D01*
X1891538Y-903274D01*
X1906270Y-899617D01*
X1909470Y-899871D01*
X1913128Y-901547D01*
X1918563Y-903478D01*
X1924913Y-904189D01*
X1989785Y-904189D01*
X1993696Y-904951D01*
X1996998Y-907135D01*
X1999183Y-910437D01*
X1999945Y-914349D01*
X1999945Y-1006195D01*
X1999183Y-1010107D01*
X1996998Y-1013409D01*
X1993696Y-1015593D01*
X1989785Y-1016355D01*
X1924913Y-1016355D01*
X1918563Y-1017066D01*
X1909470Y-1020673D01*
X1906270Y-1020927D01*
X1891538Y-1017269D01*
X1880412Y-1016406D01*
X1869338Y-1017269D01*
X1858518Y-1019860D01*
X1848256Y-1024128D01*
X1838756Y-1029919D01*
X1830324Y-1037183D01*
X1823110Y-1045616D01*
X1817268Y-1055116D01*
X1813915Y-1063294D01*
X1811680Y-1066596D01*
X1808378Y-1068781D01*
G37*

%LPD*%
G36*
X1529689Y-1216202D02*
G01*
X1525778Y-1215390D01*
X1522476Y-1213205D01*
X1520291Y-1209903D01*
X1519529Y-1206042D01*
X1519529Y-995171D01*
X1520291Y-991260D01*
X1522476Y-987958D01*
X1595120Y-915365D01*
X1598523Y-913130D01*
X1602536Y-912368D01*
X1606499Y-913282D01*
X1609801Y-915669D01*
X1611884Y-919175D01*
X1612442Y-923239D01*
X1611325Y-927150D01*
X1609394Y-930960D01*
X1607413Y-938326D01*
X1606956Y-944219D01*
X1606956Y-1138885D01*
X1606194Y-1142796D01*
X1604010Y-1146098D01*
X1536852Y-1213205D01*
X1533550Y-1215390D01*
G37*

%LPD*%
G36*
X991717Y-1647240D02*
G01*
X987450Y-1646631D01*
X983894Y-1644294D01*
X906627Y-1567078D01*
X900379Y-1561998D01*
X893724Y-1558594D01*
X886358Y-1556613D01*
X880465Y-1556156D01*
X876960Y-1556156D01*
X872896Y-1555343D01*
X869543Y-1552956D01*
X867359Y-1549400D01*
X866800Y-1545336D01*
X870508Y-1532686D01*
X871372Y-1524000D01*
X870508Y-1515313D01*
X868070Y-1506931D01*
X864057Y-1499209D01*
X858672Y-1492351D01*
X852119Y-1486662D01*
X844550Y-1482293D01*
X836320Y-1479448D01*
X827684Y-1478178D01*
X818997Y-1478584D01*
X810514Y-1480667D01*
X802589Y-1484274D01*
X795477Y-1489354D01*
X789432Y-1495653D01*
X784758Y-1502968D01*
X781507Y-1511096D01*
X779830Y-1519631D01*
X779830Y-1528368D01*
X781507Y-1536903D01*
X783640Y-1542237D01*
X784352Y-1546098D01*
X783539Y-1549958D01*
X781354Y-1553210D01*
X778052Y-1555394D01*
X774192Y-1556156D01*
X598982Y-1556156D01*
X595071Y-1555394D01*
X591769Y-1553210D01*
X519938Y-1481378D01*
X517601Y-1477670D01*
X516991Y-1473352D01*
X518261Y-1469186D01*
X521157Y-1465935D01*
X525170Y-1464208D01*
X529539Y-1464310D01*
X532434Y-1465021D01*
X541121Y-1465427D01*
X549757Y-1464157D01*
X557987Y-1461312D01*
X565556Y-1456944D01*
X572109Y-1451254D01*
X577494Y-1444396D01*
X581507Y-1436674D01*
X583946Y-1428292D01*
X584809Y-1419606D01*
X584352Y-1414881D01*
X584708Y-1411020D01*
X586486Y-1407617D01*
X589381Y-1405077D01*
X592988Y-1403858D01*
X598017Y-1404315D01*
X606704Y-1404721D01*
X615340Y-1403451D01*
X623570Y-1400606D01*
X631139Y-1396238D01*
X637692Y-1390548D01*
X641400Y-1385824D01*
X644347Y-1383334D01*
X647954Y-1382064D01*
X651814Y-1382217D01*
X658977Y-1383995D01*
X667664Y-1384401D01*
X676300Y-1383131D01*
X684530Y-1380286D01*
X692099Y-1375918D01*
X698652Y-1370228D01*
X704037Y-1363370D01*
X708050Y-1355648D01*
X710488Y-1347266D01*
X711352Y-1338580D01*
X710488Y-1329893D01*
X708050Y-1321511D01*
X704037Y-1313789D01*
X698652Y-1306931D01*
X692099Y-1301242D01*
X684530Y-1296873D01*
X676300Y-1294028D01*
X667664Y-1292758D01*
X658977Y-1293164D01*
X650494Y-1295247D01*
X642569Y-1298854D01*
X635457Y-1303934D01*
X625856Y-1313992D01*
X621588Y-1315466D01*
X617169Y-1314958D01*
X615340Y-1314348D01*
X606704Y-1313078D01*
X598017Y-1313484D01*
X589534Y-1315567D01*
X581609Y-1319174D01*
X574497Y-1324254D01*
X568452Y-1330553D01*
X561340Y-1341882D01*
X558038Y-1344117D01*
X554126Y-1344930D01*
X550214Y-1344168D01*
X546912Y-1341932D01*
X544677Y-1338630D01*
X543915Y-1334770D01*
X543915Y-1278077D01*
X544677Y-1274165D01*
X546862Y-1270863D01*
X550164Y-1268679D01*
X554075Y-1267917D01*
X930910Y-1267917D01*
X934008Y-1268374D01*
X936802Y-1269796D01*
X939342Y-1271625D01*
X947267Y-1275232D01*
X955751Y-1277315D01*
X964437Y-1277721D01*
X973074Y-1276451D01*
X981354Y-1273606D01*
X988872Y-1269288D01*
X991311Y-1268272D01*
X993952Y-1267917D01*
X1057148Y-1267917D01*
X1060246Y-1268374D01*
X1063040Y-1269796D01*
X1069543Y-1274419D01*
X1077468Y-1278026D01*
X1085951Y-1280109D01*
X1094638Y-1280515D01*
X1103274Y-1279245D01*
X1111504Y-1276400D01*
X1119073Y-1272032D01*
X1125626Y-1266342D01*
X1131011Y-1259484D01*
X1135024Y-1251762D01*
X1137462Y-1243380D01*
X1138326Y-1234694D01*
X1137462Y-1226007D01*
X1135024Y-1217625D01*
X1131011Y-1209903D01*
X1125626Y-1203045D01*
X1119073Y-1197356D01*
X1111504Y-1192987D01*
X1103274Y-1190142D01*
X1094638Y-1188872D01*
X1085951Y-1189278D01*
X1077468Y-1191361D01*
X1069543Y-1194968D01*
X1065326Y-1195882D01*
X993952Y-1195882D01*
X991311Y-1195527D01*
X988872Y-1194511D01*
X981354Y-1190193D01*
X973074Y-1187348D01*
X964437Y-1186078D01*
X955751Y-1186484D01*
X947267Y-1188567D01*
X939342Y-1192174D01*
X936802Y-1194003D01*
X934008Y-1195425D01*
X930910Y-1195882D01*
X539648Y-1195882D01*
X537057Y-1195527D01*
X534568Y-1194511D01*
X527050Y-1190193D01*
X518820Y-1187348D01*
X510184Y-1186078D01*
X501497Y-1186484D01*
X493014Y-1188567D01*
X485089Y-1192174D01*
X477977Y-1197254D01*
X471932Y-1203553D01*
X467258Y-1210868D01*
X464007Y-1218996D01*
X462330Y-1227531D01*
X462330Y-1236268D01*
X464007Y-1244803D01*
X467258Y-1252931D01*
X470458Y-1257960D01*
X471678Y-1260602D01*
X472084Y-1263446D01*
X472084Y-1393952D01*
X472948Y-1401927D01*
X475437Y-1409700D01*
X475894Y-1414170D01*
X474319Y-1418386D01*
X471119Y-1421485D01*
X466851Y-1422958D01*
X462381Y-1422400D01*
X458622Y-1420012D01*
X288544Y-1249984D01*
X286359Y-1246682D01*
X285597Y-1242771D01*
X285597Y-1160780D01*
X284734Y-1152804D01*
X282448Y-1145692D01*
X278638Y-1139088D01*
X274777Y-1134618D01*
X229717Y-1089558D01*
X227380Y-1085900D01*
X226771Y-1081582D01*
X227380Y-1074166D01*
X226517Y-1063091D01*
X223926Y-1052271D01*
X219659Y-1042009D01*
X213817Y-1032510D01*
X206603Y-1024077D01*
X198170Y-1016812D01*
X188671Y-1011021D01*
X178409Y-1006754D01*
X167589Y-1004163D01*
X156514Y-1003300D01*
X145389Y-1004163D01*
X130657Y-1007871D01*
X127457Y-1007567D01*
X123799Y-1005890D01*
X118364Y-1003960D01*
X112014Y-1003249D01*
X40132Y-1003249D01*
X36220Y-1002487D01*
X32969Y-1000302D01*
X30733Y-997000D01*
X29971Y-993089D01*
X29971Y-901242D01*
X30733Y-897382D01*
X32969Y-894080D01*
X36220Y-891844D01*
X40132Y-891082D01*
X112014Y-891082D01*
X118364Y-890371D01*
X127457Y-886764D01*
X130657Y-886510D01*
X145389Y-890168D01*
X156514Y-891032D01*
X167589Y-890168D01*
X178409Y-887577D01*
X188671Y-883310D01*
X198170Y-877519D01*
X206603Y-870305D01*
X213817Y-861821D01*
X219659Y-852373D01*
X223926Y-842060D01*
X226517Y-831240D01*
X227380Y-820166D01*
X226517Y-809091D01*
X223926Y-798271D01*
X219659Y-788009D01*
X213817Y-778510D01*
X206603Y-770077D01*
X199999Y-764387D01*
X197358Y-760933D01*
X196443Y-756666D01*
X197358Y-752398D01*
X199999Y-748944D01*
X206603Y-743305D01*
X213817Y-734822D01*
X219659Y-725373D01*
X223926Y-715060D01*
X226517Y-704240D01*
X227380Y-693166D01*
X226517Y-682091D01*
X223926Y-671271D01*
X219659Y-661009D01*
X213817Y-651510D01*
X206603Y-643077D01*
X199999Y-637387D01*
X197358Y-633933D01*
X196443Y-629666D01*
X197358Y-625398D01*
X199999Y-621944D01*
X206603Y-616305D01*
X213817Y-607822D01*
X219659Y-598373D01*
X223926Y-588060D01*
X226517Y-577240D01*
X227380Y-566166D01*
X226517Y-555091D01*
X223926Y-544271D01*
X219659Y-534009D01*
X213817Y-524510D01*
X206603Y-516077D01*
X198170Y-508812D01*
X188671Y-503021D01*
X178409Y-498754D01*
X167589Y-496163D01*
X156514Y-495300D01*
X145389Y-496163D01*
X130657Y-499872D01*
X127457Y-499567D01*
X123799Y-497890D01*
X118364Y-495960D01*
X112014Y-495249D01*
X40132Y-495249D01*
X36220Y-494487D01*
X32969Y-492302D01*
X30733Y-489000D01*
X29971Y-485089D01*
X29971Y-181559D01*
X30581Y-178104D01*
X32308Y-175056D01*
X35001Y-172770D01*
X38303Y-171551D01*
X40386Y-171196D01*
X57810Y-166116D01*
X74574Y-159308D01*
X90525Y-150774D01*
X105562Y-140665D01*
X119481Y-129082D01*
X132130Y-116128D01*
X143357Y-101904D01*
X153060Y-86614D01*
X161188Y-70459D01*
X167538Y-53492D01*
X171754Y-37541D01*
X173786Y-33629D01*
X177292Y-30937D01*
X181610Y-29971D01*
X486409Y-29971D01*
X490321Y-30733D01*
X493572Y-32969D01*
X495808Y-36220D01*
X496570Y-40132D01*
X496570Y-77419D01*
X495706Y-81534D01*
X493217Y-84988D01*
X489559Y-87071D01*
X485343Y-87528D01*
X481685Y-87122D01*
X267309Y-89611D01*
X262585Y-90068D01*
X256895Y-91795D01*
X251866Y-94691D01*
X247192Y-99009D01*
X212648Y-139039D01*
X209550Y-141427D01*
X194868Y-145186D01*
X185928Y-149301D01*
X177901Y-154940D01*
X170942Y-161899D01*
X165303Y-169926D01*
X161188Y-178866D01*
X158648Y-188315D01*
X157734Y-199491D01*
X157022Y-202590D01*
X155346Y-205333D01*
X150063Y-211429D01*
X146812Y-216662D01*
X144932Y-222148D01*
X144272Y-228447D01*
X145034Y-412292D01*
X145694Y-418287D01*
X147624Y-423773D01*
X150723Y-428650D01*
X154838Y-432765D01*
X159766Y-435864D01*
X163118Y-437184D01*
X277622Y-475132D01*
X283616Y-476351D01*
X286410Y-476504D01*
X497535Y-475386D01*
X501396Y-476148D01*
X504748Y-478332D01*
X506933Y-481634D01*
X507746Y-485546D01*
X507746Y-635152D01*
X508406Y-641197D01*
X510285Y-646684D01*
X513384Y-651560D01*
X515213Y-653592D01*
X521208Y-658520D01*
X526084Y-660857D01*
X531723Y-662178D01*
X534924Y-662330D01*
X604113Y-662330D01*
X610463Y-661619D01*
X615899Y-659688D01*
X620826Y-656640D01*
X624890Y-652526D01*
X629920Y-644194D01*
X632866Y-641858D01*
X636473Y-640740D01*
X640232Y-641045D01*
X643636Y-642670D01*
X646226Y-645414D01*
X649376Y-650443D01*
X653491Y-654558D01*
X658368Y-657656D01*
X663854Y-659536D01*
X670153Y-660247D01*
X724052Y-660247D01*
X732231Y-659384D01*
X735431Y-659231D01*
X798931Y-659231D01*
X805230Y-658520D01*
X810717Y-656640D01*
X815594Y-653542D01*
X819708Y-649427D01*
X822756Y-644550D01*
X824687Y-639064D01*
X825398Y-632764D01*
X825398Y-459130D01*
X826160Y-455218D01*
X828344Y-451967D01*
X858723Y-421589D01*
X862025Y-419354D01*
X865936Y-418592D01*
X869797Y-419354D01*
X873099Y-421589D01*
X905764Y-454202D01*
X907948Y-457504D01*
X908710Y-461416D01*
X908710Y-632002D01*
X909421Y-638302D01*
X911352Y-643788D01*
X914400Y-648665D01*
X918514Y-652780D01*
X923391Y-655878D01*
X928878Y-657758D01*
X935177Y-658469D01*
X993089Y-658520D01*
X999388Y-657809D01*
X1004874Y-655878D01*
X1009548Y-653897D01*
X1013510Y-653999D01*
X1020826Y-655726D01*
X1029309Y-656132D01*
X1037742Y-654964D01*
X1045768Y-652272D01*
X1053185Y-648106D01*
X1060094Y-642366D01*
X1290269Y-412191D01*
X1293164Y-410209D01*
X1296517Y-409295D01*
X1302156Y-408736D01*
X1310335Y-406450D01*
X1317955Y-402640D01*
X1324711Y-397510D01*
X1330452Y-391210D01*
X1334922Y-383997D01*
X1338021Y-376072D01*
X1339545Y-367741D01*
X1339545Y-359206D01*
X1338021Y-350875D01*
X1334922Y-342950D01*
X1330452Y-335737D01*
X1324711Y-329438D01*
X1317955Y-324307D01*
X1310335Y-320497D01*
X1302156Y-318211D01*
X1293215Y-317347D01*
X1271930Y-317398D01*
X1265326Y-318363D01*
X1261110Y-318058D01*
X1257401Y-316077D01*
X1254810Y-312826D01*
X1253744Y-308762D01*
X1254455Y-304596D01*
X1256741Y-301091D01*
X1278991Y-278841D01*
X1282801Y-274066D01*
X1285341Y-268833D01*
X1286611Y-263194D01*
X1286916Y-230124D01*
X1287830Y-225958D01*
X1290370Y-222504D01*
X1294130Y-220421D01*
X1298448Y-220116D01*
X1302461Y-221589D01*
X1308100Y-225094D01*
X1313586Y-227025D01*
X1319885Y-227736D01*
X1476248Y-227736D01*
X1482547Y-227025D01*
X1488033Y-225094D01*
X1492910Y-222046D01*
X1497025Y-217932D01*
X1500073Y-213055D01*
X1502003Y-207568D01*
X1502714Y-201269D01*
X1502714Y-44907D01*
X1502308Y-41249D01*
X1502714Y-37033D01*
X1504797Y-33375D01*
X1508252Y-30835D01*
X1512417Y-29971D01*
X1850542Y-29971D01*
X1853946Y-30581D01*
X1856943Y-32258D01*
X1859229Y-34848D01*
X1860499Y-38049D01*
X1861921Y-44805D01*
X1867407Y-62026D01*
X1874672Y-78638D01*
X1883562Y-94386D01*
X1894078Y-109169D01*
X1906016Y-122783D01*
X1919325Y-135077D01*
X1933803Y-145948D01*
X1949348Y-155244D01*
X1965756Y-162915D01*
X1982825Y-168910D01*
X1992122Y-171094D01*
X1996186Y-173075D01*
X1998980Y-176580D01*
X1999945Y-180949D01*
X1999945Y-244195D01*
X1999183Y-248107D01*
X1996998Y-251409D01*
X1993696Y-253593D01*
X1989785Y-254355D01*
X1924913Y-254355D01*
X1918563Y-255066D01*
X1909470Y-258673D01*
X1906270Y-258927D01*
X1891538Y-255270D01*
X1880412Y-254406D01*
X1869338Y-255270D01*
X1858518Y-257860D01*
X1848256Y-262128D01*
X1838756Y-267919D01*
X1830324Y-275183D01*
X1823110Y-283616D01*
X1817268Y-293116D01*
X1813001Y-303377D01*
X1810410Y-314198D01*
X1809546Y-325272D01*
X1810410Y-336346D01*
X1813001Y-347167D01*
X1817268Y-357479D01*
X1823110Y-366928D01*
X1830324Y-375412D01*
X1836928Y-381050D01*
X1839569Y-384505D01*
X1840484Y-388772D01*
X1839569Y-393039D01*
X1836928Y-396494D01*
X1830324Y-402183D01*
X1823110Y-410616D01*
X1817268Y-420116D01*
X1813001Y-430377D01*
X1810410Y-441198D01*
X1809546Y-452272D01*
X1810867Y-467817D01*
X1809953Y-471119D01*
X1807972Y-473913D01*
X1392580Y-889355D01*
X1387500Y-895603D01*
X1384096Y-902258D01*
X1382115Y-909624D01*
X1381658Y-915517D01*
X1381658Y-1206449D01*
X1380896Y-1210360D01*
X1378712Y-1213662D01*
X1132890Y-1459484D01*
X1129588Y-1461668D01*
X1125677Y-1462430D01*
X1100226Y-1462430D01*
X1096518Y-1461770D01*
X1093368Y-1459788D01*
X1091082Y-1456740D01*
X1090117Y-1453134D01*
X1090472Y-1449425D01*
X1090980Y-1447596D01*
X1091844Y-1438910D01*
X1090980Y-1430223D01*
X1088542Y-1421841D01*
X1084529Y-1414119D01*
X1079144Y-1407261D01*
X1072591Y-1401572D01*
X1065022Y-1397203D01*
X1056792Y-1394358D01*
X1048156Y-1393088D01*
X1039469Y-1393494D01*
X1030986Y-1395577D01*
X1023061Y-1399184D01*
X1015949Y-1404264D01*
X1009903Y-1410563D01*
X1005230Y-1417878D01*
X1001979Y-1426006D01*
X1000302Y-1434541D01*
X1000302Y-1443278D01*
X1001979Y-1451813D01*
X1005230Y-1459941D01*
X1007262Y-1463141D01*
X1008684Y-1466697D01*
X1008684Y-1470558D01*
X1007262Y-1474114D01*
X1005230Y-1477314D01*
X1001979Y-1485442D01*
X1000302Y-1493977D01*
X1000302Y-1502714D01*
X1001979Y-1511249D01*
X1005230Y-1519377D01*
X1008938Y-1525168D01*
X1010361Y-1528775D01*
X1010361Y-1532585D01*
X1008938Y-1536192D01*
X1005484Y-1541576D01*
X1002233Y-1549704D01*
X1000556Y-1558239D01*
X1000556Y-1566976D01*
X1002233Y-1575511D01*
X1005484Y-1583639D01*
X1009040Y-1589176D01*
X1010462Y-1592732D01*
X1010462Y-1596593D01*
X1009040Y-1600149D01*
X1005230Y-1606092D01*
X1001979Y-1614220D01*
X1000302Y-1622755D01*
X1000302Y-1631492D01*
X1001014Y-1635201D01*
X1000912Y-1639468D01*
X999083Y-1643329D01*
X995832Y-1646072D01*
G37*

%LPC*%
G36*
X1450086Y-649935D02*
G01*
X1459890Y-649071D01*
X1469339Y-646531D01*
X1478280Y-642416D01*
X1486306Y-636778D01*
X1493266Y-629818D01*
X1498904Y-621792D01*
X1503019Y-612851D01*
X1505559Y-603402D01*
X1506423Y-593598D01*
X1505559Y-583793D01*
X1503019Y-574344D01*
X1497126Y-561492D01*
X1497126Y-557377D01*
X1498752Y-553618D01*
X1500682Y-550926D01*
X1504797Y-541985D01*
X1507337Y-532536D01*
X1508201Y-522732D01*
X1507337Y-512927D01*
X1504797Y-503478D01*
X1500682Y-494538D01*
X1495044Y-486511D01*
X1488084Y-479551D01*
X1480058Y-473913D01*
X1471117Y-469798D01*
X1461668Y-467258D01*
X1451864Y-466394D01*
X1442059Y-467258D01*
X1432610Y-469798D01*
X1423670Y-473913D01*
X1415643Y-479551D01*
X1408684Y-486511D01*
X1403045Y-494538D01*
X1398930Y-503478D01*
X1396390Y-512927D01*
X1395526Y-522732D01*
X1396390Y-532536D01*
X1398930Y-541985D01*
X1404823Y-554837D01*
X1404823Y-558952D01*
X1403197Y-562711D01*
X1401267Y-565404D01*
X1397152Y-574344D01*
X1394612Y-583793D01*
X1393748Y-593598D01*
X1394612Y-603402D01*
X1397152Y-612851D01*
X1401267Y-621792D01*
X1406906Y-629818D01*
X1413865Y-636778D01*
X1421892Y-642416D01*
X1430832Y-646531D01*
X1440281Y-649071D01*
G37*

%LPD*%
G36*
X1220419Y-1655775D02*
G01*
X1216558Y-1655013D01*
X1213256Y-1652778D01*
X1211021Y-1649475D01*
X1210259Y-1645615D01*
X1211021Y-1641703D01*
X1213205Y-1638401D01*
X1667865Y-1183741D01*
X1672945Y-1177493D01*
X1676349Y-1170838D01*
X1678330Y-1163472D01*
X1678787Y-1157579D01*
X1678787Y-962914D01*
X1679549Y-959002D01*
X1681734Y-955700D01*
X1794256Y-843229D01*
X1797812Y-840892D01*
X1802079Y-840282D01*
X1806193Y-841451D01*
X1809445Y-844194D01*
X1811324Y-848106D01*
X1811578Y-851408D01*
X1810715Y-854608D01*
X1808886Y-857402D01*
X1732889Y-938987D01*
X1729993Y-942492D01*
X1728216Y-945134D01*
X1726234Y-948944D01*
X1725015Y-951941D01*
X1723847Y-956106D01*
X1723339Y-959256D01*
X1723034Y-963777D01*
X1719580Y-1604416D01*
X1718716Y-1608429D01*
X1716328Y-1611782D01*
X1673098Y-1651812D01*
X1669897Y-1653793D01*
X1666189Y-1654505D01*
G37*

%LPD*%
G36*
X992327Y-1839620D02*
G01*
X988060Y-1839010D01*
X984503Y-1836674D01*
X906881Y-1759102D01*
X900633Y-1754022D01*
X893978Y-1750618D01*
X886612Y-1748637D01*
X880719Y-1748180D01*
X850188Y-1748180D01*
X846277Y-1747418D01*
X842975Y-1745234D01*
X743102Y-1645310D01*
X740918Y-1642008D01*
X740105Y-1638147D01*
X740918Y-1634236D01*
X743102Y-1630933D01*
X746404Y-1628749D01*
X750265Y-1627987D01*
X861771Y-1627987D01*
X865682Y-1628749D01*
X868984Y-1630933D01*
X998575Y-1760524D01*
X1000353Y-1762963D01*
X1001369Y-1765807D01*
X1002233Y-1770329D01*
X1005484Y-1778457D01*
X1007770Y-1782013D01*
X1009192Y-1785620D01*
X1009192Y-1789430D01*
X1007770Y-1793036D01*
X1005484Y-1796592D01*
X1002233Y-1804720D01*
X1000556Y-1813255D01*
X1000556Y-1821992D01*
X1001623Y-1827580D01*
X1001572Y-1831848D01*
X999693Y-1835708D01*
X996442Y-1838452D01*
G37*

%LPD*%
G36*
X1172616Y-1875180D02*
G01*
X1168450Y-1874316D01*
X1165047Y-1871827D01*
X1162964Y-1868220D01*
X1162456Y-1864004D01*
X1163472Y-1854200D01*
X1162608Y-1845513D01*
X1160170Y-1837131D01*
X1156157Y-1829409D01*
X1150772Y-1822551D01*
X1144219Y-1816862D01*
X1136650Y-1812493D01*
X1128420Y-1809648D01*
X1119784Y-1808378D01*
X1111097Y-1808784D01*
X1101953Y-1811020D01*
X1098092Y-1811223D01*
X1094486Y-1809953D01*
X1091590Y-1807413D01*
X1089812Y-1804009D01*
X1088796Y-1800555D01*
X1084478Y-1792173D01*
X1083462Y-1789125D01*
X1083462Y-1785924D01*
X1084478Y-1782876D01*
X1088796Y-1774494D01*
X1091234Y-1766112D01*
X1092098Y-1757425D01*
X1091234Y-1748739D01*
X1088948Y-1740916D01*
X1088593Y-1737207D01*
X1089609Y-1733600D01*
X1091844Y-1730603D01*
X1094994Y-1728622D01*
X1098702Y-1727911D01*
X1648358Y-1726387D01*
X1652270Y-1727149D01*
X1655572Y-1729333D01*
X1657756Y-1732635D01*
X1658569Y-1736547D01*
X1657807Y-1740407D01*
X1655572Y-1743710D01*
X1527098Y-1872234D01*
X1523796Y-1874418D01*
X1519885Y-1875180D01*
G37*

%LPD*%
G36*
X181051Y-1999945D02*
G01*
X176733Y-1999030D01*
X173228Y-1996338D01*
X171196Y-1992375D01*
X167538Y-1978507D01*
X161188Y-1961540D01*
X153060Y-1945386D01*
X143357Y-1930095D01*
X132130Y-1915871D01*
X119481Y-1902917D01*
X105562Y-1891334D01*
X90525Y-1881225D01*
X74574Y-1872691D01*
X57810Y-1865884D01*
X40386Y-1860804D01*
X38303Y-1860448D01*
X35001Y-1859229D01*
X32308Y-1856943D01*
X30581Y-1853895D01*
X29971Y-1850440D01*
X29971Y-1282242D01*
X30733Y-1278382D01*
X32969Y-1275080D01*
X36220Y-1272844D01*
X40132Y-1272082D01*
X112014Y-1272082D01*
X118364Y-1271371D01*
X127457Y-1267764D01*
X130657Y-1267510D01*
X145389Y-1271168D01*
X156514Y-1272032D01*
X167589Y-1271168D01*
X178409Y-1268577D01*
X188671Y-1264310D01*
X198831Y-1258112D01*
X202641Y-1256741D01*
X206705Y-1256944D01*
X210362Y-1258722D01*
X213004Y-1261821D01*
X214223Y-1265732D01*
X214629Y-1269339D01*
X216916Y-1276451D01*
X220725Y-1283055D01*
X224586Y-1287526D01*
X554126Y-1617065D01*
X560374Y-1622145D01*
X567029Y-1625549D01*
X574395Y-1627530D01*
X580288Y-1627987D01*
X631494Y-1627987D01*
X635406Y-1628749D01*
X638708Y-1630933D01*
X640892Y-1634236D01*
X641654Y-1638147D01*
X641654Y-1644700D01*
X643331Y-1653235D01*
X646531Y-1661312D01*
X651916Y-1669592D01*
X653338Y-1673199D01*
X653338Y-1677060D01*
X651916Y-1680667D01*
X646531Y-1688947D01*
X643331Y-1697024D01*
X641654Y-1705559D01*
X641654Y-1714296D01*
X643331Y-1722831D01*
X646582Y-1730959D01*
X651256Y-1738274D01*
X657301Y-1744573D01*
X664413Y-1749653D01*
X672338Y-1753260D01*
X680821Y-1755343D01*
X689508Y-1755749D01*
X698144Y-1754479D01*
X706374Y-1751634D01*
X713943Y-1747266D01*
X724306Y-1738172D01*
X728421Y-1737055D01*
X732637Y-1737664D01*
X736193Y-1740001D01*
X805332Y-1809089D01*
X811580Y-1814169D01*
X818235Y-1817573D01*
X825601Y-1819554D01*
X831494Y-1820011D01*
X862025Y-1820011D01*
X865936Y-1820773D01*
X869238Y-1822957D01*
X899617Y-1853387D01*
X901801Y-1856638D01*
X902614Y-1860448D01*
X901903Y-1864309D01*
X899820Y-1867611D01*
X894029Y-1873656D01*
X890422Y-1876094D01*
X886155Y-1876806D01*
X881989Y-1875688D01*
X871423Y-1866392D01*
X863853Y-1862023D01*
X855624Y-1859178D01*
X846988Y-1857908D01*
X838301Y-1858314D01*
X829818Y-1860397D01*
X821893Y-1864004D01*
X814781Y-1869084D01*
X813409Y-1870506D01*
X810260Y-1872742D01*
X806500Y-1873656D01*
X802741Y-1873097D01*
X799388Y-1871167D01*
X792683Y-1865375D01*
X785114Y-1861007D01*
X776884Y-1858162D01*
X768248Y-1856892D01*
X759561Y-1857298D01*
X751078Y-1859381D01*
X743153Y-1862988D01*
X740410Y-1864918D01*
X737616Y-1866341D01*
X734517Y-1866798D01*
X448106Y-1866798D01*
X444195Y-1866036D01*
X440893Y-1863852D01*
X223418Y-1646377D01*
X221843Y-1644345D01*
X220827Y-1641957D01*
X218084Y-1632153D01*
X214071Y-1624431D01*
X208686Y-1617573D01*
X202133Y-1611884D01*
X194564Y-1607515D01*
X186334Y-1604670D01*
X177698Y-1603400D01*
X169011Y-1603806D01*
X160528Y-1605889D01*
X152603Y-1609496D01*
X145491Y-1614576D01*
X139446Y-1620875D01*
X134772Y-1628190D01*
X131521Y-1636318D01*
X129844Y-1644853D01*
X129844Y-1653590D01*
X131521Y-1662125D01*
X134772Y-1670253D01*
X139446Y-1677568D01*
X145491Y-1683867D01*
X152603Y-1688947D01*
X160528Y-1692554D01*
X167741Y-1694332D01*
X170281Y-1695348D01*
X172516Y-1696974D01*
X403250Y-1927707D01*
X409498Y-1932787D01*
X416153Y-1936191D01*
X423519Y-1938172D01*
X429412Y-1938629D01*
X734517Y-1938629D01*
X737616Y-1939086D01*
X740410Y-1940509D01*
X743153Y-1942439D01*
X751078Y-1946046D01*
X759561Y-1948129D01*
X768248Y-1948535D01*
X776884Y-1947265D01*
X785114Y-1944420D01*
X792683Y-1940052D01*
X798322Y-1935175D01*
X801674Y-1933244D01*
X805484Y-1932686D01*
X809193Y-1933600D01*
X812342Y-1935835D01*
X814781Y-1938375D01*
X821893Y-1943455D01*
X829818Y-1947062D01*
X838301Y-1949145D01*
X846988Y-1949551D01*
X855624Y-1948281D01*
X863853Y-1945436D01*
X871423Y-1941068D01*
X877976Y-1935378D01*
X879754Y-1933143D01*
X883107Y-1930400D01*
X887272Y-1929282D01*
X891540Y-1929993D01*
X895096Y-1932381D01*
X899617Y-1937105D01*
X906729Y-1942185D01*
X914653Y-1945792D01*
X923137Y-1947875D01*
X931824Y-1948281D01*
X940460Y-1947011D01*
X948690Y-1944166D01*
X956259Y-1939798D01*
X966724Y-1930552D01*
X970838Y-1929434D01*
X975055Y-1930095D01*
X978662Y-1932381D01*
X982370Y-1936089D01*
X988618Y-1941169D01*
X995273Y-1944573D01*
X1002639Y-1946554D01*
X1008532Y-1947011D01*
X1538478Y-1947011D01*
X1546453Y-1946148D01*
X1553565Y-1943862D01*
X1560169Y-1940052D01*
X1564640Y-1936191D01*
X1825599Y-1675231D01*
X1830679Y-1668983D01*
X1833981Y-1662531D01*
X1836572Y-1659280D01*
X1840230Y-1657400D01*
X1844344Y-1657045D01*
X1848256Y-1658416D01*
X1858518Y-1662684D01*
X1869338Y-1665274D01*
X1880412Y-1666138D01*
X1891538Y-1665274D01*
X1906270Y-1661617D01*
X1909470Y-1661871D01*
X1913128Y-1663547D01*
X1918563Y-1665478D01*
X1924913Y-1666189D01*
X1989785Y-1666189D01*
X1993696Y-1666951D01*
X1996998Y-1669135D01*
X1999183Y-1672437D01*
X1999945Y-1676349D01*
X1999945Y-1852930D01*
X1998980Y-1857349D01*
X1996186Y-1860854D01*
X1992122Y-1862836D01*
X1984400Y-1864664D01*
X1967280Y-1870608D01*
X1950872Y-1878279D01*
X1935378Y-1887626D01*
X1920849Y-1898497D01*
X1907590Y-1910791D01*
X1895602Y-1924405D01*
X1885137Y-1939137D01*
X1876196Y-1954885D01*
X1868982Y-1971497D01*
X1863445Y-1988769D01*
X1862785Y-1991868D01*
X1861515Y-1995119D01*
X1859280Y-1997710D01*
X1856232Y-1999386D01*
X1852879Y-1999945D01*
G37*

%LPC*%
G36*
X1701800Y-1974037D02*
G01*
X1711604Y-1973173D01*
X1721053Y-1970633D01*
X1729993Y-1966518D01*
X1738020Y-1960880D01*
X1744980Y-1953920D01*
X1750618Y-1945893D01*
X1754733Y-1936953D01*
X1757273Y-1927504D01*
X1758137Y-1917700D01*
X1757273Y-1907895D01*
X1754733Y-1898446D01*
X1750618Y-1889506D01*
X1744980Y-1881479D01*
X1738020Y-1874520D01*
X1729993Y-1868881D01*
X1721053Y-1864766D01*
X1711604Y-1862226D01*
X1701800Y-1861362D01*
X1691995Y-1862226D01*
X1682546Y-1864766D01*
X1673606Y-1868881D01*
X1665579Y-1874520D01*
X1658620Y-1881479D01*
X1652981Y-1889506D01*
X1648866Y-1898446D01*
X1646326Y-1907895D01*
X1645462Y-1917700D01*
X1646326Y-1927504D01*
X1648866Y-1936953D01*
X1652981Y-1945893D01*
X1658620Y-1953920D01*
X1665579Y-1960880D01*
X1673606Y-1966518D01*
X1682546Y-1970633D01*
X1691995Y-1973173D01*
G37*
G36*
X467258Y-1728825D02*
G01*
X475894Y-1727555D01*
X484124Y-1724710D01*
X491693Y-1720342D01*
X498246Y-1714652D01*
X503631Y-1707794D01*
X507644Y-1700072D01*
X510082Y-1691690D01*
X510946Y-1683004D01*
X510082Y-1674317D01*
X507644Y-1665935D01*
X503631Y-1658213D01*
X498246Y-1651355D01*
X491693Y-1645666D01*
X484124Y-1641297D01*
X475894Y-1638452D01*
X467258Y-1637182D01*
X458571Y-1637588D01*
X450088Y-1639671D01*
X442163Y-1643278D01*
X435051Y-1648358D01*
X429006Y-1654657D01*
X424332Y-1661972D01*
X421081Y-1670100D01*
X419404Y-1678635D01*
X419404Y-1687372D01*
X421081Y-1695907D01*
X424332Y-1704035D01*
X429006Y-1711350D01*
X435051Y-1717649D01*
X442163Y-1722729D01*
X450088Y-1726336D01*
X458571Y-1728419D01*
G37*

%LPD*%
D10*
X1293690Y-363473D02*
G01*
X1273810Y-363473D01*
X1027176Y-610107D01*
D11*
X1045971Y-1692147D02*
G01*
X1684273Y-1690370D01*
X1755394Y-1624584D01*
X1758950Y-963676D01*
X1880412Y-833272D01*
X1880412Y-1341272D02*
G01*
X1859889Y-1341272D01*
X1800605Y-1400555D01*
X1800605Y-1649476D01*
X1538986Y-1911095D01*
X1008126Y-1911095D01*
X881126Y-1784095D01*
X831087Y-1784095D01*
X687323Y-1640331D01*
D12*
X508000Y-1231900D02*
G01*
X962276Y-1231900D01*
X962276Y-1231900D02*
G01*
X1089660Y-1231900D01*
X1092454Y-1234694D01*
D11*
X508000Y-1231900D02*
G01*
X508000Y-1394460D01*
X533156Y-1419616D01*
X538947Y-1419616D01*
X1046226Y-1562607D02*
G01*
X1150112Y-1562607D01*
X1483613Y-1229105D01*
X1483613Y-976071D01*
X1880412Y-579272D01*
X175513Y-1649221D02*
G01*
X429005Y-1902713D01*
X766063Y-1902713D01*
X1045971Y-1498345D02*
G01*
X1144778Y-1498345D01*
X1417573Y-1225550D01*
X1417573Y-915111D01*
X1880412Y-452272D01*
X1045971Y-1627123D02*
G01*
X1173734Y-1627123D01*
X1642871Y-1157986D01*
X1642871Y-943813D01*
X1880412Y-706272D01*
X1046226Y-1757426D02*
G01*
X880871Y-1592071D01*
X579881Y-1592071D01*
X249681Y-1261871D01*
X249681Y-1160271D01*
X163576Y-1074165D01*
X156489Y-1074165D01*
D13*
G01*
X1880412Y-1722272D03*
G01*
X1880412Y-1595272D03*
G01*
X1880412Y-1468272D03*
G01*
X1880412Y-1341272D03*
G01*
X1880412Y-1214272D03*
G01*
X1880412Y-1087272D03*
G01*
X1880412Y-960272D03*
G01*
X1880412Y-833272D03*
G01*
X1880412Y-706272D03*
G01*
X1880412Y-579272D03*
G01*
X1880412Y-452272D03*
G01*
X1880412Y-325272D03*
D14*
G01*
X1969312Y-1722272D03*
G01*
X1969312Y-1595272D03*
G01*
X1969312Y-1468272D03*
G01*
X1969312Y-1087272D03*
G01*
X1969312Y-1214272D03*
G01*
X1969312Y-1341272D03*
G01*
X1969312Y-706272D03*
G01*
X1969312Y-833272D03*
G01*
X1969312Y-960272D03*
G01*
X1969312Y-325272D03*
G01*
X1969312Y-452272D03*
G01*
X1969312Y-579272D03*
D15*
G01*
X1145667Y-123088D03*
G01*
X891667Y-123088D03*
G01*
X637667Y-123088D03*
G01*
X1652244Y-123088D03*
G01*
X1398066Y-123088D03*
D14*
G01*
X67614Y-947191D03*
G01*
X67614Y-1074191D03*
G01*
X67614Y-1201191D03*
G01*
X67614Y-820191D03*
G01*
X67614Y-693191D03*
G01*
X67614Y-566191D03*
D13*
G01*
X156489Y-1201165D03*
G01*
X156489Y-1074165D03*
G01*
X156489Y-947165D03*
G01*
X156489Y-820165D03*
G01*
X156489Y-693165D03*
G01*
X156489Y-566165D03*
D16*
G01*
X214121Y-198120D03*
G01*
X215645Y-268223D03*
G01*
X1701800Y-1917700D03*
D17*
G01*
X1536700Y-1155700D03*
G01*
X1625600Y-1282700D03*
G01*
X190500Y-1841500D03*
G01*
X1117600Y-1854200D03*
G01*
X508000Y-1231900D03*
G01*
X538937Y-1419605D03*
G01*
X604520Y-1358900D03*
G01*
X665479Y-1338579D03*
G01*
X1045971Y-1438910D03*
G01*
X1045971Y-1498345D03*
G01*
X1046226Y-1562607D03*
G01*
X1045971Y-1627123D03*
G01*
X1045971Y-1692147D03*
G01*
X1046226Y-1757426D03*
G01*
X1046226Y-1817623D03*
G01*
X929639Y-1902460D03*
G01*
X844804Y-1903729D03*
G01*
X766063Y-1902713D03*
G01*
X465073Y-1683004D03*
G01*
X687323Y-1709928D03*
G01*
X687323Y-1640331D03*
G01*
X823213Y-1704847D03*
G01*
X666495Y-1546605D03*
G01*
X175513Y-1649221D03*
G01*
X54863Y-211328D03*
G01*
X53847Y-270763D03*
G01*
X1161034Y-1769363D03*
G01*
X1335023Y-1769363D03*
G01*
X1818386Y-1865884D03*
G01*
X1820926Y-1952244D03*
D16*
G01*
X1451863Y-522731D03*
G01*
X1450086Y-593597D03*
D17*
G01*
X1182370Y-1388871D03*
G01*
X483870Y-691642D03*
G01*
X1117345Y-690626D03*
G01*
X1115313Y-962913D03*
G01*
X481076Y-797560D03*
G01*
X1113536Y-830326D03*
G01*
X584200Y-723900D03*
G01*
X1016000Y-723900D03*
G01*
X584200Y-927100D03*
G01*
X1016000Y-927100D03*
G01*
X1092454Y-1234694D03*
G01*
X962279Y-1231900D03*
G01*
X1016000Y-825500D03*
G01*
X584200Y-825500D03*
G01*
X800100Y-723900D03*
G01*
X914400Y-825500D03*
G01*
X914400Y-927100D03*
G01*
X825500Y-1524000D03*
G01*
X702563Y-609854D03*
G01*
X767334Y-610107D03*
G01*
X962405Y-609854D03*
G01*
X572262Y-609345D03*
G01*
X1027176Y-610107D03*
G01*
X1293698Y-363473D03*
G01*
X213360Y-62484D03*
G01*
X450595Y-1862073D03*
M02*
