G04 Layer: BottomLayer*
G04 EasyEDA v6.5.22, 2022-11-24 13:33:34*
G04 a569f08a9e4f4569b8c6db444d38c7d5,dbbd32702ee04327bcd14b3349a77860,10*
G04 Gerber Generator version 0.2*
G04 Scale: 100 percent, Rotated: No, Reflected: No *
G04 Dimensions in millimeters *
G04 leading zeros omitted , absolute positions ,4 integer and 5 decimal *
%FSLAX45Y45*%
%MOMM*%

%ADD10C,0.1000*%
%ADD11C,0.2000*%
%ADD12C,0.5080*%
%ADD13C,2.0000*%
%ADD14O,1.950212X0.5684012*%
%ADD15C,0.9000*%
%ADD16R,0.9000X0.9000*%
%ADD17R,1.5748X1.5748*%
%ADD18C,0.6096*%
%ADD19C,0.4000*%
%ADD20C,0.0165*%

%LPD*%
G36*
X181051Y-1999996D02*
G01*
X176733Y-1999030D01*
X173228Y-1996338D01*
X171246Y-1992426D01*
X167538Y-1978507D01*
X161188Y-1961540D01*
X153060Y-1945386D01*
X143357Y-1930095D01*
X132130Y-1915871D01*
X119481Y-1902917D01*
X111912Y-1896567D01*
X109321Y-1893417D01*
X108254Y-1889455D01*
X108813Y-1885442D01*
X109626Y-1883105D01*
X110337Y-1876806D01*
X110337Y-1658620D01*
X111201Y-1654505D01*
X113741Y-1651050D01*
X116941Y-1649222D01*
X113741Y-1647393D01*
X111201Y-1643938D01*
X110337Y-1639824D01*
X110337Y-1281379D01*
X111201Y-1277264D01*
X113588Y-1273911D01*
X117144Y-1271778D01*
X127457Y-1267764D01*
X130657Y-1267510D01*
X145389Y-1271168D01*
X156514Y-1272032D01*
X167589Y-1271168D01*
X178409Y-1268577D01*
X188671Y-1264310D01*
X198170Y-1258519D01*
X206603Y-1251305D01*
X213817Y-1242822D01*
X219659Y-1233373D01*
X223926Y-1223060D01*
X226517Y-1212240D01*
X227380Y-1201166D01*
X226517Y-1190091D01*
X223926Y-1179271D01*
X219659Y-1169009D01*
X213817Y-1159510D01*
X206603Y-1151077D01*
X199999Y-1145387D01*
X197358Y-1141933D01*
X196443Y-1137666D01*
X197358Y-1133398D01*
X199999Y-1129944D01*
X206603Y-1124305D01*
X213817Y-1115822D01*
X219659Y-1106373D01*
X223926Y-1096060D01*
X226517Y-1085240D01*
X227380Y-1074166D01*
X226517Y-1063091D01*
X223926Y-1052271D01*
X219659Y-1042009D01*
X213817Y-1032510D01*
X206603Y-1024077D01*
X198170Y-1016812D01*
X188671Y-1011021D01*
X178409Y-1006754D01*
X167589Y-1004163D01*
X156514Y-1003300D01*
X145389Y-1004163D01*
X130657Y-1007871D01*
X127457Y-1007567D01*
X123799Y-1005890D01*
X118364Y-1003960D01*
X112014Y-1003249D01*
X40182Y-1003249D01*
X36271Y-1002487D01*
X32969Y-1000302D01*
X30784Y-997000D01*
X30022Y-993089D01*
X30022Y-901242D01*
X30784Y-897382D01*
X32969Y-894080D01*
X36271Y-891844D01*
X40182Y-891082D01*
X112014Y-891082D01*
X118364Y-890371D01*
X127457Y-886764D01*
X130657Y-886510D01*
X145389Y-890168D01*
X156514Y-891032D01*
X167589Y-890168D01*
X178409Y-887577D01*
X188671Y-883310D01*
X198170Y-877519D01*
X206603Y-870305D01*
X213817Y-861821D01*
X219659Y-852373D01*
X223926Y-842060D01*
X226517Y-831240D01*
X227380Y-820166D01*
X226517Y-809091D01*
X223926Y-798271D01*
X219659Y-788009D01*
X213817Y-778510D01*
X206603Y-770077D01*
X199999Y-764387D01*
X197358Y-760933D01*
X196443Y-756666D01*
X197358Y-752398D01*
X199999Y-748944D01*
X206603Y-743305D01*
X213817Y-734822D01*
X219659Y-725373D01*
X223926Y-715060D01*
X226517Y-704240D01*
X227380Y-693166D01*
X226517Y-682091D01*
X223926Y-671271D01*
X219659Y-661009D01*
X213817Y-651510D01*
X206603Y-643077D01*
X199999Y-637387D01*
X197358Y-633933D01*
X196443Y-629666D01*
X197358Y-625398D01*
X199999Y-621944D01*
X206603Y-616305D01*
X213817Y-607822D01*
X219659Y-598373D01*
X223926Y-588060D01*
X226517Y-577240D01*
X227380Y-566166D01*
X226517Y-555091D01*
X223926Y-544271D01*
X219659Y-534009D01*
X213817Y-524510D01*
X206603Y-516077D01*
X198170Y-508812D01*
X188671Y-503021D01*
X178409Y-498754D01*
X167589Y-496163D01*
X156514Y-495300D01*
X145389Y-496163D01*
X130657Y-499872D01*
X127457Y-499567D01*
X123799Y-497890D01*
X118364Y-495960D01*
X112014Y-495249D01*
X40182Y-495249D01*
X36271Y-494487D01*
X32969Y-492302D01*
X30784Y-489000D01*
X30022Y-485089D01*
X30022Y-181559D01*
X30632Y-178104D01*
X32359Y-175056D01*
X35052Y-172770D01*
X57810Y-166116D01*
X74574Y-159308D01*
X90525Y-150774D01*
X105562Y-140665D01*
X119481Y-129082D01*
X132130Y-116128D01*
X143357Y-101904D01*
X153060Y-86614D01*
X161188Y-70459D01*
X167538Y-53492D01*
X171754Y-37592D01*
X173786Y-33629D01*
X177292Y-30937D01*
X181559Y-30022D01*
X523341Y-30022D01*
X527507Y-30886D01*
X530910Y-33375D01*
X533044Y-37084D01*
X533450Y-41300D01*
X533044Y-44907D01*
X533044Y-201269D01*
X533755Y-207568D01*
X535635Y-213055D01*
X538734Y-217932D01*
X542848Y-222046D01*
X547725Y-225094D01*
X553161Y-227025D01*
X559511Y-227736D01*
X715822Y-227736D01*
X722172Y-227025D01*
X727608Y-225094D01*
X732536Y-222046D01*
X736600Y-217932D01*
X739698Y-213055D01*
X741629Y-207568D01*
X742340Y-201269D01*
X742340Y-44907D01*
X741934Y-41300D01*
X742340Y-37084D01*
X744423Y-33375D01*
X747877Y-30886D01*
X751992Y-30022D01*
X777341Y-30022D01*
X781507Y-30886D01*
X784910Y-33375D01*
X787044Y-37084D01*
X787450Y-41300D01*
X787044Y-44907D01*
X787044Y-201269D01*
X787755Y-207568D01*
X789635Y-213055D01*
X792734Y-217932D01*
X796848Y-222046D01*
X801725Y-225094D01*
X807161Y-227025D01*
X813511Y-227736D01*
X969822Y-227736D01*
X976172Y-227025D01*
X981608Y-225094D01*
X986536Y-222046D01*
X990600Y-217932D01*
X993698Y-213055D01*
X995629Y-207568D01*
X996340Y-201269D01*
X996340Y-44907D01*
X995934Y-41300D01*
X996340Y-37084D01*
X998423Y-33375D01*
X1001877Y-30886D01*
X1005992Y-30022D01*
X1031341Y-30022D01*
X1035507Y-30886D01*
X1038910Y-33375D01*
X1041044Y-37084D01*
X1041450Y-41300D01*
X1041044Y-44907D01*
X1041044Y-201269D01*
X1041755Y-207568D01*
X1043635Y-213055D01*
X1046734Y-217932D01*
X1050848Y-222046D01*
X1055725Y-225094D01*
X1061161Y-227025D01*
X1067511Y-227736D01*
X1223822Y-227736D01*
X1230172Y-227025D01*
X1235608Y-225094D01*
X1240536Y-222046D01*
X1244600Y-217932D01*
X1247698Y-213055D01*
X1249629Y-207568D01*
X1250340Y-201269D01*
X1250340Y-44907D01*
X1249934Y-41300D01*
X1250340Y-37084D01*
X1252423Y-33375D01*
X1255877Y-30886D01*
X1259992Y-30022D01*
X1283716Y-30022D01*
X1287881Y-30886D01*
X1291285Y-33375D01*
X1293418Y-37084D01*
X1293825Y-41300D01*
X1293418Y-44907D01*
X1293418Y-201269D01*
X1294130Y-207568D01*
X1296060Y-213055D01*
X1299108Y-217932D01*
X1303223Y-222046D01*
X1308100Y-225094D01*
X1313586Y-227025D01*
X1319885Y-227736D01*
X1476248Y-227736D01*
X1482547Y-227025D01*
X1488033Y-225094D01*
X1492910Y-222046D01*
X1497025Y-217932D01*
X1500073Y-213055D01*
X1502003Y-207568D01*
X1502714Y-201269D01*
X1502714Y-44907D01*
X1502308Y-41300D01*
X1502714Y-37084D01*
X1504797Y-33375D01*
X1508252Y-30886D01*
X1512417Y-30022D01*
X1850542Y-30022D01*
X1853946Y-30581D01*
X1856943Y-32258D01*
X1859229Y-34848D01*
X1860499Y-38100D01*
X1861921Y-44805D01*
X1867407Y-62026D01*
X1874672Y-78638D01*
X1883562Y-94386D01*
X1894078Y-109169D01*
X1906016Y-122783D01*
X1919325Y-135077D01*
X1933803Y-145948D01*
X1949348Y-155244D01*
X1965756Y-162915D01*
X1982825Y-168910D01*
X1992172Y-171094D01*
X1996186Y-173075D01*
X1998980Y-176580D01*
X1999996Y-181000D01*
X1999996Y-244195D01*
X1999234Y-248107D01*
X1996998Y-251409D01*
X1993747Y-253593D01*
X1989836Y-254355D01*
X1924913Y-254355D01*
X1918563Y-255066D01*
X1909470Y-258673D01*
X1906270Y-258927D01*
X1891538Y-255270D01*
X1880412Y-254406D01*
X1869338Y-255270D01*
X1858518Y-257860D01*
X1848256Y-262128D01*
X1838756Y-267919D01*
X1830324Y-275183D01*
X1823110Y-283616D01*
X1817268Y-293116D01*
X1813001Y-303377D01*
X1810410Y-314198D01*
X1809546Y-325272D01*
X1810410Y-336346D01*
X1813001Y-347167D01*
X1817268Y-357479D01*
X1823110Y-366928D01*
X1830324Y-375412D01*
X1836928Y-381050D01*
X1839569Y-384505D01*
X1840484Y-388772D01*
X1839569Y-393039D01*
X1836928Y-396494D01*
X1830324Y-402183D01*
X1823110Y-410616D01*
X1817268Y-420116D01*
X1813001Y-430377D01*
X1810410Y-441198D01*
X1809546Y-452272D01*
X1810410Y-463346D01*
X1813001Y-474167D01*
X1817268Y-484479D01*
X1823110Y-493928D01*
X1830324Y-502412D01*
X1836928Y-508050D01*
X1839569Y-511505D01*
X1840484Y-515772D01*
X1839569Y-520039D01*
X1836928Y-523493D01*
X1830324Y-529183D01*
X1823110Y-537616D01*
X1817268Y-547116D01*
X1813001Y-557377D01*
X1810410Y-568198D01*
X1809546Y-579272D01*
X1810410Y-590346D01*
X1813001Y-601167D01*
X1817268Y-611479D01*
X1823110Y-620928D01*
X1830324Y-629412D01*
X1836928Y-635050D01*
X1839569Y-638505D01*
X1840484Y-642772D01*
X1839569Y-647039D01*
X1836928Y-650494D01*
X1830324Y-656183D01*
X1823110Y-664616D01*
X1817268Y-674116D01*
X1813001Y-684377D01*
X1810410Y-695198D01*
X1809546Y-706272D01*
X1810410Y-717346D01*
X1813001Y-728167D01*
X1817268Y-738479D01*
X1823110Y-747928D01*
X1830324Y-756412D01*
X1836928Y-762050D01*
X1839569Y-765505D01*
X1840484Y-769772D01*
X1839569Y-774039D01*
X1836928Y-777494D01*
X1830324Y-783183D01*
X1826564Y-787552D01*
X1823110Y-790194D01*
X1818843Y-791108D01*
X1402435Y-791108D01*
X1398524Y-790346D01*
X1395222Y-788162D01*
X1392529Y-785418D01*
X1384757Y-779983D01*
X1376222Y-776020D01*
X1367078Y-773582D01*
X1357172Y-772718D01*
X1219911Y-772718D01*
X1210005Y-773582D01*
X1200861Y-776020D01*
X1192326Y-779983D01*
X1184554Y-785418D01*
X1177848Y-792124D01*
X1172413Y-799896D01*
X1168450Y-808431D01*
X1166012Y-817575D01*
X1165148Y-827024D01*
X1166012Y-836472D01*
X1168450Y-845616D01*
X1172413Y-854151D01*
X1177848Y-861923D01*
X1184554Y-868629D01*
X1192326Y-874064D01*
X1200861Y-878027D01*
X1210005Y-880465D01*
X1219911Y-881329D01*
X1357172Y-881329D01*
X1367078Y-880465D01*
X1376222Y-878027D01*
X1384757Y-874064D01*
X1392529Y-868629D01*
X1395222Y-865886D01*
X1398524Y-863701D01*
X1402435Y-862939D01*
X1810054Y-862939D01*
X1813407Y-863498D01*
X1816455Y-865174D01*
X1818690Y-867765D01*
X1823110Y-874928D01*
X1830324Y-883412D01*
X1838756Y-890625D01*
X1848256Y-896416D01*
X1858518Y-900684D01*
X1869338Y-903274D01*
X1880412Y-904138D01*
X1891538Y-903274D01*
X1906270Y-899617D01*
X1909470Y-899871D01*
X1913128Y-901547D01*
X1918563Y-903478D01*
X1924913Y-904189D01*
X1989836Y-904189D01*
X1993747Y-904951D01*
X1996998Y-907135D01*
X1999234Y-910437D01*
X1999996Y-914349D01*
X1999996Y-1006195D01*
X1999234Y-1010107D01*
X1996998Y-1013409D01*
X1993747Y-1015593D01*
X1989836Y-1016355D01*
X1924913Y-1016355D01*
X1918563Y-1017066D01*
X1909470Y-1020673D01*
X1906270Y-1020927D01*
X1891538Y-1017269D01*
X1880412Y-1016406D01*
X1869338Y-1017269D01*
X1858518Y-1019860D01*
X1848256Y-1024128D01*
X1834642Y-1032510D01*
X1830781Y-1033018D01*
X1778558Y-1029969D01*
X1701800Y-1029716D01*
X1376426Y-1029716D01*
X1373835Y-1029360D01*
X1367078Y-1027582D01*
X1357172Y-1026718D01*
X1219911Y-1026718D01*
X1210005Y-1027582D01*
X1200861Y-1030020D01*
X1192326Y-1033983D01*
X1184554Y-1039418D01*
X1177848Y-1046124D01*
X1172413Y-1053896D01*
X1168450Y-1062431D01*
X1166012Y-1071575D01*
X1165148Y-1081024D01*
X1166012Y-1090472D01*
X1168450Y-1099616D01*
X1172413Y-1108151D01*
X1177848Y-1115923D01*
X1184554Y-1122629D01*
X1192326Y-1128064D01*
X1200861Y-1132027D01*
X1210005Y-1134465D01*
X1219911Y-1135329D01*
X1357172Y-1135329D01*
X1367078Y-1134465D01*
X1373835Y-1132687D01*
X1376426Y-1132332D01*
X1640332Y-1132332D01*
X1644243Y-1133094D01*
X1647494Y-1135329D01*
X1649730Y-1138580D01*
X1650492Y-1142492D01*
X1650492Y-1892655D01*
X1649526Y-1896922D01*
X1648866Y-1898446D01*
X1646326Y-1907895D01*
X1645462Y-1917700D01*
X1646326Y-1927504D01*
X1648866Y-1936953D01*
X1652981Y-1945893D01*
X1658620Y-1953920D01*
X1665579Y-1960880D01*
X1673606Y-1966518D01*
X1682546Y-1970633D01*
X1691995Y-1973173D01*
X1701800Y-1974037D01*
X1711604Y-1973173D01*
X1721053Y-1970633D01*
X1729993Y-1966518D01*
X1738020Y-1960880D01*
X1744980Y-1953920D01*
X1750618Y-1945893D01*
X1754733Y-1936953D01*
X1757273Y-1927504D01*
X1758137Y-1917700D01*
X1757273Y-1907895D01*
X1754733Y-1898446D01*
X1754073Y-1896922D01*
X1753107Y-1892655D01*
X1753107Y-1142695D01*
X1753870Y-1138783D01*
X1756105Y-1135481D01*
X1759407Y-1133297D01*
X1763318Y-1132535D01*
X1777187Y-1132586D01*
X1824888Y-1135430D01*
X1828088Y-1136192D01*
X1830882Y-1137869D01*
X1836928Y-1143050D01*
X1839569Y-1146505D01*
X1840484Y-1150772D01*
X1839569Y-1155039D01*
X1836928Y-1158494D01*
X1830324Y-1164183D01*
X1823110Y-1172616D01*
X1817268Y-1182116D01*
X1813001Y-1192377D01*
X1810410Y-1203198D01*
X1809546Y-1214272D01*
X1810410Y-1225346D01*
X1813001Y-1236167D01*
X1817268Y-1246479D01*
X1823110Y-1255928D01*
X1830324Y-1264412D01*
X1836928Y-1270050D01*
X1839569Y-1273505D01*
X1840484Y-1277772D01*
X1839569Y-1282039D01*
X1836928Y-1285494D01*
X1830324Y-1291183D01*
X1823110Y-1299616D01*
X1817268Y-1309116D01*
X1813001Y-1319377D01*
X1810410Y-1330198D01*
X1809546Y-1341272D01*
X1810410Y-1352346D01*
X1813001Y-1363167D01*
X1817268Y-1373479D01*
X1823110Y-1382928D01*
X1830324Y-1391412D01*
X1836928Y-1397050D01*
X1839569Y-1400505D01*
X1840484Y-1404772D01*
X1839569Y-1409039D01*
X1836928Y-1412494D01*
X1830324Y-1418183D01*
X1823110Y-1426616D01*
X1817268Y-1436116D01*
X1813001Y-1446377D01*
X1810410Y-1457198D01*
X1809546Y-1468272D01*
X1810410Y-1479346D01*
X1813001Y-1490167D01*
X1817268Y-1500479D01*
X1823110Y-1509928D01*
X1830324Y-1518412D01*
X1836928Y-1524050D01*
X1839569Y-1527505D01*
X1840484Y-1531772D01*
X1839569Y-1536039D01*
X1836928Y-1539494D01*
X1830324Y-1545183D01*
X1823110Y-1553616D01*
X1817268Y-1563116D01*
X1813001Y-1573377D01*
X1810410Y-1584198D01*
X1809546Y-1595272D01*
X1810410Y-1606346D01*
X1813001Y-1617167D01*
X1817268Y-1627479D01*
X1823110Y-1636928D01*
X1830324Y-1645412D01*
X1838756Y-1652625D01*
X1848256Y-1658416D01*
X1858518Y-1662684D01*
X1869338Y-1665274D01*
X1880412Y-1666138D01*
X1891538Y-1665274D01*
X1906270Y-1661617D01*
X1909470Y-1661871D01*
X1913128Y-1663547D01*
X1918563Y-1665478D01*
X1924913Y-1666189D01*
X1989836Y-1666189D01*
X1993747Y-1666951D01*
X1996998Y-1669135D01*
X1999234Y-1672437D01*
X1999996Y-1676349D01*
X1999996Y-1852930D01*
X1998980Y-1857349D01*
X1996186Y-1860854D01*
X1992172Y-1862836D01*
X1984400Y-1864664D01*
X1967280Y-1870608D01*
X1950872Y-1878279D01*
X1935378Y-1887626D01*
X1920849Y-1898497D01*
X1907590Y-1910791D01*
X1895602Y-1924405D01*
X1885137Y-1939137D01*
X1876196Y-1954885D01*
X1868982Y-1971497D01*
X1863445Y-1988769D01*
X1862785Y-1991918D01*
X1861515Y-1995119D01*
X1859280Y-1997710D01*
X1856232Y-1999386D01*
X1852828Y-1999996D01*
G37*

%LPC*%
G36*
X846988Y-1949551D02*
G01*
X855624Y-1948281D01*
X863853Y-1945436D01*
X871423Y-1941068D01*
X877976Y-1935378D01*
X879754Y-1933143D01*
X883107Y-1930400D01*
X887272Y-1929282D01*
X891540Y-1929993D01*
X895096Y-1932381D01*
X899617Y-1937105D01*
X906729Y-1942185D01*
X914653Y-1945792D01*
X923137Y-1947875D01*
X931824Y-1948281D01*
X940460Y-1947011D01*
X948690Y-1944166D01*
X956259Y-1939798D01*
X962812Y-1934108D01*
X968197Y-1927250D01*
X972210Y-1919528D01*
X974648Y-1911146D01*
X975512Y-1902460D01*
X974648Y-1893773D01*
X972210Y-1885391D01*
X968197Y-1877669D01*
X962812Y-1870811D01*
X956259Y-1865122D01*
X948690Y-1860753D01*
X940460Y-1857908D01*
X931824Y-1856638D01*
X923137Y-1857044D01*
X914653Y-1859127D01*
X906729Y-1862734D01*
X899617Y-1867814D01*
X894029Y-1873656D01*
X890422Y-1876094D01*
X886155Y-1876806D01*
X881989Y-1875688D01*
X871423Y-1866392D01*
X863853Y-1862023D01*
X855624Y-1859178D01*
X846988Y-1857908D01*
X838301Y-1858314D01*
X829818Y-1860397D01*
X821893Y-1864004D01*
X814781Y-1869084D01*
X813409Y-1870506D01*
X810260Y-1872742D01*
X806500Y-1873656D01*
X802741Y-1873097D01*
X799388Y-1871167D01*
X792683Y-1865375D01*
X785114Y-1861007D01*
X776884Y-1858162D01*
X768248Y-1856892D01*
X759561Y-1857298D01*
X751078Y-1859381D01*
X743153Y-1862988D01*
X736041Y-1868068D01*
X729996Y-1874367D01*
X725322Y-1881682D01*
X722071Y-1889810D01*
X720394Y-1898345D01*
X720394Y-1907082D01*
X722071Y-1915617D01*
X725322Y-1923745D01*
X729996Y-1931060D01*
X736041Y-1937359D01*
X743153Y-1942439D01*
X751078Y-1946046D01*
X759561Y-1948129D01*
X768248Y-1948535D01*
X776884Y-1947265D01*
X785114Y-1944420D01*
X792683Y-1940052D01*
X798322Y-1935175D01*
X801674Y-1933244D01*
X805484Y-1932686D01*
X809193Y-1933600D01*
X812342Y-1935835D01*
X814781Y-1938375D01*
X821893Y-1943455D01*
X829818Y-1947062D01*
X838301Y-1949145D01*
G37*
G36*
X1119784Y-1900021D02*
G01*
X1128420Y-1898751D01*
X1136650Y-1895906D01*
X1144219Y-1891538D01*
X1150772Y-1885848D01*
X1156157Y-1878990D01*
X1160170Y-1871268D01*
X1162608Y-1862886D01*
X1163472Y-1854200D01*
X1162608Y-1845513D01*
X1160170Y-1837131D01*
X1156157Y-1829409D01*
X1150772Y-1822551D01*
X1144219Y-1816862D01*
X1136650Y-1812493D01*
X1128420Y-1809648D01*
X1119784Y-1808378D01*
X1111097Y-1808784D01*
X1101953Y-1811020D01*
X1098092Y-1811223D01*
X1094486Y-1809953D01*
X1091590Y-1807413D01*
X1089812Y-1804009D01*
X1088796Y-1800555D01*
X1084478Y-1792173D01*
X1083462Y-1789125D01*
X1083462Y-1785924D01*
X1084478Y-1782876D01*
X1088796Y-1774494D01*
X1091234Y-1766112D01*
X1092098Y-1757425D01*
X1091234Y-1748739D01*
X1088796Y-1740357D01*
X1084783Y-1732635D01*
X1083462Y-1730908D01*
X1081532Y-1726844D01*
X1081532Y-1722374D01*
X1083462Y-1718360D01*
X1084529Y-1716938D01*
X1088542Y-1709216D01*
X1090980Y-1700834D01*
X1091844Y-1692148D01*
X1090980Y-1683461D01*
X1088542Y-1675079D01*
X1087475Y-1673047D01*
X1086358Y-1669084D01*
X1086916Y-1665020D01*
X1089050Y-1661464D01*
X1092403Y-1659077D01*
X1095552Y-1657705D01*
X1099058Y-1655673D01*
X1101852Y-1653692D01*
X1105103Y-1650796D01*
X1129893Y-1625955D01*
X1134973Y-1619707D01*
X1138377Y-1613052D01*
X1140358Y-1605686D01*
X1140815Y-1599793D01*
X1140815Y-1390700D01*
X1141577Y-1386789D01*
X1143762Y-1383487D01*
X1167993Y-1359255D01*
X1173073Y-1353007D01*
X1176477Y-1346352D01*
X1178458Y-1338986D01*
X1178915Y-1333093D01*
X1178915Y-1194308D01*
X1178052Y-1186332D01*
X1175766Y-1179220D01*
X1171956Y-1172616D01*
X1168044Y-1168044D01*
X1004062Y-1004112D01*
X1001877Y-1000810D01*
X1001115Y-996899D01*
X1001115Y-902208D01*
X1000252Y-894232D01*
X997966Y-887120D01*
X994156Y-880516D01*
X990295Y-876046D01*
X965555Y-851306D01*
X959307Y-846226D01*
X952652Y-842822D01*
X945286Y-840841D01*
X939393Y-840384D01*
X882700Y-840384D01*
X878789Y-839622D01*
X875487Y-837437D01*
X873810Y-835710D01*
X871423Y-832002D01*
X870102Y-817575D01*
X867613Y-808431D01*
X863650Y-799896D01*
X858215Y-792124D01*
X851509Y-785418D01*
X843737Y-779983D01*
X835202Y-776020D01*
X826058Y-773582D01*
X816152Y-772718D01*
X678891Y-772718D01*
X668985Y-773582D01*
X659841Y-776020D01*
X651306Y-779983D01*
X643534Y-785418D01*
X636828Y-792124D01*
X631393Y-799896D01*
X627430Y-808431D01*
X624992Y-817575D01*
X624128Y-827024D01*
X624992Y-836472D01*
X627430Y-845616D01*
X631393Y-854151D01*
X636828Y-861923D01*
X643534Y-868629D01*
X651306Y-874064D01*
X659841Y-878027D01*
X669848Y-880719D01*
X673709Y-882751D01*
X676402Y-886206D01*
X677367Y-890524D01*
X676402Y-894842D01*
X673709Y-898296D01*
X669848Y-900328D01*
X659841Y-903020D01*
X651306Y-906983D01*
X643534Y-912418D01*
X636828Y-919124D01*
X631393Y-926896D01*
X627430Y-935431D01*
X624992Y-944575D01*
X624128Y-954024D01*
X624992Y-963472D01*
X627430Y-972616D01*
X631393Y-981151D01*
X636828Y-988923D01*
X643534Y-995629D01*
X651306Y-1001064D01*
X659841Y-1005027D01*
X669848Y-1007719D01*
X673709Y-1009751D01*
X676402Y-1013206D01*
X677367Y-1017524D01*
X676402Y-1021842D01*
X673709Y-1025296D01*
X669848Y-1027328D01*
X659841Y-1030020D01*
X651306Y-1033983D01*
X643534Y-1039418D01*
X636828Y-1046124D01*
X631393Y-1053896D01*
X627430Y-1062431D01*
X624992Y-1071575D01*
X624128Y-1081024D01*
X624992Y-1090472D01*
X627430Y-1099616D01*
X631393Y-1108151D01*
X636828Y-1115923D01*
X643534Y-1122629D01*
X651306Y-1128064D01*
X659841Y-1132027D01*
X669848Y-1134719D01*
X673709Y-1136751D01*
X676402Y-1140206D01*
X677367Y-1144524D01*
X676402Y-1148842D01*
X673709Y-1152296D01*
X669848Y-1154328D01*
X659841Y-1157020D01*
X651306Y-1160983D01*
X643534Y-1166418D01*
X636828Y-1173124D01*
X631393Y-1180896D01*
X627430Y-1189431D01*
X624992Y-1198575D01*
X624128Y-1208024D01*
X624992Y-1217472D01*
X627430Y-1226616D01*
X631393Y-1235151D01*
X636828Y-1242923D01*
X643534Y-1249629D01*
X651306Y-1255064D01*
X659841Y-1259027D01*
X668985Y-1261465D01*
X678891Y-1262329D01*
X701446Y-1262329D01*
X705358Y-1263142D01*
X708660Y-1265326D01*
X710844Y-1268628D01*
X711606Y-1272489D01*
X711606Y-1295908D01*
X710895Y-1299667D01*
X708812Y-1302918D01*
X705662Y-1305153D01*
X701954Y-1306068D01*
X698144Y-1305509D01*
X694791Y-1303578D01*
X692099Y-1301242D01*
X684530Y-1296873D01*
X676300Y-1294028D01*
X667664Y-1292758D01*
X658977Y-1293164D01*
X650494Y-1295247D01*
X642569Y-1298854D01*
X635457Y-1303934D01*
X625856Y-1313992D01*
X621588Y-1315466D01*
X617169Y-1314958D01*
X615340Y-1314348D01*
X606704Y-1313078D01*
X598017Y-1313484D01*
X589534Y-1315567D01*
X581609Y-1319174D01*
X574497Y-1324254D01*
X568452Y-1330553D01*
X563778Y-1337868D01*
X560527Y-1345996D01*
X558850Y-1354480D01*
X558952Y-1364538D01*
X558038Y-1368806D01*
X555447Y-1372311D01*
X551688Y-1374394D01*
X547319Y-1374698D01*
X541121Y-1373784D01*
X532434Y-1374190D01*
X523951Y-1376273D01*
X516026Y-1379880D01*
X508914Y-1384960D01*
X502869Y-1391259D01*
X498195Y-1398574D01*
X494944Y-1406702D01*
X493268Y-1415237D01*
X493268Y-1423974D01*
X494944Y-1432509D01*
X498195Y-1440637D01*
X502869Y-1447952D01*
X508914Y-1454251D01*
X516026Y-1459331D01*
X523951Y-1462938D01*
X532434Y-1465021D01*
X541121Y-1465427D01*
X549757Y-1464157D01*
X557987Y-1461312D01*
X565556Y-1456944D01*
X572109Y-1451254D01*
X577494Y-1444396D01*
X581507Y-1436674D01*
X583946Y-1428292D01*
X584809Y-1419606D01*
X584352Y-1414881D01*
X584708Y-1411020D01*
X586486Y-1407617D01*
X589381Y-1405077D01*
X592988Y-1403858D01*
X598017Y-1404315D01*
X606704Y-1404721D01*
X615340Y-1403451D01*
X623570Y-1400606D01*
X631139Y-1396238D01*
X637692Y-1390548D01*
X641400Y-1385824D01*
X644347Y-1383334D01*
X647954Y-1382064D01*
X651814Y-1382217D01*
X658977Y-1383995D01*
X667664Y-1384401D01*
X676300Y-1383131D01*
X684530Y-1380286D01*
X692099Y-1375918D01*
X694791Y-1373581D01*
X698144Y-1371650D01*
X701954Y-1371092D01*
X705662Y-1372006D01*
X708812Y-1374241D01*
X710895Y-1377492D01*
X711606Y-1381252D01*
X711606Y-1445514D01*
X712470Y-1453489D01*
X714756Y-1460601D01*
X718566Y-1467205D01*
X722426Y-1471676D01*
X777849Y-1527098D01*
X779627Y-1529537D01*
X780643Y-1532382D01*
X781507Y-1536903D01*
X784758Y-1545031D01*
X789432Y-1552346D01*
X795477Y-1558645D01*
X802589Y-1563725D01*
X810514Y-1567332D01*
X818997Y-1569415D01*
X827684Y-1569821D01*
X836320Y-1568551D01*
X844550Y-1565706D01*
X852119Y-1561338D01*
X858672Y-1555648D01*
X864057Y-1548790D01*
X865987Y-1545132D01*
X868324Y-1542135D01*
X871575Y-1540205D01*
X875334Y-1539595D01*
X879043Y-1540459D01*
X882192Y-1542592D01*
X926744Y-1587093D01*
X932992Y-1592173D01*
X939647Y-1595577D01*
X947013Y-1597558D01*
X952703Y-1598015D01*
X993394Y-1598218D01*
X997254Y-1599031D01*
X1000506Y-1601216D01*
X1002741Y-1604467D01*
X1003503Y-1608328D01*
X1002792Y-1612188D01*
X1001979Y-1614220D01*
X1000302Y-1622755D01*
X1000302Y-1631492D01*
X1001979Y-1640027D01*
X1005230Y-1648155D01*
X1009091Y-1654149D01*
X1010513Y-1657705D01*
X1010513Y-1661566D01*
X1009091Y-1665122D01*
X1005230Y-1671116D01*
X1001979Y-1679244D01*
X1000302Y-1687779D01*
X1000302Y-1696516D01*
X1001979Y-1705051D01*
X1005230Y-1713179D01*
X1009294Y-1719478D01*
X1010716Y-1723085D01*
X1010716Y-1726895D01*
X1009294Y-1730502D01*
X1005484Y-1736394D01*
X1002233Y-1744522D01*
X1000556Y-1753057D01*
X1000556Y-1761794D01*
X1002233Y-1770329D01*
X1005484Y-1778457D01*
X1007770Y-1782013D01*
X1009192Y-1785620D01*
X1009192Y-1789430D01*
X1007770Y-1793036D01*
X1005484Y-1796592D01*
X1002233Y-1804720D01*
X1000556Y-1813255D01*
X1000556Y-1821992D01*
X1002233Y-1830527D01*
X1005484Y-1838655D01*
X1010158Y-1845970D01*
X1016203Y-1852269D01*
X1023315Y-1857349D01*
X1031240Y-1860956D01*
X1039723Y-1863039D01*
X1048410Y-1863445D01*
X1057046Y-1862175D01*
X1060704Y-1860905D01*
X1064514Y-1860397D01*
X1068222Y-1861312D01*
X1071372Y-1863496D01*
X1073454Y-1866747D01*
X1076858Y-1875231D01*
X1081532Y-1882546D01*
X1087577Y-1888845D01*
X1094689Y-1893925D01*
X1102614Y-1897532D01*
X1111097Y-1899615D01*
G37*
G36*
X689508Y-1755749D02*
G01*
X698144Y-1754479D01*
X706374Y-1751634D01*
X713943Y-1747266D01*
X720496Y-1741576D01*
X725881Y-1734718D01*
X729894Y-1726996D01*
X732332Y-1718614D01*
X733196Y-1709928D01*
X732332Y-1701241D01*
X729894Y-1692859D01*
X725881Y-1685137D01*
X722985Y-1681429D01*
X721055Y-1677365D01*
X721055Y-1672894D01*
X722985Y-1668830D01*
X725881Y-1665122D01*
X729894Y-1657400D01*
X732332Y-1649018D01*
X733196Y-1640332D01*
X732332Y-1631645D01*
X729894Y-1623263D01*
X725881Y-1615541D01*
X720496Y-1608683D01*
X713943Y-1602994D01*
X706374Y-1598625D01*
X698144Y-1595780D01*
X689508Y-1594510D01*
X680821Y-1594916D01*
X672338Y-1596999D01*
X664413Y-1600606D01*
X657301Y-1605686D01*
X651256Y-1611985D01*
X646582Y-1619300D01*
X643331Y-1627428D01*
X641654Y-1635963D01*
X641654Y-1644700D01*
X643331Y-1653235D01*
X646531Y-1661312D01*
X651916Y-1669592D01*
X653338Y-1673199D01*
X653338Y-1677060D01*
X651916Y-1680667D01*
X646531Y-1688947D01*
X643331Y-1697024D01*
X641654Y-1705559D01*
X641654Y-1714296D01*
X643331Y-1722831D01*
X646582Y-1730959D01*
X651256Y-1738274D01*
X657301Y-1744573D01*
X664413Y-1749653D01*
X672338Y-1753260D01*
X680821Y-1755343D01*
G37*
G36*
X467258Y-1728825D02*
G01*
X475894Y-1727555D01*
X484124Y-1724710D01*
X491693Y-1720342D01*
X498246Y-1714652D01*
X503631Y-1707794D01*
X507644Y-1700072D01*
X510082Y-1691690D01*
X510946Y-1683004D01*
X510082Y-1674317D01*
X507644Y-1665935D01*
X503631Y-1658213D01*
X498246Y-1651355D01*
X491693Y-1645666D01*
X484124Y-1641297D01*
X475894Y-1638452D01*
X467258Y-1637182D01*
X458571Y-1637588D01*
X450088Y-1639671D01*
X442163Y-1643278D01*
X435051Y-1648358D01*
X429006Y-1654657D01*
X424332Y-1661972D01*
X421081Y-1670100D01*
X419404Y-1678635D01*
X419404Y-1687372D01*
X421081Y-1695907D01*
X424332Y-1704035D01*
X429006Y-1711350D01*
X435051Y-1717649D01*
X442163Y-1722729D01*
X450088Y-1726336D01*
X458571Y-1728419D01*
G37*
G36*
X177698Y-1695043D02*
G01*
X186334Y-1693773D01*
X194564Y-1690928D01*
X202133Y-1686560D01*
X208686Y-1680870D01*
X214071Y-1674012D01*
X218084Y-1666290D01*
X220522Y-1657908D01*
X221386Y-1649222D01*
X220522Y-1640535D01*
X218084Y-1632153D01*
X214071Y-1624431D01*
X208686Y-1617573D01*
X202133Y-1611884D01*
X194564Y-1607515D01*
X186334Y-1604670D01*
X177698Y-1603400D01*
X169011Y-1603806D01*
X160528Y-1605889D01*
X152603Y-1609496D01*
X145491Y-1614576D01*
X139446Y-1620875D01*
X134772Y-1628190D01*
X131521Y-1636318D01*
X130454Y-1641703D01*
X128828Y-1645615D01*
X125679Y-1648510D01*
X123647Y-1649222D01*
X125679Y-1649933D01*
X128828Y-1652828D01*
X130454Y-1656740D01*
X131521Y-1662125D01*
X134772Y-1670253D01*
X139446Y-1677568D01*
X145491Y-1683867D01*
X152603Y-1688947D01*
X160528Y-1692554D01*
X169011Y-1694637D01*
G37*
G36*
X510184Y-1277721D02*
G01*
X518820Y-1276451D01*
X527050Y-1273606D01*
X534619Y-1269238D01*
X541172Y-1263548D01*
X546557Y-1256690D01*
X550570Y-1248968D01*
X553008Y-1240586D01*
X553872Y-1231900D01*
X553008Y-1223213D01*
X550570Y-1214831D01*
X546557Y-1207109D01*
X541172Y-1200251D01*
X534619Y-1194562D01*
X527050Y-1190193D01*
X518820Y-1187348D01*
X510184Y-1186078D01*
X501497Y-1186484D01*
X493014Y-1188567D01*
X485089Y-1192174D01*
X477977Y-1197254D01*
X471932Y-1203553D01*
X467258Y-1210868D01*
X464007Y-1218996D01*
X462330Y-1227531D01*
X462330Y-1236268D01*
X464007Y-1244803D01*
X467258Y-1252931D01*
X471932Y-1260246D01*
X477977Y-1266545D01*
X485089Y-1271625D01*
X493014Y-1275232D01*
X501497Y-1277315D01*
G37*
G36*
X769518Y-655929D02*
G01*
X778154Y-654659D01*
X786384Y-651814D01*
X793953Y-647446D01*
X800506Y-641756D01*
X805891Y-634898D01*
X809904Y-627176D01*
X812342Y-618794D01*
X813206Y-610108D01*
X812342Y-601421D01*
X809904Y-593039D01*
X805891Y-585317D01*
X800506Y-578459D01*
X793953Y-572770D01*
X786384Y-568401D01*
X778154Y-565556D01*
X769518Y-564286D01*
X760831Y-564692D01*
X752348Y-566775D01*
X744423Y-570382D01*
X741222Y-572668D01*
X737717Y-574243D01*
X733856Y-574446D01*
X730199Y-573176D01*
X721614Y-568147D01*
X713384Y-565302D01*
X704748Y-564032D01*
X696061Y-564438D01*
X687578Y-566521D01*
X679653Y-570128D01*
X672541Y-575208D01*
X666496Y-581507D01*
X661822Y-588822D01*
X658571Y-596950D01*
X656894Y-605485D01*
X656894Y-614222D01*
X658571Y-622757D01*
X661822Y-630885D01*
X666496Y-638200D01*
X672541Y-644499D01*
X679653Y-649579D01*
X687578Y-653186D01*
X696061Y-655269D01*
X704748Y-655675D01*
X713384Y-654405D01*
X721614Y-651560D01*
X729894Y-646785D01*
X733552Y-645515D01*
X737362Y-645718D01*
X740867Y-647293D01*
X744423Y-649833D01*
X752348Y-653440D01*
X760831Y-655523D01*
G37*
G36*
X1029360Y-655929D02*
G01*
X1037996Y-654659D01*
X1046226Y-651814D01*
X1053795Y-647446D01*
X1060348Y-641756D01*
X1065733Y-634898D01*
X1069746Y-627176D01*
X1072184Y-618794D01*
X1072438Y-616458D01*
X1073404Y-612952D01*
X1075588Y-610006D01*
X1078636Y-608025D01*
X1082192Y-607263D01*
X1085799Y-607822D01*
X1191107Y-643636D01*
X1202893Y-647039D01*
X1205839Y-647700D01*
X1217879Y-649630D01*
X1220876Y-649935D01*
X1233170Y-650392D01*
X1437690Y-648766D01*
X1450086Y-649935D01*
X1459890Y-649071D01*
X1465275Y-647852D01*
X1469034Y-647598D01*
X1483969Y-644702D01*
X1498447Y-640080D01*
X1512265Y-633730D01*
X1525219Y-625754D01*
X1537106Y-616305D01*
X1547774Y-605434D01*
X1557070Y-593394D01*
X1564792Y-580339D01*
X1570939Y-566420D01*
X1575358Y-551891D01*
X1577949Y-536905D01*
X1578762Y-521716D01*
X1577746Y-506577D01*
X1574850Y-491642D01*
X1570228Y-477164D01*
X1563878Y-463346D01*
X1555902Y-450392D01*
X1546453Y-438505D01*
X1535582Y-427837D01*
X1523542Y-418541D01*
X1510487Y-410819D01*
X1496568Y-404672D01*
X1482039Y-400253D01*
X1467053Y-397662D01*
X1451559Y-396849D01*
X1344168Y-397713D01*
X1340104Y-396900D01*
X1336700Y-394512D01*
X1334516Y-390956D01*
X1333957Y-386892D01*
X1335074Y-382879D01*
X1336294Y-380542D01*
X1338732Y-372160D01*
X1339545Y-363474D01*
X1338732Y-354787D01*
X1336294Y-346405D01*
X1332280Y-338683D01*
X1326896Y-331825D01*
X1320292Y-326136D01*
X1312773Y-321767D01*
X1304493Y-318922D01*
X1295857Y-317652D01*
X1287170Y-318058D01*
X1278686Y-320141D01*
X1270762Y-323748D01*
X1263650Y-328828D01*
X1257655Y-335127D01*
X1252931Y-342442D01*
X1249680Y-350570D01*
X1248054Y-359105D01*
X1248054Y-367842D01*
X1249680Y-376377D01*
X1251305Y-380390D01*
X1252016Y-384149D01*
X1251305Y-387908D01*
X1249222Y-391160D01*
X1246124Y-393395D01*
X1242415Y-394309D01*
X1238605Y-393801D01*
X843381Y-259334D01*
X832916Y-256235D01*
X828649Y-255270D01*
X817981Y-253492D01*
X813612Y-253034D01*
X802690Y-252526D01*
X384962Y-251663D01*
X381203Y-250901D01*
X377952Y-248869D01*
X302666Y-177190D01*
X290779Y-167233D01*
X278079Y-158902D01*
X264414Y-152196D01*
X250088Y-147116D01*
X235254Y-143865D01*
X214121Y-141782D01*
X204317Y-142646D01*
X201676Y-143256D01*
X189890Y-144983D01*
X175209Y-148996D01*
X161137Y-154736D01*
X147828Y-162153D01*
X135585Y-171094D01*
X124460Y-181457D01*
X114655Y-193090D01*
X106324Y-205790D01*
X99618Y-219456D01*
X94538Y-233781D01*
X91287Y-248615D01*
X89814Y-263753D01*
X90220Y-278942D01*
X92405Y-293979D01*
X96418Y-308660D01*
X102158Y-322732D01*
X109575Y-336042D01*
X118516Y-348284D01*
X129082Y-359664D01*
X246634Y-471424D01*
X255422Y-478535D01*
X258571Y-480822D01*
X268122Y-486867D01*
X271576Y-488746D01*
X281787Y-493572D01*
X285445Y-495046D01*
X296164Y-498601D01*
X299923Y-499567D01*
X310997Y-501853D01*
X314858Y-502361D01*
X326136Y-503275D01*
X779983Y-504342D01*
X783234Y-504850D01*
X932230Y-555548D01*
X935990Y-557834D01*
X938428Y-561543D01*
X939088Y-565912D01*
X937818Y-570128D01*
X934821Y-573430D01*
X932383Y-575208D01*
X926337Y-581507D01*
X921664Y-588822D01*
X918413Y-596950D01*
X916736Y-605485D01*
X916736Y-614222D01*
X918413Y-622757D01*
X921664Y-630885D01*
X926337Y-638200D01*
X932383Y-644499D01*
X939495Y-649579D01*
X947419Y-653186D01*
X955903Y-655269D01*
X964590Y-655675D01*
X973226Y-654405D01*
X981456Y-651560D01*
X989736Y-646785D01*
X993394Y-645515D01*
X997203Y-645718D01*
X1000709Y-647293D01*
X1004265Y-649833D01*
X1012190Y-653440D01*
X1020673Y-655523D01*
G37*
G36*
X574446Y-655167D02*
G01*
X583082Y-653897D01*
X591312Y-651052D01*
X598881Y-646684D01*
X605434Y-640994D01*
X610819Y-634136D01*
X614832Y-626414D01*
X617270Y-618032D01*
X618134Y-609346D01*
X617270Y-600659D01*
X614832Y-592277D01*
X610819Y-584555D01*
X605434Y-577697D01*
X598881Y-572008D01*
X591312Y-567639D01*
X583082Y-564794D01*
X574446Y-563524D01*
X565759Y-563930D01*
X557276Y-566013D01*
X549351Y-569620D01*
X542239Y-574700D01*
X536194Y-580999D01*
X531520Y-588314D01*
X528269Y-596442D01*
X526592Y-604977D01*
X526592Y-613714D01*
X528269Y-622249D01*
X531520Y-630377D01*
X536194Y-637692D01*
X542239Y-643991D01*
X549351Y-649071D01*
X557276Y-652678D01*
X565759Y-654761D01*
G37*

%LPD*%
G36*
X919124Y-953058D02*
G01*
X915263Y-952246D01*
X911961Y-950061D01*
X891438Y-929538D01*
X889253Y-926236D01*
X888441Y-922375D01*
X889253Y-918464D01*
X891438Y-915162D01*
X894740Y-912977D01*
X898601Y-912215D01*
X919124Y-912215D01*
X923036Y-912977D01*
X926337Y-915162D01*
X928522Y-918464D01*
X929284Y-922375D01*
X929284Y-942898D01*
X928522Y-946759D01*
X926337Y-950061D01*
X923036Y-952246D01*
G37*

%LPD*%
D10*
X31694Y-1275547D02*
G01*
X79420Y-1293728D01*
X31694Y-1311910D02*
G01*
X79420Y-1293728D01*
X31694Y-1345092D02*
G01*
X79420Y-1326911D01*
X31694Y-1345092D02*
G01*
X79420Y-1363273D01*
X63512Y-1333728D02*
G01*
X63512Y-1356456D01*
X31694Y-1378275D02*
G01*
X79420Y-1378275D01*
X79420Y-1378275D02*
G01*
X79420Y-1405547D01*
X31694Y-1420545D02*
G01*
X79420Y-1420545D01*
X31694Y-1420545D02*
G01*
X31694Y-1450093D01*
X54422Y-1420545D02*
G01*
X54422Y-1438729D01*
X79420Y-1420545D02*
G01*
X79420Y-1450093D01*
X31694Y-1465092D02*
G01*
X79420Y-1465092D01*
X31694Y-1465092D02*
G01*
X79420Y-1496910D01*
X31694Y-1496910D02*
G01*
X79420Y-1496910D01*
X31694Y-1527820D02*
G01*
X79420Y-1527820D01*
X31694Y-1511909D02*
G01*
X31694Y-1543728D01*
X31694Y-1558729D02*
G01*
X79420Y-1558729D01*
X31694Y-1573728D02*
G01*
X79420Y-1573728D01*
X31694Y-1573728D02*
G01*
X79420Y-1605546D01*
X31694Y-1605546D02*
G01*
X79420Y-1605546D01*
X31694Y-1620547D02*
G01*
X79420Y-1620547D01*
X31694Y-1620547D02*
G01*
X31694Y-1650093D01*
X54422Y-1620547D02*
G01*
X54422Y-1638729D01*
X79420Y-1620547D02*
G01*
X79420Y-1650093D01*
X43058Y-1702363D02*
G01*
X40784Y-1702363D01*
X36240Y-1704637D01*
X33967Y-1706910D01*
X31694Y-1711454D01*
X31694Y-1720547D01*
X33967Y-1725091D01*
X36240Y-1727365D01*
X40784Y-1729638D01*
X45331Y-1729638D01*
X49875Y-1727365D01*
X56695Y-1722818D01*
X79420Y-1700093D01*
X79420Y-1731909D01*
X31694Y-1760547D02*
G01*
X33967Y-1753727D01*
X40784Y-1749183D01*
X52148Y-1746910D01*
X58966Y-1746910D01*
X70330Y-1749183D01*
X77147Y-1753727D01*
X79420Y-1760547D01*
X79420Y-1765091D01*
X77147Y-1771909D01*
X70330Y-1776455D01*
X58966Y-1778728D01*
X52148Y-1778728D01*
X40784Y-1776455D01*
X33967Y-1771909D01*
X31694Y-1765091D01*
X31694Y-1760547D01*
X43058Y-1796000D02*
G01*
X40784Y-1796000D01*
X36240Y-1798274D01*
X33967Y-1800547D01*
X31694Y-1805091D01*
X31694Y-1814182D01*
X33967Y-1818728D01*
X36240Y-1820999D01*
X40784Y-1823272D01*
X45331Y-1823272D01*
X49875Y-1820999D01*
X56695Y-1816455D01*
X79420Y-1793727D01*
X79420Y-1825546D01*
X43058Y-1842818D02*
G01*
X40784Y-1842818D01*
X36240Y-1845091D01*
X33967Y-1847364D01*
X31694Y-1851908D01*
X31694Y-1860999D01*
X33967Y-1865546D01*
X36240Y-1867819D01*
X40784Y-1870092D01*
X45331Y-1870092D01*
X49875Y-1867819D01*
X56695Y-1863272D01*
X79420Y-1840547D01*
X79420Y-1872363D01*
D11*
X747521Y-827023D02*
G01*
X814323Y-827023D01*
X863600Y-876300D01*
X939800Y-876300D01*
X965200Y-901700D01*
X965200Y-1016000D01*
X1143000Y-1193800D01*
X1143000Y-1333500D01*
X1104900Y-1371600D01*
X1104900Y-1600200D01*
X1079500Y-1625600D01*
X1045971Y-1627123D01*
X747521Y-954023D02*
G01*
X865123Y-954023D01*
X901700Y-990600D01*
X901700Y-1092200D01*
X1016000Y-1206500D01*
X1016000Y-1346200D01*
X965200Y-1397000D01*
X965200Y-1460500D01*
X1003300Y-1498600D01*
X1045971Y-1498345D01*
X747521Y-1081023D02*
G01*
X788923Y-1081023D01*
X889000Y-1181100D01*
X889000Y-1498600D01*
X952500Y-1562100D01*
X1046226Y-1562607D01*
X825500Y-1524000D02*
G01*
X747521Y-1446021D01*
X747521Y-1208023D01*
D12*
X1701800Y-1917700D02*
G01*
X1701800Y-1081023D01*
X1288542Y-1081023D01*
X1701800Y-1081023D02*
G01*
X1778507Y-1081278D01*
X1880362Y-1087373D01*
D11*
X1288542Y-827023D02*
G01*
X1874164Y-827023D01*
X1880412Y-833272D01*
D13*
X1452879Y-522734D02*
G01*
X1231900Y-524507D01*
X802639Y-378460D01*
X330454Y-377444D01*
X215645Y-268223D01*
D14*
G01*
X1288542Y-827023D03*
G01*
X1288542Y-954023D03*
G01*
X1288542Y-1081023D03*
G01*
X1288542Y-1208023D03*
G01*
X747521Y-827023D03*
G01*
X747521Y-954023D03*
G01*
X747521Y-1081023D03*
G01*
X747521Y-1208023D03*
D15*
G01*
X1880412Y-1722272D03*
G01*
X1880412Y-1595272D03*
G01*
X1880412Y-1468272D03*
G01*
X1880412Y-1341272D03*
G01*
X1880412Y-1214272D03*
G01*
X1880412Y-1087272D03*
G01*
X1880412Y-960272D03*
G01*
X1880412Y-833272D03*
G01*
X1880412Y-706272D03*
G01*
X1880412Y-579272D03*
G01*
X1880412Y-452272D03*
G01*
X1880412Y-325272D03*
D16*
G01*
X1969312Y-1722272D03*
G01*
X1969312Y-1595272D03*
G01*
X1969312Y-1468272D03*
G01*
X1969312Y-1087272D03*
G01*
X1969312Y-1214272D03*
G01*
X1969312Y-1341272D03*
G01*
X1969312Y-706272D03*
G01*
X1969312Y-833272D03*
G01*
X1969312Y-960272D03*
G01*
X1969312Y-325272D03*
G01*
X1969312Y-452272D03*
G01*
X1969312Y-579272D03*
D17*
G01*
X1145667Y-123088D03*
G01*
X891667Y-123088D03*
G01*
X637667Y-123088D03*
G01*
X1652244Y-123088D03*
G01*
X1398066Y-123088D03*
D16*
G01*
X67614Y-947191D03*
G01*
X67614Y-1074191D03*
G01*
X67614Y-1201191D03*
G01*
X67614Y-820191D03*
G01*
X67614Y-693191D03*
G01*
X67614Y-566191D03*
D15*
G01*
X156489Y-1201165D03*
G01*
X156489Y-1074165D03*
G01*
X156489Y-947165D03*
G01*
X156489Y-820165D03*
G01*
X156489Y-693165D03*
G01*
X156489Y-566165D03*
D18*
G01*
X214121Y-198120D03*
G01*
X215645Y-268223D03*
G01*
X1701800Y-1917700D03*
D19*
G01*
X1536700Y-1155700D03*
G01*
X1625600Y-1282700D03*
G01*
X190500Y-1841500D03*
G01*
X1117600Y-1854200D03*
G01*
X508000Y-1231900D03*
G01*
X538937Y-1419605D03*
G01*
X604520Y-1358900D03*
G01*
X665479Y-1338579D03*
G01*
X1045971Y-1438910D03*
G01*
X1045971Y-1498345D03*
G01*
X1046226Y-1562607D03*
G01*
X1045971Y-1627123D03*
G01*
X1045971Y-1692147D03*
G01*
X1046226Y-1757426D03*
G01*
X1046226Y-1817623D03*
G01*
X929639Y-1902460D03*
G01*
X844804Y-1903729D03*
G01*
X766063Y-1902713D03*
G01*
X465073Y-1683004D03*
G01*
X687323Y-1709928D03*
G01*
X687323Y-1640331D03*
G01*
X823213Y-1704847D03*
G01*
X666495Y-1546605D03*
G01*
X175513Y-1649221D03*
G01*
X54863Y-211328D03*
G01*
X53847Y-270763D03*
G01*
X1161034Y-1769363D03*
G01*
X1335023Y-1769363D03*
G01*
X1818386Y-1865884D03*
G01*
X1820926Y-1952244D03*
D18*
G01*
X1451863Y-522731D03*
G01*
X1450086Y-593597D03*
D19*
G01*
X1182370Y-1388871D03*
G01*
X483870Y-691642D03*
G01*
X1117345Y-690626D03*
G01*
X1115313Y-962913D03*
G01*
X481076Y-797560D03*
G01*
X1113536Y-830326D03*
G01*
X584200Y-723900D03*
G01*
X1016000Y-723900D03*
G01*
X584200Y-927100D03*
G01*
X1016000Y-927100D03*
G01*
X1092454Y-1234694D03*
G01*
X962279Y-1231900D03*
G01*
X1016000Y-825500D03*
G01*
X584200Y-825500D03*
G01*
X800100Y-723900D03*
G01*
X914400Y-825500D03*
G01*
X914400Y-927100D03*
G01*
X825500Y-1524000D03*
G01*
X702563Y-609854D03*
G01*
X767334Y-610107D03*
G01*
X962405Y-609854D03*
G01*
X572262Y-609345D03*
G01*
X1027176Y-610107D03*
G01*
X1293698Y-363473D03*
G01*
X213360Y-62484D03*
G01*
X450595Y-1862073D03*
M02*
